<svg width="104" height="21" viewBox="0 0 104 21" fill="none" xmlns="http://www.w3.org/2000/svg">
<mask id="path-1-outside-1_723_46" maskUnits="userSpaceOnUse" x="0" y="0" width="104" height="21" fill="black">
<rect fill="white" width="104" height="21"/>
<path d="M1.016 19V2.2H7.16C8.776 2.2 9.976 2.576 10.76 3.328C11.544 4.064 11.936 5.104 11.936 6.448C11.936 7.344 11.72 8.112 11.288 8.752C10.856 9.392 10.288 9.856 9.584 10.144C10.544 10.432 11.312 10.976 11.888 11.776C12.48 12.56 12.776 13.472 12.776 14.512C12.776 15.968 12.352 17.08 11.504 17.848C10.656 18.616 9.336 19 7.544 19H1.016ZM2.48 17.584H7.424C8.752 17.584 9.712 17.32 10.304 16.792C10.912 16.264 11.216 15.464 11.216 14.392C11.216 13.352 10.856 12.52 10.136 11.896C9.416 11.272 8.488 10.96 7.352 10.96H2.48V17.584ZM2.48 9.544H7.232C8.24 9.544 9.016 9.272 9.56 8.728C10.104 8.168 10.376 7.456 10.376 6.592C10.376 5.552 10.104 4.792 9.56 4.312C9.016 3.832 8.152 3.592 6.968 3.592H2.48V9.544ZM15.8932 19V1.672H17.3572V19H15.8932ZM24.0043 19.216C22.8843 19.232 21.9723 18.976 21.2683 18.448C20.5803 17.92 20.2363 17.152 20.2363 16.144C20.2363 15.376 20.4923 14.704 21.0043 14.128C21.5323 13.552 22.1963 13.104 22.9963 12.784C23.8123 12.448 24.6523 12.28 25.5163 12.28C26.7003 12.28 27.6363 12.56 28.3243 13.12V11.152C28.3243 10.08 28.1003 9.384 27.6523 9.064C27.2043 8.728 26.4843 8.56 25.4922 8.56C24.8523 8.56 24.1403 8.68 23.3563 8.92C22.5723 9.144 21.9083 9.432 21.3643 9.784L20.6683 8.632C21.2923 8.232 22.0443 7.896 22.9243 7.624C23.8203 7.352 24.6763 7.216 25.4922 7.216C26.9483 7.216 28.0203 7.496 28.7083 8.056C29.3963 8.616 29.7403 9.648 29.7403 11.152V17.512C29.7403 17.816 29.8203 17.992 29.9803 18.04C30.1563 18.072 30.5323 18.032 31.1083 17.92V18.952C30.9483 19.016 30.7323 19.072 30.4603 19.12C30.1883 19.184 29.9323 19.216 29.6923 19.216C29.1483 19.216 28.7963 19.104 28.6363 18.88C28.4763 18.656 28.3803 18.232 28.3483 17.608C27.8523 18.152 27.1963 18.552 26.3803 18.808C25.5643 19.064 24.7723 19.2 24.0043 19.216ZM24.0763 17.896C24.8443 17.88 25.5563 17.76 26.2122 17.536C26.8843 17.312 27.4123 16.992 27.7963 16.576C28.1963 16.144 28.3803 15.624 28.3483 15.016C28.3003 14.52 28.0283 14.152 27.5323 13.912C27.0363 13.656 26.3963 13.536 25.6123 13.552C24.9563 13.552 24.3243 13.664 23.7163 13.888C23.1083 14.112 22.6123 14.424 22.2283 14.824C21.8603 15.208 21.6763 15.656 21.6763 16.168C21.6763 16.76 21.9003 17.2 22.3483 17.488C22.7963 17.76 23.3723 17.896 24.0763 17.896ZM33.776 19V7.504H35.144L35.192 9.136C35.56 8.592 36.048 8.136 36.656 7.768C37.28 7.4 37.984 7.216 38.768 7.216C40 7.216 40.992 7.608 41.744 8.392C42.496 9.176 42.872 10.296 42.872 11.752V19H41.432V11.968C41.432 10.848 41.16 10.008 40.616 9.448C40.088 8.888 39.4 8.608 38.552 8.608C37.912 8.608 37.336 8.752 36.824 9.04C36.328 9.312 35.936 9.688 35.648 10.168C35.376 10.632 35.24 11.152 35.24 11.728V19H33.776ZM51.1357 19.264C50.1117 19.264 49.1997 19.016 48.3997 18.52C47.5997 18.008 46.9677 17.296 46.5037 16.384C46.0397 15.472 45.8077 14.424 45.8077 13.24C45.8077 12.056 46.0397 11.016 46.5037 10.12C46.9677 9.208 47.5997 8.504 48.3997 8.008C49.1997 7.496 50.1117 7.24 51.1357 7.24C51.9517 7.24 52.7037 7.408 53.3917 7.744C54.0957 8.064 54.6957 8.544 55.1917 9.184L54.0397 10.048C53.3197 9.088 52.3517 8.608 51.1357 8.608C50.0157 8.608 49.0877 9.032 48.3517 9.88C47.6317 10.712 47.2717 11.832 47.2717 13.24C47.2717 14.648 47.6317 15.776 48.3517 16.624C49.0877 17.472 50.0157 17.896 51.1357 17.896C52.3517 17.896 53.3197 17.416 54.0397 16.456L55.1917 17.32C54.1677 18.616 52.8157 19.264 51.1357 19.264ZM58.1041 19V1.672H59.5681V9.136C59.9041 8.592 60.3761 8.136 60.9841 7.768C61.6081 7.4 62.3121 7.216 63.0961 7.216C64.3281 7.216 65.3201 7.608 66.0721 8.392C66.8241 9.176 67.2001 10.296 67.2001 11.752V19H65.7601V11.968C65.7601 10.848 65.4881 10.008 64.9441 9.448C64.4161 8.888 63.7281 8.608 62.8801 8.608C62.2401 8.608 61.6641 8.752 61.1521 9.04C60.6561 9.312 60.2641 9.688 59.9761 10.168C59.7041 10.632 59.5681 11.152 59.5681 11.728V19H58.1041ZM73.8558 19.216C72.7358 19.232 71.8238 18.976 71.1198 18.448C70.4318 17.92 70.0878 17.152 70.0878 16.144C70.0878 15.376 70.3438 14.704 70.8558 14.128C71.3838 13.552 72.0478 13.104 72.8478 12.784C73.6638 12.448 74.5038 12.28 75.3678 12.28C76.5518 12.28 77.4878 12.56 78.1758 13.12V11.152C78.1758 10.08 77.9518 9.384 77.5038 9.064C77.0558 8.728 76.3358 8.56 75.3438 8.56C74.7038 8.56 73.9918 8.68 73.2078 8.92C72.4238 9.144 71.7598 9.432 71.2158 9.784L70.5198 8.632C71.1438 8.232 71.8958 7.896 72.7758 7.624C73.6718 7.352 74.5278 7.216 75.3438 7.216C76.7998 7.216 77.8718 7.496 78.5598 8.056C79.2478 8.616 79.5918 9.648 79.5918 11.152V17.512C79.5918 17.816 79.6718 17.992 79.8318 18.04C80.0078 18.072 80.3838 18.032 80.9598 17.92V18.952C80.7998 19.016 80.5838 19.072 80.3118 19.12C80.0398 19.184 79.7838 19.216 79.5438 19.216C78.9998 19.216 78.6478 19.104 78.4878 18.88C78.3278 18.656 78.2318 18.232 78.1998 17.608C77.7038 18.152 77.0478 18.552 76.2318 18.808C75.4158 19.064 74.6238 19.2 73.8558 19.216ZM73.9278 17.896C74.6958 17.88 75.4078 17.76 76.0638 17.536C76.7358 17.312 77.2638 16.992 77.6478 16.576C78.0478 16.144 78.2318 15.624 78.1998 15.016C78.1518 14.52 77.8798 14.152 77.3838 13.912C76.8878 13.656 76.2478 13.536 75.4638 13.552C74.8078 13.552 74.1758 13.664 73.5678 13.888C72.9598 14.112 72.4638 14.424 72.0798 14.824C71.7118 15.208 71.5278 15.656 71.5278 16.168C71.5278 16.76 71.7518 17.2 72.1998 17.488C72.6478 17.76 73.2238 17.896 73.9278 17.896ZM83.6276 19V7.504H85.0196L85.0916 9.496C85.4116 8.824 85.9156 8.28 86.6036 7.864C87.3076 7.432 88.0836 7.216 88.9316 7.216C89.1556 7.216 89.3796 7.232 89.6036 7.264C89.8436 7.28 90.0436 7.312 90.2036 7.36V8.776C90.0596 8.744 89.8516 8.712 89.5796 8.68C89.3236 8.648 89.0596 8.632 88.7876 8.632C88.1156 8.632 87.4996 8.792 86.9396 9.112C86.3796 9.416 85.9316 9.832 85.5956 10.36C85.2756 10.872 85.1156 11.456 85.1156 12.112V19H83.6276ZM97.331 19.264C96.307 19.264 95.395 19.016 94.595 18.52C93.795 18.008 93.163 17.304 92.699 16.408C92.235 15.496 92.003 14.44 92.003 13.24C92.003 12.04 92.235 10.992 92.699 10.096C93.163 9.2 93.795 8.504 94.595 8.008C95.395 7.496 96.307 7.24 97.331 7.24C98.195 7.24 98.963 7.448 99.635 7.864C100.307 8.264 100.843 8.816 101.243 9.52V1.672H102.707V19H101.363L101.339 16.888C100.923 17.624 100.371 18.208 99.683 18.64C98.995 19.056 98.211 19.264 97.331 19.264ZM97.379 17.896C98.131 17.896 98.795 17.704 99.371 17.32C99.963 16.936 100.427 16.4 100.763 15.712C101.099 15.008 101.267 14.184 101.267 13.24C101.267 12.296 101.099 11.48 100.763 10.792C100.427 10.104 99.963 9.568 99.371 9.184C98.795 8.8 98.131 8.608 97.379 8.608C96.627 8.608 95.955 8.8 95.363 9.184C94.771 9.568 94.307 10.104 93.971 10.792C93.635 11.48 93.467 12.296 93.467 13.24C93.467 14.184 93.635 15.008 93.971 15.712C94.307 16.4 94.771 16.936 95.363 17.32C95.955 17.704 96.627 17.896 97.379 17.896Z"/>
</mask>
<path d="M1.016 19V2.2H7.16C8.776 2.2 9.976 2.576 10.76 3.328C11.544 4.064 11.936 5.104 11.936 6.448C11.936 7.344 11.72 8.112 11.288 8.752C10.856 9.392 10.288 9.856 9.584 10.144C10.544 10.432 11.312 10.976 11.888 11.776C12.48 12.56 12.776 13.472 12.776 14.512C12.776 15.968 12.352 17.08 11.504 17.848C10.656 18.616 9.336 19 7.544 19H1.016ZM2.48 17.584H7.424C8.752 17.584 9.712 17.32 10.304 16.792C10.912 16.264 11.216 15.464 11.216 14.392C11.216 13.352 10.856 12.52 10.136 11.896C9.416 11.272 8.488 10.96 7.352 10.96H2.48V17.584ZM2.48 9.544H7.232C8.24 9.544 9.016 9.272 9.56 8.728C10.104 8.168 10.376 7.456 10.376 6.592C10.376 5.552 10.104 4.792 9.56 4.312C9.016 3.832 8.152 3.592 6.968 3.592H2.48V9.544ZM15.8932 19V1.672H17.3572V19H15.8932ZM24.0043 19.216C22.8843 19.232 21.9723 18.976 21.2683 18.448C20.5803 17.92 20.2363 17.152 20.2363 16.144C20.2363 15.376 20.4923 14.704 21.0043 14.128C21.5323 13.552 22.1963 13.104 22.9963 12.784C23.8123 12.448 24.6523 12.28 25.5163 12.28C26.7003 12.28 27.6363 12.56 28.3243 13.12V11.152C28.3243 10.08 28.1003 9.384 27.6523 9.064C27.2043 8.728 26.4843 8.56 25.4922 8.56C24.8523 8.56 24.1403 8.68 23.3563 8.92C22.5723 9.144 21.9083 9.432 21.3643 9.784L20.6683 8.632C21.2923 8.232 22.0443 7.896 22.9243 7.624C23.8203 7.352 24.6763 7.216 25.4922 7.216C26.9483 7.216 28.0203 7.496 28.7083 8.056C29.3963 8.616 29.7403 9.648 29.7403 11.152V17.512C29.7403 17.816 29.8203 17.992 29.9803 18.04C30.1563 18.072 30.5323 18.032 31.1083 17.92V18.952C30.9483 19.016 30.7323 19.072 30.4603 19.12C30.1883 19.184 29.9323 19.216 29.6923 19.216C29.1483 19.216 28.7963 19.104 28.6363 18.88C28.4763 18.656 28.3803 18.232 28.3483 17.608C27.8523 18.152 27.1963 18.552 26.3803 18.808C25.5643 19.064 24.7723 19.2 24.0043 19.216ZM24.0763 17.896C24.8443 17.88 25.5563 17.76 26.2122 17.536C26.8843 17.312 27.4123 16.992 27.7963 16.576C28.1963 16.144 28.3803 15.624 28.3483 15.016C28.3003 14.52 28.0283 14.152 27.5323 13.912C27.0363 13.656 26.3963 13.536 25.6123 13.552C24.9563 13.552 24.3243 13.664 23.7163 13.888C23.1083 14.112 22.6123 14.424 22.2283 14.824C21.8603 15.208 21.6763 15.656 21.6763 16.168C21.6763 16.76 21.9003 17.2 22.3483 17.488C22.7963 17.76 23.3723 17.896 24.0763 17.896ZM33.776 19V7.504H35.144L35.192 9.136C35.56 8.592 36.048 8.136 36.656 7.768C37.28 7.4 37.984 7.216 38.768 7.216C40 7.216 40.992 7.608 41.744 8.392C42.496 9.176 42.872 10.296 42.872 11.752V19H41.432V11.968C41.432 10.848 41.16 10.008 40.616 9.448C40.088 8.888 39.4 8.608 38.552 8.608C37.912 8.608 37.336 8.752 36.824 9.04C36.328 9.312 35.936 9.688 35.648 10.168C35.376 10.632 35.24 11.152 35.24 11.728V19H33.776ZM51.1357 19.264C50.1117 19.264 49.1997 19.016 48.3997 18.52C47.5997 18.008 46.9677 17.296 46.5037 16.384C46.0397 15.472 45.8077 14.424 45.8077 13.24C45.8077 12.056 46.0397 11.016 46.5037 10.12C46.9677 9.208 47.5997 8.504 48.3997 8.008C49.1997 7.496 50.1117 7.24 51.1357 7.24C51.9517 7.24 52.7037 7.408 53.3917 7.744C54.0957 8.064 54.6957 8.544 55.1917 9.184L54.0397 10.048C53.3197 9.088 52.3517 8.608 51.1357 8.608C50.0157 8.608 49.0877 9.032 48.3517 9.88C47.6317 10.712 47.2717 11.832 47.2717 13.24C47.2717 14.648 47.6317 15.776 48.3517 16.624C49.0877 17.472 50.0157 17.896 51.1357 17.896C52.3517 17.896 53.3197 17.416 54.0397 16.456L55.1917 17.32C54.1677 18.616 52.8157 19.264 51.1357 19.264ZM58.1041 19V1.672H59.5681V9.136C59.9041 8.592 60.3761 8.136 60.9841 7.768C61.6081 7.4 62.3121 7.216 63.0961 7.216C64.3281 7.216 65.3201 7.608 66.0721 8.392C66.8241 9.176 67.2001 10.296 67.2001 11.752V19H65.7601V11.968C65.7601 10.848 65.4881 10.008 64.9441 9.448C64.4161 8.888 63.7281 8.608 62.8801 8.608C62.2401 8.608 61.6641 8.752 61.1521 9.04C60.6561 9.312 60.2641 9.688 59.9761 10.168C59.7041 10.632 59.5681 11.152 59.5681 11.728V19H58.1041ZM73.8558 19.216C72.7358 19.232 71.8238 18.976 71.1198 18.448C70.4318 17.92 70.0878 17.152 70.0878 16.144C70.0878 15.376 70.3438 14.704 70.8558 14.128C71.3838 13.552 72.0478 13.104 72.8478 12.784C73.6638 12.448 74.5038 12.28 75.3678 12.28C76.5518 12.28 77.4878 12.56 78.1758 13.12V11.152C78.1758 10.08 77.9518 9.384 77.5038 9.064C77.0558 8.728 76.3358 8.56 75.3438 8.56C74.7038 8.56 73.9918 8.68 73.2078 8.92C72.4238 9.144 71.7598 9.432 71.2158 9.784L70.5198 8.632C71.1438 8.232 71.8958 7.896 72.7758 7.624C73.6718 7.352 74.5278 7.216 75.3438 7.216C76.7998 7.216 77.8718 7.496 78.5598 8.056C79.2478 8.616 79.5918 9.648 79.5918 11.152V17.512C79.5918 17.816 79.6718 17.992 79.8318 18.04C80.0078 18.072 80.3838 18.032 80.9598 17.92V18.952C80.7998 19.016 80.5838 19.072 80.3118 19.12C80.0398 19.184 79.7838 19.216 79.5438 19.216C78.9998 19.216 78.6478 19.104 78.4878 18.88C78.3278 18.656 78.2318 18.232 78.1998 17.608C77.7038 18.152 77.0478 18.552 76.2318 18.808C75.4158 19.064 74.6238 19.2 73.8558 19.216ZM73.9278 17.896C74.6958 17.88 75.4078 17.76 76.0638 17.536C76.7358 17.312 77.2638 16.992 77.6478 16.576C78.0478 16.144 78.2318 15.624 78.1998 15.016C78.1518 14.52 77.8798 14.152 77.3838 13.912C76.8878 13.656 76.2478 13.536 75.4638 13.552C74.8078 13.552 74.1758 13.664 73.5678 13.888C72.9598 14.112 72.4638 14.424 72.0798 14.824C71.7118 15.208 71.5278 15.656 71.5278 16.168C71.5278 16.76 71.7518 17.2 72.1998 17.488C72.6478 17.76 73.2238 17.896 73.9278 17.896ZM83.6276 19V7.504H85.0196L85.0916 9.496C85.4116 8.824 85.9156 8.28 86.6036 7.864C87.3076 7.432 88.0836 7.216 88.9316 7.216C89.1556 7.216 89.3796 7.232 89.6036 7.264C89.8436 7.28 90.0436 7.312 90.2036 7.36V8.776C90.0596 8.744 89.8516 8.712 89.5796 8.68C89.3236 8.648 89.0596 8.632 88.7876 8.632C88.1156 8.632 87.4996 8.792 86.9396 9.112C86.3796 9.416 85.9316 9.832 85.5956 10.36C85.2756 10.872 85.1156 11.456 85.1156 12.112V19H83.6276ZM97.331 19.264C96.307 19.264 95.395 19.016 94.595 18.52C93.795 18.008 93.163 17.304 92.699 16.408C92.235 15.496 92.003 14.44 92.003 13.24C92.003 12.04 92.235 10.992 92.699 10.096C93.163 9.2 93.795 8.504 94.595 8.008C95.395 7.496 96.307 7.24 97.331 7.24C98.195 7.24 98.963 7.448 99.635 7.864C100.307 8.264 100.843 8.816 101.243 9.52V1.672H102.707V19H101.363L101.339 16.888C100.923 17.624 100.371 18.208 99.683 18.64C98.995 19.056 98.211 19.264 97.331 19.264ZM97.379 17.896C98.131 17.896 98.795 17.704 99.371 17.32C99.963 16.936 100.427 16.4 100.763 15.712C101.099 15.008 101.267 14.184 101.267 13.24C101.267 12.296 101.099 11.48 100.763 10.792C100.427 10.104 99.963 9.568 99.371 9.184C98.795 8.8 98.131 8.608 97.379 8.608C96.627 8.608 95.955 8.8 95.363 9.184C94.771 9.568 94.307 10.104 93.971 10.792C93.635 11.48 93.467 12.296 93.467 13.24C93.467 14.184 93.635 15.008 93.971 15.712C94.307 16.4 94.771 16.936 95.363 17.32C95.955 17.704 96.627 17.896 97.379 17.896Z" fill="white"/>
<path d="M1.016 19H0.216V19.8H1.016V19ZM1.016 2.2V1.4H0.216V2.2H1.016ZM10.76 3.328L10.2062 3.90538L10.2125 3.91126L10.76 3.328ZM9.584 10.144L9.28109 9.40356L7.18716 10.2602L9.35412 10.9103L9.584 10.144ZM11.888 11.776L11.2388 12.2434L11.2441 12.2508L11.2496 12.2581L11.888 11.776ZM11.504 17.848L12.041 18.441L12.041 18.441L11.504 17.848ZM2.48 17.584H1.68V18.384H2.48V17.584ZM10.304 16.792L9.77941 16.1879L9.77151 16.195L10.304 16.792ZM2.48 10.96V10.16H1.68V10.96H2.48ZM2.48 9.544H1.68V10.344H2.48V9.544ZM9.56 8.728L10.1257 9.29374L10.1338 9.28543L9.56 8.728ZM9.56 4.312L10.0893 3.71213L10.0893 3.71213L9.56 4.312ZM2.48 3.592V2.792H1.68V3.592H2.48ZM1.016 19H1.816V2.2H1.016H0.216V19H1.016ZM1.016 2.2V3H7.16V2.2V1.4H1.016V2.2ZM7.16 2.2V3C8.66875 3 9.62998 3.35262 10.2062 3.90534L10.76 3.328L11.3138 2.75065C10.322 1.79937 8.88325 1.4 7.16 1.4V2.2ZM10.76 3.328L10.2125 3.91126C10.7969 4.45997 11.136 5.26604 11.136 6.448H11.936H12.736C12.736 4.94196 12.2911 3.66803 11.3075 2.74474L10.76 3.328ZM11.936 6.448H11.136C11.136 7.21076 10.954 7.81684 10.6249 8.30442L11.288 8.752L11.9511 9.19958C12.486 8.40716 12.736 7.47724 12.736 6.448H11.936ZM11.288 8.752L10.6249 8.30442C10.28 8.81546 9.83639 9.1764 9.28109 9.40356L9.584 10.144L9.88691 10.8844C10.7396 10.5356 11.432 9.96854 11.9511 9.19958L11.288 8.752ZM9.584 10.144L9.35412 10.9103C10.1483 11.1485 10.7677 11.5891 11.2388 12.2434L11.888 11.776L12.5372 11.3086C11.8563 10.3629 10.9397 9.71549 9.81388 9.37774L9.584 10.144ZM11.888 11.776L11.2496 12.2581C11.7303 12.8948 11.976 13.6351 11.976 14.512H12.776H13.576C13.576 13.3089 13.2297 12.2252 12.5264 11.2939L11.888 11.776ZM12.776 14.512H11.976C11.976 15.8078 11.6043 16.6778 10.967 17.255L11.504 17.848L12.041 18.441C13.0997 17.4822 13.576 16.1282 13.576 14.512H12.776ZM11.504 17.848L10.967 17.255C10.33 17.8319 9.24509 18.2 7.544 18.2V19V19.8C9.42691 19.8 10.982 19.4001 12.041 18.441L11.504 17.848ZM7.544 19V18.2H1.016V19V19.8H7.544V19ZM2.48 17.584V18.384H7.424V17.584V16.784H2.48V17.584ZM7.424 17.584V18.384C8.82548 18.384 10.0267 18.1113 10.8365 17.389L10.304 16.792L9.77151 16.195C9.39731 16.5287 8.67852 16.784 7.424 16.784V17.584ZM10.304 16.792L10.8285 17.396C11.6647 16.6699 12.016 15.6146 12.016 14.392H11.216H10.416C10.416 15.3134 10.1593 15.8581 9.77945 16.188L10.304 16.792ZM11.216 14.392H12.016C12.016 13.1439 11.5726 12.0824 10.6599 11.2914L10.136 11.896L9.61206 12.5006C10.1394 12.9576 10.416 13.5601 10.416 14.392H11.216ZM10.136 11.896L10.6599 11.2914C9.76759 10.5181 8.64161 10.16 7.352 10.16V10.96V11.76C8.33439 11.76 9.06441 12.0259 9.61206 12.5006L10.136 11.896ZM7.352 10.96V10.16H2.48V10.96V11.76H7.352V10.96ZM2.48 10.96H1.68V17.584H2.48H3.28V10.96H2.48ZM2.48 9.544V10.344H7.232V9.544V8.744H2.48V9.544ZM7.232 9.544V10.344C8.38375 10.344 9.38936 10.03 10.1257 9.29368L9.56 8.728L8.99432 8.16231C8.64264 8.51399 8.09625 8.744 7.232 8.744V9.544ZM9.56 8.728L10.1338 9.28543C10.8389 8.55959 11.176 7.63992 11.176 6.592H10.376H9.576C9.576 7.27208 9.36908 7.77641 8.98618 8.17057L9.56 8.728ZM10.376 6.592H11.176C11.176 5.42458 10.8695 4.40052 10.0893 3.71213L9.56 4.312L9.0307 4.91187C9.33853 5.18348 9.576 5.67942 9.576 6.592H10.376ZM9.56 4.312L10.0893 3.71213C9.33108 3.04312 8.23146 2.792 6.968 2.792V3.592V4.392C8.07254 4.392 8.70092 4.62088 9.0307 4.91187L9.56 4.312ZM6.968 3.592V2.792H2.48V3.592V4.392H6.968V3.592ZM2.48 3.592H1.68V9.544H2.48H3.28V3.592H2.48ZM15.8932 19H15.0932V19.8H15.8932V19ZM15.8932 1.672V0.871998H15.0932V1.672H15.8932ZM17.3572 1.672H18.1572V0.871998H17.3572V1.672ZM17.3572 19V19.8H18.1572V19H17.3572ZM15.8932 19H16.6932V1.672H15.8932H15.0932V19H15.8932ZM15.8932 1.672V2.472H17.3572V1.672V0.871998H15.8932V1.672ZM17.3572 1.672H16.5572V19H17.3572H18.1572V1.672H17.3572ZM17.3572 19V18.2H15.8932V19V19.8H17.3572V19ZM24.0043 19.216L24.0157 20.0159L24.0209 20.0158L24.0043 19.216ZM21.2683 18.448L20.7812 19.0827L20.7883 19.088L21.2683 18.448ZM21.0043 14.128L20.4145 13.5874L20.4063 13.5965L21.0043 14.128ZM22.9963 12.784L23.2934 13.5268L23.3009 13.5237L22.9963 12.784ZM28.3243 13.12L27.8192 13.7404L29.1243 14.8027V13.12H28.3243ZM27.6523 9.064L27.1723 9.704L27.1797 9.70958L27.1873 9.71499L27.6523 9.064ZM23.3563 8.92L23.576 9.68922L23.5832 9.68716L23.5904 9.68496L23.3563 8.92ZM21.3643 9.784L20.6795 10.1977L21.1062 10.9039L21.7989 10.4557L21.3643 9.784ZM20.6683 8.632L20.2365 7.9585L19.5807 8.37891L19.9835 9.04569L20.6683 8.632ZM22.9243 7.624L22.6919 6.85848L22.688 6.85968L22.9243 7.624ZM28.7083 8.056L29.2133 7.43555L29.2133 7.43555L28.7083 8.056ZM29.9803 18.04L29.7504 18.8063L29.7932 18.8191L29.8371 18.8271L29.9803 18.04ZM31.1083 17.92H31.9083V16.9495L30.9556 17.1347L31.1083 17.92ZM31.1083 18.952L31.4054 19.6948L31.9083 19.4936V18.952H31.1083ZM30.4603 19.12L30.3212 18.3322L30.299 18.3361L30.277 18.3413L30.4603 19.12ZM28.6363 18.88L27.9853 19.345L27.9853 19.345L28.6363 18.88ZM28.3483 17.608L29.1472 17.567L29.049 15.6521L27.7571 17.069L28.3483 17.608ZM26.3803 18.808L26.6197 19.5713L26.6197 19.5713L26.3803 18.808ZM24.0763 17.896V18.696H24.0846L24.0929 18.6958L24.0763 17.896ZM26.2122 17.536L25.9593 16.777L25.9537 16.7789L26.2122 17.536ZM27.7963 16.576L27.2092 16.0325L27.2084 16.0334L27.7963 16.576ZM28.3483 15.016L29.1471 14.974L29.1462 14.9564L29.1445 14.9389L28.3483 15.016ZM27.5323 13.912L27.1653 14.6229L27.1745 14.6276L27.1838 14.6321L27.5323 13.912ZM25.6123 13.552V14.352H25.6204L25.6286 14.3518L25.6123 13.552ZM22.2283 14.824L21.6511 14.27L21.6507 14.2705L22.2283 14.824ZM22.3483 17.488L21.9156 18.1609L21.9243 18.1665L21.9331 18.1718L22.3483 17.488ZM24.0043 19.216L23.9928 18.4161C23.0009 18.4303 22.2759 18.2038 21.7483 17.808L21.2683 18.448L20.7883 19.088C21.6686 19.7482 22.7676 20.0337 24.0157 20.0159L24.0043 19.216ZM21.2683 18.448L21.7553 17.8134C21.2982 17.4625 21.0363 16.9489 21.0363 16.144H20.2363H19.4363C19.4363 17.3551 19.8623 18.3775 20.7812 19.0826L21.2683 18.448ZM20.2363 16.144H21.0363C21.0363 15.5727 21.2198 15.0896 21.6022 14.6595L21.0043 14.128L20.4063 13.5965C19.7647 14.3184 19.4363 15.1793 19.4363 16.144H20.2363ZM21.0043 14.128L21.594 14.6686C22.0328 14.1898 22.5932 13.8068 23.2934 13.5268L22.9963 12.784L22.6991 12.0412C21.7993 12.4012 21.0317 12.9142 20.4145 13.5874L21.0043 14.128ZM22.9963 12.784L23.3009 13.5237C24.0223 13.2267 24.759 13.08 25.5163 13.08V12.28V11.48C24.5455 11.48 23.6022 11.6693 22.6917 12.0443L22.9963 12.784ZM25.5163 12.28V13.08C26.578 13.08 27.3154 13.3304 27.8192 13.7404L28.3243 13.12L28.8293 12.4996C27.9571 11.7896 26.8225 11.48 25.5163 11.48V12.28ZM28.3243 13.12H29.1243V11.152H28.3243H27.5243V13.12H28.3243ZM28.3243 11.152H29.1243C29.1243 10.0486 28.9093 8.9788 28.1172 8.41301L27.6523 9.064L27.1873 9.71499C27.2912 9.7892 27.5243 10.1114 27.5243 11.152H28.3243ZM27.6523 9.064L28.1323 8.424C27.4742 7.93047 26.539 7.76 25.4922 7.76V8.56V9.36C26.4295 9.36 26.9343 9.52553 27.1723 9.704L27.6523 9.064ZM25.4922 8.56V7.76C24.7542 7.76 23.9618 7.89799 23.1221 8.15504L23.3563 8.92L23.5904 9.68496C24.3187 9.46201 24.9503 9.36 25.4922 9.36V8.56ZM23.3563 8.92L23.1365 8.15078C22.2951 8.39116 21.5546 8.70796 20.9296 9.11234L21.3643 9.784L21.7989 10.4557C22.2619 10.156 22.8494 9.89684 23.576 9.68922L23.3563 8.92ZM21.3643 9.784L22.049 9.37031L21.353 8.21831L20.6683 8.632L19.9835 9.04569L20.6795 10.1977L21.3643 9.784ZM20.6683 8.632L21.1 9.3055C21.6506 8.95254 22.3335 8.64394 23.1605 8.38832L22.9243 7.624L22.688 6.85968C21.755 7.14806 20.9339 7.51146 20.2365 7.9585L20.6683 8.632ZM22.9243 7.624L23.1566 8.3895C23.9882 8.13707 24.7656 8.016 25.4922 8.016V7.216V6.416C24.5869 6.416 23.6523 6.56693 22.6919 6.85849L22.9243 7.624ZM25.4922 7.216V8.016C26.8734 8.016 27.7243 8.2866 28.2032 8.67645L28.7083 8.056L29.2133 7.43555C28.3162 6.7054 27.0231 6.416 25.4922 6.416V7.216ZM28.7083 8.056L28.2032 8.67645C28.6074 9.00542 28.9403 9.72638 28.9403 11.152H29.7403H30.5403C30.5403 9.56962 30.1851 8.22658 29.2133 7.43555L28.7083 8.056ZM29.7403 11.152H28.9403V17.512H29.7403H30.5403V11.152H29.7403ZM29.7403 17.512H28.9403C28.9403 17.7198 28.9654 17.9686 29.072 18.203C29.1909 18.4646 29.4134 18.7052 29.7504 18.8063L29.9803 18.04L30.2101 17.2737C30.2858 17.2965 30.3595 17.3377 30.4211 17.3952C30.4804 17.4505 30.5126 17.5059 30.5285 17.541C30.5551 17.5994 30.5403 17.6082 30.5403 17.512H29.7403ZM29.9803 18.04L29.8371 18.8271C30.045 18.8649 30.2799 18.8507 30.4789 18.8295C30.6985 18.8061 30.9612 18.7636 31.2609 18.7053L31.1083 17.92L30.9556 17.1347C30.6793 17.1884 30.466 17.2219 30.3096 17.2385C30.1326 17.2573 30.0915 17.2471 30.1234 17.2529L29.9803 18.04ZM31.1083 17.92H30.3083V18.952H31.1083H31.9083V17.92H31.1083ZM31.1083 18.952L30.8111 18.2092C30.7232 18.2444 30.5673 18.2887 30.3212 18.3322L30.4603 19.12L30.5993 19.9078C30.8972 19.8553 31.1733 19.7876 31.4054 19.6948L31.1083 18.952ZM30.4603 19.12L30.277 18.3413C30.0555 18.3934 29.8615 18.416 29.6923 18.416V19.216V20.016C30.003 20.016 30.321 19.9746 30.6435 19.8987L30.4603 19.12ZM29.6923 19.216V18.416C29.4675 18.416 29.3328 18.3919 29.2628 18.3697C29.1957 18.3483 29.2374 18.3452 29.2872 18.415L28.6363 18.88L27.9853 19.345C28.3926 19.9152 29.1221 20.016 29.6923 20.016V19.216ZM28.6363 18.88L29.2872 18.415C29.2944 18.4251 29.2611 18.3789 29.2245 18.2173C29.1899 18.0646 29.1618 17.8513 29.1472 17.567L28.3483 17.608L27.5493 17.649C27.5667 17.9887 27.6026 18.2994 27.664 18.5707C27.7234 18.8331 27.8181 19.1109 27.9853 19.345L28.6363 18.88ZM28.3483 17.608L27.7571 17.069C27.3709 17.4926 26.8439 17.8241 26.1408 18.0447L26.3803 18.808L26.6197 19.5713C27.5486 19.2799 28.3336 18.8114 28.9394 18.147L28.3483 17.608ZM26.3803 18.808L26.1408 18.0447C25.3889 18.2806 24.672 18.4019 23.9876 18.4162L24.0043 19.216L24.0209 20.0158C24.8725 19.9981 25.7396 19.8474 26.6197 19.5713L26.3803 18.808ZM24.0763 17.896L24.0929 18.6958C24.9344 18.6783 25.7289 18.5464 26.4708 18.2931L26.2122 17.536L25.9537 16.7789C25.3836 16.9736 24.7541 17.0817 24.0596 17.0962L24.0763 17.896ZM26.2122 17.536L26.4652 18.2949C27.2337 18.0388 27.8883 17.6558 28.3841 17.1186L27.7963 16.576L27.2084 16.0334C26.9362 16.3282 26.5348 16.5852 25.9593 16.7771L26.2122 17.536ZM27.7963 16.576L28.3833 17.1195C28.9356 16.523 29.1901 15.7895 29.1471 14.974L28.3483 15.016L27.5494 15.058C27.5704 15.4585 27.4569 15.765 27.2092 16.0325L27.7963 16.576ZM28.3483 15.016L29.1445 14.9389C29.0664 14.1317 28.5961 13.538 27.8807 13.1919L27.5323 13.912L27.1838 14.6321C27.4604 14.766 27.5341 14.9083 27.552 15.0931L28.3483 15.016ZM27.5323 13.912L27.8992 13.2011C27.2466 12.8643 26.4622 12.7345 25.5959 12.7522L25.6123 13.552L25.6286 14.3518C26.3303 14.3375 26.8259 14.4477 27.1653 14.6229L27.5323 13.912ZM25.6123 13.552V12.752C24.8631 12.752 24.1374 12.8803 23.4397 13.1373L23.7163 13.888L23.9928 14.6387C24.5111 14.4477 25.0494 14.352 25.6123 14.352V13.552ZM23.7163 13.888L23.4397 13.1373C22.737 13.3962 22.1322 13.7689 21.6511 14.27L22.2283 14.824L22.8054 15.378C23.0923 15.0791 23.4795 14.8278 23.9928 14.6387L23.7163 13.888ZM22.2283 14.824L21.6507 14.2705C21.1461 14.797 20.8763 15.441 20.8763 16.168H21.6763H22.4763C22.4763 15.871 22.5744 15.619 22.8058 15.3775L22.2283 14.824ZM21.6763 16.168H20.8763C20.8763 16.9962 21.21 17.7073 21.9156 18.1609L22.3483 17.488L22.7809 16.8151C22.5905 16.6927 22.4763 16.5238 22.4763 16.168H21.6763ZM22.3483 17.488L21.9331 18.1718C22.5422 18.5416 23.2745 18.696 24.0763 18.696V17.896V17.096C23.47 17.096 23.0503 16.9784 22.7634 16.8042L22.3483 17.488ZM33.776 19H32.976V19.8H33.776V19ZM33.776 7.504V6.704H32.976V7.504H33.776ZM35.144 7.504L35.9437 7.48048L35.9208 6.704H35.144V7.504ZM35.192 9.136L34.3923 9.15952L34.4652 11.6381L35.8546 9.58425L35.192 9.136ZM36.656 7.768L36.2496 7.07886L36.2418 7.0836L36.656 7.768ZM41.744 8.392L42.3213 7.83822L42.3213 7.83822L41.744 8.392ZM42.872 19V19.8H43.672V19H42.872ZM41.432 19H40.632V19.8H41.432V19ZM40.616 9.448L40.0339 9.99687L40.0422 10.0054L40.616 9.448ZM36.824 9.04L37.2087 9.74149L37.2162 9.73726L36.824 9.04ZM35.648 10.168L34.962 9.75638L34.9578 9.76342L35.648 10.168ZM35.24 19V19.8H36.04V19H35.24ZM33.776 19H34.576V7.504H33.776H32.976V19H33.776ZM33.776 7.504V8.304H35.144V7.504V6.704H33.776V7.504ZM35.144 7.504L34.3443 7.52752L34.3923 9.15952L35.192 9.136L35.9917 9.11248L35.9437 7.48048L35.144 7.504ZM35.192 9.136L35.8546 9.58425C36.1527 9.14365 36.5529 8.76553 37.0702 8.4524L36.656 7.768L36.2418 7.0836C35.5431 7.50646 34.9673 8.04035 34.5294 8.68775L35.192 9.136ZM36.656 7.768L37.0624 8.45709C37.5532 8.16764 38.1148 8.016 38.768 8.016V7.216V6.416C37.8532 6.416 37.0068 6.63236 36.2496 7.07891L36.656 7.768ZM38.768 7.216V8.016C39.8141 8.016 40.5864 8.34078 41.1667 8.94578L41.744 8.392L42.3213 7.83822C41.3976 6.87522 40.1859 6.416 38.768 6.416V7.216ZM41.744 8.392L41.1667 8.94578C41.7327 9.53592 42.072 10.4304 42.072 11.752H42.872H43.672C43.672 10.1616 43.2593 8.81608 42.3213 7.83822L41.744 8.392ZM42.872 11.752H42.072V19H42.872H43.672V11.752H42.872ZM42.872 19V18.2H41.432V19V19.8H42.872V19ZM41.432 19H42.232V11.968H41.432H40.632V19H41.432ZM41.432 11.968H42.232C42.232 10.7304 41.9316 9.65421 41.1898 8.89057L40.616 9.448L40.0422 10.0054C40.3884 10.3618 40.632 10.9656 40.632 11.968H41.432ZM40.616 9.448L41.1981 8.89919C40.5027 8.16164 39.5955 7.808 38.552 7.808V8.608V9.408C39.2045 9.408 39.6733 9.61436 40.0339 9.99681L40.616 9.448ZM38.552 8.608V7.808C37.7872 7.808 37.0741 7.98145 36.4318 8.34274L36.824 9.04L37.2162 9.73726C37.5979 9.52255 38.0368 9.408 38.552 9.408V8.608ZM36.824 9.04L36.4393 8.33855C35.8204 8.67799 35.3238 9.15344 34.962 9.7564L35.648 10.168L36.334 10.5796C36.5482 10.2226 36.8356 9.94601 37.2087 9.74145L36.824 9.04ZM35.648 10.168L34.9578 9.76342C34.6088 10.3588 34.44 11.0202 34.44 11.728H35.24H36.04C36.04 11.2838 36.1432 10.9052 36.3382 10.5726L35.648 10.168ZM35.24 11.728H34.44V19H35.24H36.04V11.728H35.24ZM35.24 19V18.2H33.776V19V19.8H35.24V19ZM48.3997 18.52L47.9684 19.1939L47.9781 19.1999L48.3997 18.52ZM46.5037 16.384L47.2167 16.0212L47.2167 16.0212L46.5037 16.384ZM46.5037 10.12L47.2141 10.4879L47.2167 10.4828L46.5037 10.12ZM48.3997 8.008L48.8213 8.68799L48.8309 8.68182L48.3997 8.008ZM53.3917 7.744L53.0406 8.46285L53.0506 8.46771L53.0606 8.47229L53.3917 7.744ZM55.1917 9.184L55.6717 9.824L56.3219 9.33635L55.824 8.69394L55.1917 9.184ZM54.0397 10.048L53.3997 10.528L53.8797 11.168L54.5197 10.688L54.0397 10.048ZM48.3517 9.88L47.7475 9.35562L47.7468 9.3565L48.3517 9.88ZM48.3517 16.624L47.7418 17.1418L47.7475 17.1484L48.3517 16.624ZM54.0397 16.456L54.5197 15.816L53.8797 15.336L53.3997 15.976L54.0397 16.456ZM55.1917 17.32L55.8194 17.816L56.328 17.1722L55.6717 16.68L55.1917 17.32ZM51.1357 19.264V18.464C50.2471 18.464 49.4836 18.2507 48.8212 17.8401L48.3997 18.52L47.9781 19.1999C48.9158 19.7813 49.9763 20.064 51.1357 20.064V19.264ZM48.3997 18.52L48.8309 17.8462C48.1601 17.4169 47.6213 16.8165 47.2167 16.0212L46.5037 16.384L45.7907 16.7468C46.3141 17.7755 47.0393 18.5991 47.9684 19.1938L48.3997 18.52ZM46.5037 16.384L47.2167 16.0212C46.8183 15.2381 46.6077 14.3178 46.6077 13.24H45.8077H45.0077C45.0077 14.5302 45.2611 15.7059 45.7907 16.7468L46.5037 16.384ZM45.8077 13.24H46.6077C46.6077 12.1618 46.8184 11.252 47.2141 10.4879L46.5037 10.12L45.7933 9.75212C45.261 10.78 45.0077 11.9502 45.0077 13.24H45.8077ZM46.5037 10.12L47.2167 10.4828C47.6204 9.68939 48.1563 9.10017 48.8212 8.68792L48.3997 8.008L47.9781 7.32808C47.0431 7.90782 46.315 8.72661 45.7907 9.75723L46.5037 10.12ZM48.3997 8.008L48.8309 8.68182C49.4921 8.25868 50.2521 8.04 51.1357 8.04V7.24V6.44C49.9713 6.44 48.9073 6.73332 47.9684 7.33418L48.3997 8.008ZM51.1357 7.24V8.04C51.8382 8.04 52.4691 8.18373 53.0406 8.46285L53.3917 7.744L53.7428 7.02515C52.9383 6.63227 52.0652 6.44 51.1357 6.44V7.24ZM53.3917 7.744L53.0606 8.47229C53.6407 8.73597 54.1391 9.13176 54.5594 9.67406L55.1917 9.184L55.824 8.69394C55.2523 7.95623 54.5506 7.39203 53.7227 7.01571L53.3917 7.744ZM55.1917 9.184L54.7117 8.544L53.5597 9.408L54.0397 10.048L54.5197 10.688L55.6717 9.824L55.1917 9.184ZM54.0397 10.048L54.6797 9.568C53.8062 8.40341 52.5995 7.808 51.1357 7.808V8.608V9.408C52.1038 9.408 52.8331 9.77259 53.3997 10.528L54.0397 10.048ZM51.1357 8.608V7.808C49.7832 7.808 48.635 8.33307 47.7475 9.35562L48.3517 9.88L48.9559 10.4044C49.5404 9.73093 50.2482 9.408 51.1357 9.408V8.608ZM48.3517 9.88L47.7468 9.3565C46.869 10.3708 46.4717 11.6949 46.4717 13.24H47.2717H48.0717C48.0717 11.9691 48.3944 11.0532 48.9566 10.4035L48.3517 9.88ZM47.2717 13.24H46.4717C46.4717 14.7859 46.8693 16.1141 47.7419 17.1418L48.3517 16.624L48.9615 16.1062C48.3941 15.4379 48.0717 14.5101 48.0717 13.24H47.2717ZM48.3517 16.624L47.7475 17.1484C48.635 18.1709 49.7832 18.696 51.1357 18.696V17.896V17.096C50.2482 17.096 49.5404 16.7731 48.9559 16.0996L48.3517 16.624ZM51.1357 17.896V18.696C52.5995 18.696 53.8062 18.1006 54.6797 16.936L54.0397 16.456L53.3997 15.976C52.8331 16.7314 52.1038 17.096 51.1357 17.096V17.896ZM54.0397 16.456L53.5597 17.096L54.7117 17.96L55.1917 17.32L55.6717 16.68L54.5197 15.816L54.0397 16.456ZM55.1917 17.32L54.564 16.824C53.6947 17.9242 52.5759 18.464 51.1357 18.464V19.264V20.064C53.0555 20.064 54.6407 19.3078 55.8194 17.816L55.1917 17.32ZM58.1041 19H57.3041V19.8H58.1041V19ZM58.1041 1.672V0.871998H57.3041V1.672H58.1041ZM59.5681 1.672H60.3681V0.871998H59.5681V1.672ZM59.5681 9.136H58.7681V11.9536L60.2488 9.55639L59.5681 9.136ZM60.9841 7.768L60.5777 7.07886L60.5699 7.0836L60.9841 7.768ZM66.0721 8.392L66.6495 7.83822L66.6495 7.83822L66.0721 8.392ZM67.2001 19V19.8H68.0001V19H67.2001ZM65.7601 19H64.9601V19.8H65.7601V19ZM64.9441 9.448L64.362 9.99687L64.3703 10.0054L64.9441 9.448ZM61.1521 9.04L61.5368 9.74149L61.5443 9.73726L61.1521 9.04ZM59.9761 10.168L59.2901 9.75638L59.286 9.76342L59.9761 10.168ZM59.5681 19V19.8H60.3681V19H59.5681ZM58.1041 19H58.9041V1.672H58.1041H57.3041V19H58.1041ZM58.1041 1.672V2.472H59.5681V1.672V0.871998H58.1041V1.672ZM59.5681 1.672H58.7681V9.136H59.5681H60.3681V1.672H59.5681ZM59.5681 9.136L60.2488 9.55639C60.511 9.13183 60.8866 8.76218 61.3984 8.4524L60.9841 7.768L60.5699 7.0836C59.8657 7.50982 59.2973 8.05217 58.8875 8.71561L59.5681 9.136ZM60.9841 7.768L61.3905 8.45709C61.8813 8.16764 62.4429 8.016 63.0961 8.016V7.216V6.416C62.1813 6.416 61.3349 6.63236 60.5777 7.07891L60.9841 7.768ZM63.0961 7.216V8.016C64.1422 8.016 64.9145 8.34078 65.4948 8.94578L66.0721 8.392L66.6495 7.83822C65.7258 6.87522 64.514 6.416 63.0961 6.416V7.216ZM66.0721 8.392L65.4948 8.94578C66.0608 9.53592 66.4001 10.4304 66.4001 11.752H67.2001H68.0001C68.0001 10.1616 67.5874 8.81608 66.6495 7.83822L66.0721 8.392ZM67.2001 11.752H66.4001V19H67.2001H68.0001V11.752H67.2001ZM67.2001 19V18.2H65.7601V19V19.8H67.2001V19ZM65.7601 19H66.5601V11.968H65.7601H64.9601V19H65.7601ZM65.7601 11.968H66.5601C66.5601 10.7304 66.2598 9.65421 65.5179 8.89057L64.9441 9.448L64.3703 10.0054C64.7165 10.3618 64.9601 10.9656 64.9601 11.968H65.7601ZM64.9441 9.448L65.5262 8.89919C64.8308 8.16164 63.9236 7.808 62.8801 7.808V8.608V9.408C63.5326 9.408 64.0015 9.61436 64.3621 9.99681L64.9441 9.448ZM62.8801 8.608V7.808C62.1154 7.808 61.4022 7.98145 60.7599 8.34274L61.1521 9.04L61.5443 9.73726C61.926 9.52255 62.3649 9.408 62.8801 9.408V8.608ZM61.1521 9.04L60.7675 8.33855C60.1485 8.67799 59.6519 9.15344 59.2901 9.7564L59.9761 10.168L60.6621 10.5796C60.8763 10.2226 61.1638 9.94601 61.5368 9.74145L61.1521 9.04ZM59.9761 10.168L59.286 9.76342C58.9369 10.3588 58.7681 11.0202 58.7681 11.728H59.5681H60.3681C60.3681 11.2838 60.4713 10.9052 60.6663 10.5726L59.9761 10.168ZM59.5681 11.728H58.7681V19H59.5681H60.3681V11.728H59.5681ZM59.5681 19V18.2H58.1041V19V19.8H59.5681V19ZM73.8558 19.216L73.8672 20.0159L73.8725 20.0158L73.8558 19.216ZM71.1198 18.448L70.6327 19.0827L70.6398 19.088L71.1198 18.448ZM70.8558 14.128L70.266 13.5874L70.2579 13.5965L70.8558 14.128ZM72.8478 12.784L73.1449 13.5268L73.1524 13.5237L72.8478 12.784ZM78.1758 13.12L77.6708 13.7404L78.9758 14.8027V13.12H78.1758ZM77.5038 9.064L77.0238 9.704L77.0313 9.70958L77.0388 9.71499L77.5038 9.064ZM73.2078 8.92L73.4276 9.68922L73.4348 9.68716L73.442 9.68496L73.2078 8.92ZM71.2158 9.784L70.5311 10.1977L70.9577 10.9039L71.6504 10.4557L71.2158 9.784ZM70.5198 8.632L70.0881 7.9585L69.4322 8.37891L69.8351 9.04569L70.5198 8.632ZM72.7758 7.624L72.5434 6.85848L72.5396 6.85968L72.7758 7.624ZM78.5598 8.056L79.0648 7.43555L79.0648 7.43555L78.5598 8.056ZM79.8318 18.04L79.6019 18.8063L79.6447 18.8191L79.6887 18.8271L79.8318 18.04ZM80.9598 17.92H81.7598V16.9495L80.8071 17.1347L80.9598 17.92ZM80.9598 18.952L81.2569 19.6948L81.7598 19.4936V18.952H80.9598ZM80.3118 19.12L80.1728 18.3322L80.1506 18.3361L80.1286 18.3413L80.3118 19.12ZM78.4878 18.88L77.8368 19.345L77.8368 19.345L78.4878 18.88ZM78.1998 17.608L78.9988 17.567L78.9006 15.6521L77.6086 17.069L78.1998 17.608ZM76.2318 18.808L76.4713 19.5713L76.4713 19.5713L76.2318 18.808ZM73.9278 17.896V18.696H73.9361L73.9445 18.6958L73.9278 17.896ZM76.0638 17.536L75.8108 16.777L75.8053 16.7789L76.0638 17.536ZM77.6478 16.576L77.0608 16.0325L77.06 16.0334L77.6478 16.576ZM78.1998 15.016L78.9987 14.974L78.9978 14.9564L78.9961 14.9389L78.1998 15.016ZM77.3838 13.912L77.0169 14.6229L77.0261 14.6276L77.0354 14.6321L77.3838 13.912ZM75.4638 13.552V14.352H75.472L75.4801 14.3518L75.4638 13.552ZM72.0798 14.824L71.5027 14.27L71.5022 14.2705L72.0798 14.824ZM72.1998 17.488L71.7672 18.1609L71.7758 18.1665L71.7846 18.1718L72.1998 17.488ZM73.8558 19.216L73.8444 18.4161C72.8525 18.4303 72.1275 18.2038 71.5998 17.808L71.1198 18.448L70.6398 19.088C71.5201 19.7482 72.6192 20.0337 73.8672 20.0159L73.8558 19.216ZM71.1198 18.448L71.6069 17.8134C71.1497 17.4625 70.8878 16.9489 70.8878 16.144H70.0878H69.2878C69.2878 17.3551 69.7139 18.3775 70.6328 19.0826L71.1198 18.448ZM70.0878 16.144H70.8878C70.8878 15.5727 71.0714 15.0896 71.4537 14.6595L70.8558 14.128L70.2579 13.5965C69.6162 14.3184 69.2878 15.1793 69.2878 16.144H70.0878ZM70.8558 14.128L71.4455 14.6686C71.8844 14.1898 72.4448 13.8068 73.1449 13.5268L72.8478 12.784L72.5507 12.0412C71.6508 12.4012 70.8832 12.9142 70.2661 13.5874L70.8558 14.128ZM72.8478 12.784L73.1524 13.5237C73.8739 13.2267 74.6106 13.08 75.3678 13.08V12.28V11.48C74.3971 11.48 73.4537 11.6693 72.5432 12.0443L72.8478 12.784ZM75.3678 12.28V13.08C76.4296 13.08 77.167 13.3304 77.6708 13.7404L78.1758 13.12L78.6808 12.4996C77.8087 11.7896 76.674 11.48 75.3678 11.48V12.28ZM78.1758 13.12H78.9758V11.152H78.1758H77.3758V13.12H78.1758ZM78.1758 11.152H78.9758C78.9758 10.0486 78.7609 8.9788 77.9688 8.41301L77.5038 9.064L77.0388 9.71499C77.1427 9.7892 77.3758 10.1114 77.3758 11.152H78.1758ZM77.5038 9.064L77.9838 8.424C77.3258 7.93047 76.3906 7.76 75.3438 7.76V8.56V9.36C76.281 9.36 76.7858 9.52553 77.0238 9.704L77.5038 9.064ZM75.3438 8.56V7.76C74.6058 7.76 73.8133 7.89799 72.9736 8.15504L73.2078 8.92L73.442 9.68496C74.1703 9.46201 74.8018 9.36 75.3438 9.36V8.56ZM73.2078 8.92L72.988 8.15078C72.1467 8.39116 71.4062 8.70796 70.7812 9.11234L71.2158 9.784L71.6504 10.4557C72.1135 10.156 72.7009 9.89684 73.4276 9.68922L73.2078 8.92ZM71.2158 9.784L71.9005 9.37031L71.2045 8.21831L70.5198 8.632L69.8351 9.04569L70.5311 10.1977L71.2158 9.784ZM70.5198 8.632L70.9515 9.3055C71.5022 8.95254 72.1851 8.64394 73.0121 8.38832L72.7758 7.624L72.5396 6.85968C71.6066 7.14806 70.7855 7.51146 70.0881 7.9585L70.5198 8.632ZM72.7758 7.624L73.0082 8.3895C73.8397 8.13707 74.6172 8.016 75.3438 8.016V7.216V6.416C74.4385 6.416 73.5039 6.56693 72.5434 6.85849L72.7758 7.624ZM75.3438 7.216V8.016C76.725 8.016 77.5758 8.2866 78.0548 8.67645L78.5598 8.056L79.0648 7.43555C78.1678 6.7054 76.8746 6.416 75.3438 6.416V7.216ZM78.5598 8.056L78.0548 8.67645C78.459 9.00542 78.7918 9.72638 78.7918 11.152H79.5918H80.3918C80.3918 9.56962 80.0367 8.22658 79.0648 7.43555L78.5598 8.056ZM79.5918 11.152H78.7918V17.512H79.5918H80.3918V11.152H79.5918ZM79.5918 17.512H78.7918C78.7918 17.7198 78.8169 17.9686 78.9235 18.203C79.0424 18.4646 79.265 18.7052 79.6019 18.8063L79.8318 18.04L80.0617 17.2737C80.1374 17.2965 80.2111 17.3377 80.2727 17.3952C80.332 17.4505 80.3642 17.5059 80.3801 17.541C80.4067 17.5994 80.3918 17.6082 80.3918 17.512H79.5918ZM79.8318 18.04L79.6887 18.8271C79.8966 18.8649 80.1314 18.8507 80.3304 18.8295C80.5501 18.8061 80.8128 18.7636 81.1125 18.7053L80.9598 17.92L80.8071 17.1347C80.5308 17.1884 80.3175 17.2219 80.1612 17.2385C79.9842 17.2573 79.943 17.2471 79.9749 17.2529L79.8318 18.04ZM80.9598 17.92H80.1598V18.952H80.9598H81.7598V17.92H80.9598ZM80.9598 18.952L80.6627 18.2092C80.5748 18.2444 80.4189 18.2887 80.1728 18.3322L80.3118 19.12L80.4508 19.9078C80.7488 19.8553 81.0249 19.7876 81.2569 19.6948L80.9598 18.952ZM80.3118 19.12L80.1286 18.3413C79.9071 18.3934 79.713 18.416 79.5438 18.416V19.216V20.016C79.8546 20.016 80.1725 19.9746 80.495 19.8987L80.3118 19.12ZM79.5438 19.216V18.416C79.319 18.416 79.1843 18.3919 79.1144 18.3697C79.0473 18.3483 79.089 18.3452 79.1388 18.415L78.4878 18.88L77.8368 19.345C78.2442 19.9152 78.9736 20.016 79.5438 20.016V19.216ZM78.4878 18.88L79.1388 18.415C79.146 18.4251 79.1127 18.3789 79.0761 18.2173C79.0415 18.0646 79.0133 17.8513 78.9988 17.567L78.1998 17.608L77.4009 17.649C77.4183 17.9887 77.4541 18.2994 77.5156 18.5707C77.575 18.8331 77.6696 19.1109 77.8368 19.345L78.4878 18.88ZM78.1998 17.608L77.6086 17.069C77.2225 17.4926 76.6954 17.8241 75.9923 18.0447L76.2318 18.808L76.4713 19.5713C77.4002 19.2799 78.1852 18.8114 78.791 18.147L78.1998 17.608ZM76.2318 18.808L75.9923 18.0447C75.2404 18.2806 74.5235 18.4019 73.8391 18.4162L73.8558 19.216L73.8725 20.0158C74.7241 19.9981 75.5912 19.8474 76.4713 19.5713L76.2318 18.808ZM73.9278 17.896L73.9445 18.6958C74.786 18.6783 75.5805 18.5464 76.3223 18.2931L76.0638 17.536L75.8053 16.7789C75.2352 16.9736 74.6056 17.0817 73.9111 17.0962L73.9278 17.896ZM76.0638 17.536L76.3168 18.2949C77.0852 18.0388 77.7398 17.6558 78.2357 17.1186L77.6478 16.576L77.06 16.0334C76.7878 16.3282 76.3864 16.5852 75.8108 16.7771L76.0638 17.536ZM77.6478 16.576L78.2348 17.1195C78.7872 16.523 79.0416 15.7895 78.9987 14.974L78.1998 15.016L77.4009 15.058C77.422 15.4585 77.3085 15.765 77.0608 16.0325L77.6478 16.576ZM78.1998 15.016L78.9961 14.9389C78.918 14.1317 78.4477 13.538 77.7323 13.1919L77.3838 13.912L77.0354 14.6321C77.312 14.766 77.3857 14.9083 77.4035 15.0931L78.1998 15.016ZM77.3838 13.912L77.7507 13.2011C77.0982 12.8643 76.3138 12.7345 75.4475 12.7522L75.4638 13.552L75.4801 14.3518C76.1819 14.3375 76.6775 14.4477 77.0169 14.6229L77.3838 13.912ZM75.4638 13.552V12.752C74.7146 12.752 73.9889 12.8803 73.2912 13.1373L73.5678 13.888L73.8444 14.6387C74.3627 14.4477 74.901 14.352 75.4638 14.352V13.552ZM73.5678 13.888L73.2912 13.1373C72.5886 13.3962 71.9837 13.7689 71.5027 14.27L72.0798 14.824L72.6569 15.378C72.9439 15.0791 73.3311 14.8278 73.8444 14.6387L73.5678 13.888ZM72.0798 14.824L71.5022 14.2705C70.9976 14.797 70.7278 15.441 70.7278 16.168H71.5278H72.3278C72.3278 15.871 72.426 15.619 72.6574 15.3775L72.0798 14.824ZM71.5278 16.168H70.7278C70.7278 16.9962 71.0615 17.7073 71.7672 18.1609L72.1998 17.488L72.6324 16.8151C72.4421 16.6927 72.3278 16.5238 72.3278 16.168H71.5278ZM72.1998 17.488L71.7846 18.1718C72.3937 18.5416 73.1261 18.696 73.9278 18.696V17.896V17.096C73.3216 17.096 72.9019 16.9784 72.615 16.8042L72.1998 17.488ZM83.6276 19H82.8276V19.8H83.6276V19ZM83.6276 7.504V6.704H82.8276V7.504H83.6276ZM85.0196 7.504L85.819 7.4751L85.7912 6.704H85.0196V7.504ZM85.0916 9.496L84.2921 9.5249L85.8139 9.83995L85.0916 9.496ZM86.6036 7.864L87.0175 8.5486L87.022 8.54586L86.6036 7.864ZM89.6036 7.264L89.4904 8.05596L89.5203 8.06022L89.5503 8.06223L89.6036 7.264ZM90.2036 7.36H91.0036V6.76478L90.4334 6.59374L90.2036 7.36ZM90.2036 8.776L90.03 9.55695L91.0036 9.77329V8.776H90.2036ZM89.5796 8.68L89.4803 9.47384L89.4861 9.47452L89.5796 8.68ZM86.9396 9.112L87.3212 9.81508L87.3289 9.81092L87.3365 9.80659L86.9396 9.112ZM85.5956 10.36L84.9206 9.93049L84.9172 9.936L85.5956 10.36ZM85.1156 19V19.8H85.9156V19H85.1156ZM83.6276 19H84.4276V7.504H83.6276H82.8276V19H83.6276ZM83.6276 7.504V8.304H85.0196V7.504V6.704H83.6276V7.504ZM85.0196 7.504L84.2201 7.5329L84.2921 9.5249L85.0916 9.496L85.891 9.4671L85.819 7.4751L85.0196 7.504ZM85.0916 9.496L85.8139 9.83995C86.0612 9.3206 86.4522 8.89042 87.0175 8.54859L86.6036 7.864L86.1896 7.17941C85.379 7.66958 84.762 8.3274 84.3693 9.15205L85.0916 9.496ZM86.6036 7.864L87.022 8.54586C87.5966 8.19325 88.2271 8.016 88.9316 8.016V7.216V6.416C87.94 6.416 87.0185 6.67075 86.1851 7.18214L86.6036 7.864ZM88.9316 7.216V8.016C89.1173 8.016 89.3035 8.02926 89.4904 8.05596L89.6036 7.264L89.7167 6.47204C89.4556 6.43474 89.1938 6.416 88.9316 6.416V7.216ZM89.6036 7.264L89.5503 8.06223C89.7542 8.07582 89.8902 8.10122 89.9737 8.12626L90.2036 7.36L90.4334 6.59374C90.1969 6.52277 89.9329 6.48418 89.6568 6.46577L89.6036 7.264ZM90.2036 7.36H89.4036V8.776H90.2036H91.0036V7.36H90.2036ZM90.2036 8.776L90.3771 7.99505C90.1932 7.95417 89.9534 7.91846 89.673 7.88548L89.5796 8.68L89.4861 9.47452C89.7498 9.50554 89.926 9.53383 90.03 9.55695L90.2036 8.776ZM89.5796 8.68L89.6788 7.88618C89.3882 7.84985 89.091 7.832 88.7876 7.832V8.632V9.432C89.0282 9.432 89.259 9.44615 89.4803 9.47382L89.5796 8.68ZM88.7876 8.632V7.832C87.9824 7.832 87.2287 8.02538 86.5427 8.4174L86.9396 9.112L87.3365 9.80659C87.7704 9.55862 88.2487 9.432 88.7876 9.432V8.632ZM86.9396 9.112L86.5579 8.40892C85.8808 8.7765 85.3309 9.28573 84.9206 9.9305L85.5956 10.36L86.2705 10.7895C86.5322 10.3783 86.8784 10.0555 87.3212 9.81508L86.9396 9.112ZM85.5956 10.36L84.9172 9.936C84.5109 10.5861 84.3156 11.3195 84.3156 12.112H85.1156H85.9156C85.9156 11.5925 86.0403 11.1579 86.274 10.784L85.5956 10.36ZM85.1156 12.112H84.3156V19H85.1156H85.9156V12.112H85.1156ZM85.1156 19V18.2H83.6276V19V19.8H85.1156V19ZM94.595 18.52L94.1637 19.1939L94.1734 19.1999L94.595 18.52ZM92.699 16.408L91.986 16.7708L91.9886 16.7759L92.699 16.408ZM92.699 10.096L93.4094 10.4639L93.4094 10.4639L92.699 10.096ZM94.595 8.008L95.0166 8.68799L95.0262 8.68182L94.595 8.008ZM99.635 7.864L99.2139 8.54431L99.2258 8.55143L99.635 7.864ZM101.243 9.52L100.547 9.91521L102.043 12.5474V9.52H101.243ZM101.243 1.672V0.871998H100.443V1.672H101.243ZM102.707 1.672H103.507V0.871998H102.707V1.672ZM102.707 19V19.8H103.507V19H102.707ZM101.363 19L100.563 19.0091L100.572 19.8H101.363V19ZM101.339 16.888L102.139 16.8789L102.105 13.9066L100.643 16.4944L101.339 16.888ZM99.683 18.64L100.097 19.3247L100.108 19.3175L99.683 18.64ZM99.371 17.32L98.9356 16.6488L98.9272 16.6544L99.371 17.32ZM100.763 15.712L101.482 16.0631L101.485 16.0566L100.763 15.712ZM100.763 10.792L100.044 11.1431L100.044 11.1431L100.763 10.792ZM99.371 9.184L98.9272 9.84969L98.9356 9.85517L99.371 9.184ZM95.363 9.184L95.7984 9.85517L95.7984 9.85517L95.363 9.184ZM93.971 10.792L94.6899 11.1431L94.6899 11.1431L93.971 10.792ZM93.971 15.712L93.249 16.0566L93.2521 16.0631L93.971 15.712ZM95.363 17.32L94.9276 17.9912L94.9276 17.9912L95.363 17.32ZM97.331 19.264V18.464C96.4424 18.464 95.6789 18.2507 95.0166 17.8401L94.595 18.52L94.1734 19.1999C95.1111 19.7813 96.1716 20.064 97.331 20.064V19.264ZM94.595 18.52L95.0262 17.8462C94.352 17.4146 93.813 16.8195 93.4094 16.0401L92.699 16.408L91.9886 16.7759C92.513 17.7885 93.238 18.6014 94.1638 19.1938L94.595 18.52ZM92.699 16.408L93.412 16.0452C93.0143 15.2635 92.803 14.3356 92.803 13.24H92.003H91.203C91.203 14.5444 91.4557 15.7285 91.986 16.7708L92.699 16.408ZM92.003 13.24H92.803C92.803 12.1439 93.0144 11.2266 93.4094 10.4639L92.699 10.096L91.9886 9.72812C91.4556 10.7574 91.203 11.9361 91.203 13.24H92.003ZM92.699 10.096L93.4094 10.4639C93.812 9.68648 94.3481 9.10238 95.0166 8.68792L94.595 8.008L94.1734 7.32808C93.2419 7.90561 92.514 8.71352 91.9886 9.72812L92.699 10.096ZM94.595 8.008L95.0262 8.68182C95.6874 8.25868 96.4474 8.04 97.331 8.04V7.24V6.44C96.1666 6.44 95.1026 6.73332 94.1638 7.33418L94.595 8.008ZM97.331 7.24V8.04C98.0606 8.04 98.6801 8.21375 99.2139 8.54421L99.635 7.864L100.056 7.18379C99.2459 6.68225 98.3294 6.44 97.331 6.44V7.24ZM99.635 7.864L99.2258 8.55143C99.7743 8.87792 100.213 9.32734 100.547 9.91521L101.243 9.52L101.939 9.12479C101.473 8.30465 100.84 7.65008 100.044 7.17657L99.635 7.864ZM101.243 9.52H102.043V1.672H101.243H100.443V9.52H101.243ZM101.243 1.672V2.472H102.707V1.672V0.871998H101.243V1.672ZM102.707 1.672H101.907V19H102.707H103.507V1.672H102.707ZM102.707 19V18.2H101.363V19V19.8H102.707V19ZM101.363 19L102.163 18.9909L102.139 16.8789L101.339 16.888L100.539 16.8971L100.563 19.0091L101.363 19ZM101.339 16.888L100.643 16.4944C100.289 17.1196 99.8284 17.6041 99.2576 17.9625L99.683 18.64L100.108 19.3175C100.914 18.8119 101.557 18.1284 102.035 17.2816L101.339 16.888ZM99.683 18.64L99.2691 17.9554C98.7176 18.2889 98.0793 18.464 97.331 18.464V19.264V20.064C98.3427 20.064 99.2724 19.8231 100.097 19.3246L99.683 18.64ZM97.379 17.896V18.696C98.2747 18.696 99.096 18.4648 99.8148 17.9856L99.371 17.32L98.9272 16.6544C98.494 16.9432 97.9873 17.096 97.379 17.096V17.896ZM99.371 17.32L99.8064 17.9912C100.53 17.5215 101.088 16.87 101.482 16.0631L100.763 15.712L100.044 15.3609C99.7662 15.93 99.3956 16.3505 98.9356 16.6488L99.371 17.32ZM100.763 15.712L101.485 16.0566C101.882 15.2247 102.067 14.2786 102.067 13.24H101.267H100.467C100.467 14.0894 100.316 14.7913 100.041 15.3674L100.763 15.712ZM101.267 13.24H102.067C102.067 12.2021 101.882 11.2607 101.482 10.4409L100.763 10.792L100.044 11.1431C100.316 11.6993 100.467 12.3899 100.467 13.24H101.267ZM100.763 10.792L101.482 10.4409C101.088 9.63397 100.53 8.98251 99.8064 8.51283L99.371 9.184L98.9356 9.85517C99.3956 10.1535 99.7662 10.574 100.044 11.1431L100.763 10.792ZM99.371 9.184L99.8148 8.51836C99.096 8.03917 98.2747 7.808 97.379 7.808V8.608V9.408C97.9873 9.408 98.494 9.56083 98.9272 9.84964L99.371 9.184ZM97.379 8.608V7.808C96.4831 7.808 95.6579 8.03914 94.9276 8.51283L95.363 9.184L95.7984 9.85517C96.2521 9.56086 96.7709 9.408 97.379 9.408V8.608ZM95.363 9.184L94.9276 8.51283C94.2036 8.98251 93.6462 9.63397 93.2521 10.4409L93.971 10.792L94.6899 11.1431C94.9678 10.574 95.3384 10.1535 95.7984 9.85517L95.363 9.184ZM93.971 10.792L93.2521 10.4409C92.8518 11.2607 92.667 12.2021 92.667 13.24H93.467H94.267C94.267 12.3899 94.4182 11.6993 94.6899 11.1431L93.971 10.792ZM93.467 13.24H92.667C92.667 14.2786 92.852 15.2247 93.249 16.0566L93.971 15.712L94.693 15.3674C94.418 14.7913 94.267 14.0894 94.267 13.24H93.467ZM93.971 15.712L93.2521 16.0631C93.6462 16.87 94.2036 17.5215 94.9276 17.9912L95.363 17.32L95.7984 16.6488C95.3384 16.3505 94.9678 15.93 94.6899 15.3609L93.971 15.712ZM95.363 17.32L94.9276 17.9912C95.6579 18.4649 96.4831 18.696 97.379 18.696V17.896V17.096C96.7709 17.096 96.2521 16.9431 95.7984 16.6488L95.363 17.32Z" fill="white" mask="url(#path-1-outside-1_723_46)"/>
</svg>
