<svg width="155" height="29" viewBox="0 0 155 29" fill="none" xmlns="http://www.w3.org/2000/svg">
<mask id="path-1-outside-1_723_46" maskUnits="userSpaceOnUse" x="0" y="0" width="155" height="29" fill="black">
<rect fill="white" width="155" height="29"/>
<path d="M1.024 27V1.8H10.24C12.664 1.8 14.464 2.364 15.64 3.492C16.816 4.596 17.404 6.156 17.404 8.172C17.404 9.516 17.08 10.668 16.432 11.628C15.784 12.588 14.932 13.284 13.876 13.716C15.316 14.148 16.468 14.964 17.332 16.164C18.22 17.34 18.664 18.708 18.664 20.268C18.664 22.452 18.028 24.12 16.756 25.272C15.484 26.424 13.504 27 10.816 27H1.024ZM3.22 24.876H10.636C12.628 24.876 14.068 24.48 14.956 23.688C15.868 22.896 16.324 21.696 16.324 20.088C16.324 18.528 15.784 17.28 14.704 16.344C13.624 15.408 12.232 14.94 10.528 14.94H3.22V24.876ZM3.22 12.816H10.348C11.86 12.816 13.024 12.408 13.84 11.592C14.656 10.752 15.064 9.684 15.064 8.388C15.064 6.828 14.656 5.688 13.84 4.968C13.024 4.248 11.728 3.888 9.952 3.888H3.22V12.816ZM23.3398 27V1.008H25.5358V27H23.3398ZM35.5064 27.324C33.8264 27.348 32.4584 26.964 31.4024 26.172C30.3704 25.38 29.8544 24.228 29.8544 22.716C29.8544 21.564 30.2384 20.556 31.0064 19.692C31.7984 18.828 32.7944 18.156 33.9944 17.676C35.2184 17.172 36.4784 16.92 37.7744 16.92C39.5504 16.92 40.9544 17.34 41.9864 18.18V15.228C41.9864 13.62 41.6504 12.576 40.9784 12.096C40.3064 11.592 39.2264 11.34 37.7384 11.34C36.7784 11.34 35.7104 11.52 34.5344 11.88C33.3584 12.216 32.3624 12.648 31.5464 13.176L30.5024 11.448C31.4384 10.848 32.5664 10.344 33.8864 9.936C35.2304 9.528 36.5144 9.324 37.7384 9.324C39.9224 9.324 41.5304 9.744 42.5624 10.584C43.5944 11.424 44.1104 12.972 44.1104 15.228V24.768C44.1104 25.224 44.2304 25.488 44.4704 25.56C44.7344 25.608 45.2984 25.548 46.1624 25.38V26.928C45.9224 27.024 45.5984 27.108 45.1904 27.18C44.7824 27.276 44.3984 27.324 44.0384 27.324C43.2224 27.324 42.6944 27.156 42.4544 26.82C42.2144 26.484 42.0704 25.848 42.0224 24.912C41.2784 25.728 40.2944 26.328 39.0704 26.712C37.8464 27.096 36.6584 27.3 35.5064 27.324ZM35.6144 25.344C36.7664 25.32 37.8344 25.14 38.8184 24.804C39.8264 24.468 40.6184 23.988 41.1944 23.364C41.7944 22.716 42.0704 21.936 42.0224 21.024C41.9504 20.28 41.5424 19.728 40.7984 19.368C40.0544 18.984 39.0944 18.804 37.9184 18.828C36.9344 18.828 35.9864 18.996 35.0744 19.332C34.1624 19.668 33.4184 20.136 32.8424 20.736C32.2904 21.312 32.0144 21.984 32.0144 22.752C32.0144 23.64 32.3504 24.3 33.0224 24.732C33.6944 25.14 34.5584 25.344 35.6144 25.344ZM50.164 27V9.756H52.216L52.288 12.204C52.84 11.388 53.572 10.704 54.484 10.152C55.42 9.6 56.476 9.324 57.652 9.324C59.5 9.324 60.988 9.912 62.116 11.088C63.244 12.264 63.808 13.944 63.808 16.128V27H61.648V16.452C61.648 14.772 61.24 13.512 60.424 12.672C59.632 11.832 58.6 11.412 57.328 11.412C56.368 11.412 55.504 11.628 54.736 12.06C53.992 12.468 53.404 13.032 52.972 13.752C52.564 14.448 52.36 15.228 52.36 16.092V27H50.164ZM76.2035 27.396C74.6675 27.396 73.2995 27.024 72.0995 26.28C70.8995 25.512 69.9515 24.444 69.2555 23.076C68.5595 21.708 68.2115 20.136 68.2115 18.36C68.2115 16.584 68.5595 15.024 69.2555 13.68C69.9515 12.312 70.8995 11.256 72.0995 10.512C73.2995 9.744 74.6675 9.36 76.2035 9.36C77.4275 9.36 78.5555 9.612 79.5875 10.116C80.6435 10.596 81.5435 11.316 82.2875 12.276L80.5595 13.572C79.4795 12.132 78.0275 11.412 76.2035 11.412C74.5235 11.412 73.1315 12.048 72.0275 13.32C70.9475 14.568 70.4075 16.248 70.4075 18.36C70.4075 20.472 70.9475 22.164 72.0275 23.436C73.1315 24.708 74.5235 25.344 76.2035 25.344C78.0275 25.344 79.4795 24.624 80.5595 23.184L82.2875 24.48C80.7515 26.424 78.7235 27.396 76.2035 27.396ZM86.6562 27V1.008H88.8522V12.204C89.3562 11.388 90.0642 10.704 90.9762 10.152C91.9122 9.6 92.9682 9.324 94.1442 9.324C95.9922 9.324 97.4802 9.912 98.6082 11.088C99.7362 12.264 100.3 13.944 100.3 16.128V27H98.1402V16.452C98.1402 14.772 97.7322 13.512 96.9162 12.672C96.1242 11.832 95.0922 11.412 93.8202 11.412C92.8602 11.412 91.9962 11.628 91.2282 12.06C90.4842 12.468 89.8962 13.032 89.4642 13.752C89.0562 14.448 88.8522 15.228 88.8522 16.092V27H86.6562ZM110.284 27.324C108.604 27.348 107.236 26.964 106.18 26.172C105.148 25.38 104.632 24.228 104.632 22.716C104.632 21.564 105.016 20.556 105.784 19.692C106.576 18.828 107.572 18.156 108.772 17.676C109.996 17.172 111.256 16.92 112.552 16.92C114.328 16.92 115.732 17.34 116.764 18.18V15.228C116.764 13.62 116.428 12.576 115.756 12.096C115.084 11.592 114.004 11.34 112.516 11.34C111.556 11.34 110.488 11.52 109.312 11.88C108.136 12.216 107.14 12.648 106.324 13.176L105.28 11.448C106.216 10.848 107.344 10.344 108.664 9.936C110.008 9.528 111.292 9.324 112.516 9.324C114.7 9.324 116.308 9.744 117.34 10.584C118.372 11.424 118.888 12.972 118.888 15.228V24.768C118.888 25.224 119.008 25.488 119.248 25.56C119.512 25.608 120.076 25.548 120.94 25.38V26.928C120.7 27.024 120.376 27.108 119.968 27.18C119.56 27.276 119.176 27.324 118.816 27.324C118 27.324 117.472 27.156 117.232 26.82C116.992 26.484 116.848 25.848 116.8 24.912C116.056 25.728 115.072 26.328 113.848 26.712C112.624 27.096 111.436 27.3 110.284 27.324ZM110.392 25.344C111.544 25.32 112.612 25.14 113.596 24.804C114.604 24.468 115.396 23.988 115.972 23.364C116.572 22.716 116.848 21.936 116.8 21.024C116.728 20.28 116.32 19.728 115.576 19.368C114.832 18.984 113.872 18.804 112.696 18.828C111.712 18.828 110.764 18.996 109.852 19.332C108.94 19.668 108.196 20.136 107.62 20.736C107.068 21.312 106.792 21.984 106.792 22.752C106.792 23.64 107.128 24.3 107.8 24.732C108.472 25.14 109.336 25.344 110.392 25.344ZM124.941 27V9.756H127.029L127.137 12.744C127.617 11.736 128.373 10.92 129.405 10.296C130.461 9.648 131.625 9.324 132.897 9.324C133.233 9.324 133.569 9.348 133.905 9.396C134.265 9.42 134.565 9.468 134.805 9.54V11.664C134.589 11.616 134.277 11.568 133.869 11.52C133.485 11.472 133.089 11.448 132.681 11.448C131.673 11.448 130.749 11.688 129.909 12.168C129.069 12.624 128.397 13.248 127.893 14.04C127.413 14.808 127.173 15.684 127.173 16.668V27H124.941ZM145.497 27.396C143.961 27.396 142.593 27.024 141.393 26.28C140.193 25.512 139.245 24.456 138.549 23.112C137.853 21.744 137.505 20.16 137.505 18.36C137.505 16.56 137.853 14.988 138.549 13.644C139.245 12.3 140.193 11.256 141.393 10.512C142.593 9.744 143.961 9.36 145.497 9.36C146.793 9.36 147.945 9.672 148.953 10.296C149.961 10.896 150.765 11.724 151.365 12.78V1.008H153.561V27H151.545L151.509 23.832C150.885 24.936 150.057 25.812 149.025 26.46C147.993 27.084 146.817 27.396 145.497 27.396ZM145.569 25.344C146.697 25.344 147.693 25.056 148.557 24.48C149.445 23.904 150.141 23.1 150.645 22.068C151.149 21.012 151.401 19.776 151.401 18.36C151.401 16.944 151.149 15.72 150.645 14.688C150.141 13.656 149.445 12.852 148.557 12.276C147.693 11.7 146.697 11.412 145.569 11.412C144.441 11.412 143.433 11.7 142.545 12.276C141.657 12.852 140.961 13.656 140.457 14.688C139.953 15.72 139.701 16.944 139.701 18.36C139.701 19.776 139.953 21.012 140.457 22.068C140.961 23.1 141.657 23.904 142.545 24.48C143.433 25.056 144.441 25.344 145.569 25.344Z"/>
</mask>
<path d="M1.024 27V1.8H10.24C12.664 1.8 14.464 2.364 15.64 3.492C16.816 4.596 17.404 6.156 17.404 8.172C17.404 9.516 17.08 10.668 16.432 11.628C15.784 12.588 14.932 13.284 13.876 13.716C15.316 14.148 16.468 14.964 17.332 16.164C18.22 17.34 18.664 18.708 18.664 20.268C18.664 22.452 18.028 24.12 16.756 25.272C15.484 26.424 13.504 27 10.816 27H1.024ZM3.22 24.876H10.636C12.628 24.876 14.068 24.48 14.956 23.688C15.868 22.896 16.324 21.696 16.324 20.088C16.324 18.528 15.784 17.28 14.704 16.344C13.624 15.408 12.232 14.94 10.528 14.94H3.22V24.876ZM3.22 12.816H10.348C11.86 12.816 13.024 12.408 13.84 11.592C14.656 10.752 15.064 9.684 15.064 8.388C15.064 6.828 14.656 5.688 13.84 4.968C13.024 4.248 11.728 3.888 9.952 3.888H3.22V12.816ZM23.3398 27V1.008H25.5358V27H23.3398ZM35.5064 27.324C33.8264 27.348 32.4584 26.964 31.4024 26.172C30.3704 25.38 29.8544 24.228 29.8544 22.716C29.8544 21.564 30.2384 20.556 31.0064 19.692C31.7984 18.828 32.7944 18.156 33.9944 17.676C35.2184 17.172 36.4784 16.92 37.7744 16.92C39.5504 16.92 40.9544 17.34 41.9864 18.18V15.228C41.9864 13.62 41.6504 12.576 40.9784 12.096C40.3064 11.592 39.2264 11.34 37.7384 11.34C36.7784 11.34 35.7104 11.52 34.5344 11.88C33.3584 12.216 32.3624 12.648 31.5464 13.176L30.5024 11.448C31.4384 10.848 32.5664 10.344 33.8864 9.936C35.2304 9.528 36.5144 9.324 37.7384 9.324C39.9224 9.324 41.5304 9.744 42.5624 10.584C43.5944 11.424 44.1104 12.972 44.1104 15.228V24.768C44.1104 25.224 44.2304 25.488 44.4704 25.56C44.7344 25.608 45.2984 25.548 46.1624 25.38V26.928C45.9224 27.024 45.5984 27.108 45.1904 27.18C44.7824 27.276 44.3984 27.324 44.0384 27.324C43.2224 27.324 42.6944 27.156 42.4544 26.82C42.2144 26.484 42.0704 25.848 42.0224 24.912C41.2784 25.728 40.2944 26.328 39.0704 26.712C37.8464 27.096 36.6584 27.3 35.5064 27.324ZM35.6144 25.344C36.7664 25.32 37.8344 25.14 38.8184 24.804C39.8264 24.468 40.6184 23.988 41.1944 23.364C41.7944 22.716 42.0704 21.936 42.0224 21.024C41.9504 20.28 41.5424 19.728 40.7984 19.368C40.0544 18.984 39.0944 18.804 37.9184 18.828C36.9344 18.828 35.9864 18.996 35.0744 19.332C34.1624 19.668 33.4184 20.136 32.8424 20.736C32.2904 21.312 32.0144 21.984 32.0144 22.752C32.0144 23.64 32.3504 24.3 33.0224 24.732C33.6944 25.14 34.5584 25.344 35.6144 25.344ZM50.164 27V9.756H52.216L52.288 12.204C52.84 11.388 53.572 10.704 54.484 10.152C55.42 9.6 56.476 9.324 57.652 9.324C59.5 9.324 60.988 9.912 62.116 11.088C63.244 12.264 63.808 13.944 63.808 16.128V27H61.648V16.452C61.648 14.772 61.24 13.512 60.424 12.672C59.632 11.832 58.6 11.412 57.328 11.412C56.368 11.412 55.504 11.628 54.736 12.06C53.992 12.468 53.404 13.032 52.972 13.752C52.564 14.448 52.36 15.228 52.36 16.092V27H50.164ZM76.2035 27.396C74.6675 27.396 73.2995 27.024 72.0995 26.28C70.8995 25.512 69.9515 24.444 69.2555 23.076C68.5595 21.708 68.2115 20.136 68.2115 18.36C68.2115 16.584 68.5595 15.024 69.2555 13.68C69.9515 12.312 70.8995 11.256 72.0995 10.512C73.2995 9.744 74.6675 9.36 76.2035 9.36C77.4275 9.36 78.5555 9.612 79.5875 10.116C80.6435 10.596 81.5435 11.316 82.2875 12.276L80.5595 13.572C79.4795 12.132 78.0275 11.412 76.2035 11.412C74.5235 11.412 73.1315 12.048 72.0275 13.32C70.9475 14.568 70.4075 16.248 70.4075 18.36C70.4075 20.472 70.9475 22.164 72.0275 23.436C73.1315 24.708 74.5235 25.344 76.2035 25.344C78.0275 25.344 79.4795 24.624 80.5595 23.184L82.2875 24.48C80.7515 26.424 78.7235 27.396 76.2035 27.396ZM86.6562 27V1.008H88.8522V12.204C89.3562 11.388 90.0642 10.704 90.9762 10.152C91.9122 9.6 92.9682 9.324 94.1442 9.324C95.9922 9.324 97.4802 9.912 98.6082 11.088C99.7362 12.264 100.3 13.944 100.3 16.128V27H98.1402V16.452C98.1402 14.772 97.7322 13.512 96.9162 12.672C96.1242 11.832 95.0922 11.412 93.8202 11.412C92.8602 11.412 91.9962 11.628 91.2282 12.06C90.4842 12.468 89.8962 13.032 89.4642 13.752C89.0562 14.448 88.8522 15.228 88.8522 16.092V27H86.6562ZM110.284 27.324C108.604 27.348 107.236 26.964 106.18 26.172C105.148 25.38 104.632 24.228 104.632 22.716C104.632 21.564 105.016 20.556 105.784 19.692C106.576 18.828 107.572 18.156 108.772 17.676C109.996 17.172 111.256 16.92 112.552 16.92C114.328 16.92 115.732 17.34 116.764 18.18V15.228C116.764 13.62 116.428 12.576 115.756 12.096C115.084 11.592 114.004 11.34 112.516 11.34C111.556 11.34 110.488 11.52 109.312 11.88C108.136 12.216 107.14 12.648 106.324 13.176L105.28 11.448C106.216 10.848 107.344 10.344 108.664 9.936C110.008 9.528 111.292 9.324 112.516 9.324C114.7 9.324 116.308 9.744 117.34 10.584C118.372 11.424 118.888 12.972 118.888 15.228V24.768C118.888 25.224 119.008 25.488 119.248 25.56C119.512 25.608 120.076 25.548 120.94 25.38V26.928C120.7 27.024 120.376 27.108 119.968 27.18C119.56 27.276 119.176 27.324 118.816 27.324C118 27.324 117.472 27.156 117.232 26.82C116.992 26.484 116.848 25.848 116.8 24.912C116.056 25.728 115.072 26.328 113.848 26.712C112.624 27.096 111.436 27.3 110.284 27.324ZM110.392 25.344C111.544 25.32 112.612 25.14 113.596 24.804C114.604 24.468 115.396 23.988 115.972 23.364C116.572 22.716 116.848 21.936 116.8 21.024C116.728 20.28 116.32 19.728 115.576 19.368C114.832 18.984 113.872 18.804 112.696 18.828C111.712 18.828 110.764 18.996 109.852 19.332C108.94 19.668 108.196 20.136 107.62 20.736C107.068 21.312 106.792 21.984 106.792 22.752C106.792 23.64 107.128 24.3 107.8 24.732C108.472 25.14 109.336 25.344 110.392 25.344ZM124.941 27V9.756H127.029L127.137 12.744C127.617 11.736 128.373 10.92 129.405 10.296C130.461 9.648 131.625 9.324 132.897 9.324C133.233 9.324 133.569 9.348 133.905 9.396C134.265 9.42 134.565 9.468 134.805 9.54V11.664C134.589 11.616 134.277 11.568 133.869 11.52C133.485 11.472 133.089 11.448 132.681 11.448C131.673 11.448 130.749 11.688 129.909 12.168C129.069 12.624 128.397 13.248 127.893 14.04C127.413 14.808 127.173 15.684 127.173 16.668V27H124.941ZM145.497 27.396C143.961 27.396 142.593 27.024 141.393 26.28C140.193 25.512 139.245 24.456 138.549 23.112C137.853 21.744 137.505 20.16 137.505 18.36C137.505 16.56 137.853 14.988 138.549 13.644C139.245 12.3 140.193 11.256 141.393 10.512C142.593 9.744 143.961 9.36 145.497 9.36C146.793 9.36 147.945 9.672 148.953 10.296C149.961 10.896 150.765 11.724 151.365 12.78V1.008H153.561V27H151.545L151.509 23.832C150.885 24.936 150.057 25.812 149.025 26.46C147.993 27.084 146.817 27.396 145.497 27.396ZM145.569 25.344C146.697 25.344 147.693 25.056 148.557 24.48C149.445 23.904 150.141 23.1 150.645 22.068C151.149 21.012 151.401 19.776 151.401 18.36C151.401 16.944 151.149 15.72 150.645 14.688C150.141 13.656 149.445 12.852 148.557 12.276C147.693 11.7 146.697 11.412 145.569 11.412C144.441 11.412 143.433 11.7 142.545 12.276C141.657 12.852 140.961 13.656 140.457 14.688C139.953 15.72 139.701 16.944 139.701 18.36C139.701 19.776 139.953 21.012 140.457 22.068C140.961 23.1 141.657 23.904 142.545 24.48C143.433 25.056 144.441 25.344 145.569 25.344Z" fill="white"/>
<path d="M1.024 27H0.224V27.8H1.024V27ZM1.024 1.8V0.999998H0.224V1.8H1.024ZM15.64 3.492L15.0862 4.06938L15.0925 4.07526L15.64 3.492ZM13.876 13.716L13.5731 12.9756L11.4792 13.8322L13.6461 14.4823L13.876 13.716ZM17.332 16.164L16.6828 16.6314L16.6881 16.6388L16.6936 16.6461L17.332 16.164ZM16.756 25.272L17.293 25.865L17.293 25.865L16.756 25.272ZM3.22 24.876H2.42V25.676H3.22V24.876ZM14.956 23.688L14.4314 23.0839L14.4235 23.091L14.956 23.688ZM3.22 14.94V14.14H2.42V14.94H3.22ZM3.22 12.816H2.42V13.616H3.22V12.816ZM13.84 11.592L14.4057 12.1577L14.4138 12.1494L13.84 11.592ZM13.84 4.968L14.3693 4.36813L14.3693 4.36813L13.84 4.968ZM3.22 3.888V3.088H2.42V3.888H3.22ZM1.024 27H1.824V1.8H1.024H0.224V27H1.024ZM1.024 1.8V2.6H10.24V1.8V0.999998H1.024V1.8ZM10.24 1.8V2.6C12.5567 2.6 14.118 3.14062 15.0862 4.06934L15.64 3.492L16.1938 2.91465C14.81 1.58737 12.7713 0.999998 10.24 0.999998V1.8ZM15.64 3.492L15.0925 4.07526C16.0689 4.99197 16.604 6.31804 16.604 8.172H17.404H18.204C18.204 5.99396 17.5631 4.20003 16.1875 2.90874L15.64 3.492ZM17.404 8.172H16.604C16.604 9.38276 16.314 10.3728 15.7689 11.1804L16.432 11.628L17.0951 12.0756C17.846 10.9632 18.204 9.64924 18.204 8.172H17.404ZM16.432 11.628L15.7689 11.1804C15.208 12.0115 14.4804 12.6044 13.5731 12.9756L13.876 13.716L14.1789 14.4564C15.3836 13.9636 16.36 13.1645 17.0951 12.0756L16.432 11.628ZM13.876 13.716L13.6461 14.4823C14.9203 14.8645 15.9237 15.5771 16.6828 16.6314L17.332 16.164L17.9812 15.6966C17.0123 14.3509 15.7117 13.4315 14.1059 12.9497L13.876 13.716ZM17.332 16.164L16.6936 16.6461C17.4703 17.6748 17.864 18.8711 17.864 20.268H18.664H19.464C19.464 18.5449 18.9697 17.0052 17.9704 15.6819L17.332 16.164ZM18.664 20.268H17.864C17.864 22.2918 17.2803 23.7178 16.219 24.679L16.756 25.272L17.293 25.865C18.7757 24.5222 19.464 22.6122 19.464 20.268H18.664ZM16.756 25.272L16.219 24.679C15.158 25.6399 13.4131 26.2 10.816 26.2V27V27.8C13.5949 27.8 15.81 27.2081 17.293 25.865L16.756 25.272ZM10.816 27V26.2H1.024V27V27.8H10.816V27ZM3.22 24.876V25.676H10.636V24.876V24.076H3.22V24.876ZM10.636 24.876V25.676C12.7015 25.676 14.3827 25.2713 15.4885 24.285L14.956 23.688L14.4235 23.091C13.7533 23.6887 12.5545 24.076 10.636 24.076V24.876ZM14.956 23.688L15.4805 24.292C16.6207 23.3019 17.124 21.8466 17.124 20.088H16.324H15.524C15.524 21.5454 15.1153 22.4901 14.4315 23.084L14.956 23.688ZM16.324 20.088H17.124C17.124 18.3199 16.5006 16.8424 15.2279 15.7394L14.704 16.344L14.1801 16.9486C15.0674 17.7176 15.524 18.7361 15.524 20.088H16.324ZM14.704 16.344L15.2279 15.7394C13.9756 14.6541 12.3856 14.14 10.528 14.14V14.94V15.74C12.0784 15.74 13.2724 16.1619 14.1801 16.9486L14.704 16.344ZM10.528 14.94V14.14H3.22V14.94V15.74H10.528V14.94ZM3.22 14.94H2.42V24.876H3.22H4.02V14.94H3.22ZM3.22 12.816V13.616H10.348V12.816V12.016H3.22V12.816ZM10.348 12.816V13.616C12.0038 13.616 13.3974 13.166 14.4057 12.1577L13.84 11.592L13.2743 11.0263C12.6506 11.65 11.7162 12.016 10.348 12.016V12.816ZM13.84 11.592L14.4138 12.1494C15.3909 11.1436 15.864 9.86792 15.864 8.388H15.064H14.264C14.264 9.50008 13.9211 10.3604 13.2662 11.0346L13.84 11.592ZM15.064 8.388H15.864C15.864 6.70058 15.4215 5.29652 14.3693 4.36813L13.84 4.968L13.3107 5.56787C13.8905 6.07948 14.264 6.95542 14.264 8.388H15.064ZM13.84 4.968L14.3693 4.36813C13.3391 3.45912 11.8075 3.088 9.952 3.088V3.888V4.688C11.6485 4.688 12.7089 5.03688 13.3107 5.56787L13.84 4.968ZM9.952 3.888V3.088H3.22V3.888V4.688H9.952V3.888ZM3.22 3.888H2.42V12.816H3.22H4.02V3.888H3.22ZM23.3398 27H22.5398V27.8H23.3398V27ZM23.3398 1.008V0.207998H22.5398V1.008H23.3398ZM25.5358 1.008H26.3358V0.207998H25.5358V1.008ZM25.5358 27V27.8H26.3358V27H25.5358ZM23.3398 27H24.1398V1.008H23.3398H22.5398V27H23.3398ZM23.3398 1.008V1.808H25.5358V1.008V0.207998H23.3398V1.008ZM25.5358 1.008H24.7358V27H25.5358H26.3358V1.008H25.5358ZM25.5358 27V26.2H23.3398V27V27.8H25.5358V27ZM35.5064 27.324L35.5178 28.1239L35.523 28.1238L35.5064 27.324ZM31.4024 26.172L30.9153 26.8067L30.9224 26.812L31.4024 26.172ZM31.0064 19.692L30.4166 19.1514L30.4084 19.1605L31.0064 19.692ZM33.9944 17.676L34.2915 18.4188L34.299 18.4157L33.9944 17.676ZM41.9864 18.18L41.4814 18.8004L42.7864 19.8627V18.18H41.9864ZM40.9784 12.096L40.4984 12.736L40.5058 12.7416L40.5134 12.747L40.9784 12.096ZM34.5344 11.88L34.7542 12.6492L34.7614 12.6472L34.7685 12.645L34.5344 11.88ZM31.5464 13.176L30.8616 13.5897L31.2883 14.2959L31.981 13.8477L31.5464 13.176ZM30.5024 11.448L30.0706 10.7745L29.4148 11.1949L29.8176 11.8617L30.5024 11.448ZM33.8864 9.936L33.654 9.17048L33.6501 9.17168L33.8864 9.936ZM42.5624 10.584L43.0674 9.96355L43.0674 9.96355L42.5624 10.584ZM44.4704 25.56L44.2405 26.3263L44.2833 26.3391L44.3273 26.3471L44.4704 25.56ZM46.1624 25.38H46.9624V24.4095L46.0097 24.5947L46.1624 25.38ZM46.1624 26.928L46.4595 27.6708L46.9624 27.4696V26.928H46.1624ZM45.1904 27.18L45.0513 26.3922L45.0291 26.3961L45.0071 26.4013L45.1904 27.18ZM42.4544 26.82L41.8034 27.285L41.8034 27.285L42.4544 26.82ZM42.0224 24.912L42.8213 24.871L42.7231 22.9561L41.4312 24.373L42.0224 24.912ZM39.0704 26.712L39.3098 27.4753L39.3098 27.4753L39.0704 26.712ZM35.6144 25.344V26.144H35.6227L35.631 26.1438L35.6144 25.344ZM38.8184 24.804L38.5654 24.045L38.5599 24.0469L38.8184 24.804ZM41.1944 23.364L40.6074 22.8205L40.6065 22.8214L41.1944 23.364ZM42.0224 21.024L42.8213 20.982L42.8203 20.9644L42.8187 20.9469L42.0224 21.024ZM40.7984 19.368L40.4315 20.0789L40.4406 20.0836L40.4499 20.0881L40.7984 19.368ZM37.9184 18.828V19.628H37.9265L37.9347 19.6278L37.9184 18.828ZM32.8424 20.736L32.2653 20.182L32.2648 20.1825L32.8424 20.736ZM33.0224 24.732L32.5898 25.4049L32.5984 25.4105L32.6072 25.4158L33.0224 24.732ZM35.5064 27.324L35.4949 26.5241C33.943 26.5463 32.7621 26.1918 31.8824 25.532L31.4024 26.172L30.9224 26.812C32.1547 27.7362 33.7097 28.1497 35.5178 28.1239L35.5064 27.324ZM31.4024 26.172L31.8894 25.5374C31.0883 24.9225 30.6544 24.0249 30.6544 22.716H29.8544H29.0544C29.0544 24.4311 29.6524 25.8375 30.9153 26.8066L31.4024 26.172ZM29.8544 22.716H30.6544C30.6544 21.7607 30.966 20.9416 31.6043 20.2235L31.0064 19.692L30.4084 19.1605C29.5108 20.1704 29.0544 21.3673 29.0544 22.716H29.8544ZM31.0064 19.692L31.5961 20.2326C32.2989 19.4658 33.1914 18.8588 34.2915 18.4188L33.9944 17.676L33.6973 16.9332C32.3974 17.4532 31.2978 18.1902 30.4167 19.1514L31.0064 19.692ZM33.9944 17.676L34.299 18.4157C35.4285 17.9507 36.5851 17.72 37.7744 17.72V16.92V16.12C36.3716 16.12 35.0083 16.3933 33.6898 16.9363L33.9944 17.676ZM37.7744 16.92V17.72C39.4282 17.72 40.6335 18.1104 41.4814 18.8004L41.9864 18.18L42.4914 17.5596C41.2752 16.5696 39.6726 16.12 37.7744 16.12V16.92ZM41.9864 18.18H42.7864V15.228H41.9864H41.1864V18.18H41.9864ZM41.9864 15.228H42.7864C42.7864 13.5886 42.4595 12.1708 41.4434 11.445L40.9784 12.096L40.5134 12.747C40.8413 12.9812 41.1864 13.6514 41.1864 15.228H41.9864ZM40.9784 12.096L41.4584 11.456C40.5763 10.7945 39.2812 10.54 37.7384 10.54V11.34V12.14C39.1716 12.14 40.0364 12.3895 40.4984 12.736L40.9784 12.096ZM37.7384 11.34V10.54C36.6804 10.54 35.5319 10.738 34.3002 11.115L34.5344 11.88L34.7685 12.645C35.8888 12.302 36.8764 12.14 37.7384 12.14V11.34ZM34.5344 11.88L34.3146 11.1108C33.0813 11.4632 32.0087 11.924 31.1118 12.5043L31.5464 13.176L31.981 13.8477C32.716 13.372 33.6355 12.9688 34.7542 12.6492L34.5344 11.88ZM31.5464 13.176L32.2311 12.7623L31.1871 11.0343L30.5024 11.448L29.8176 11.8617L30.8616 13.5897L31.5464 13.176ZM30.5024 11.448L30.9341 12.1215C31.7967 11.5685 32.8556 11.0919 34.1226 10.7003L33.8864 9.936L33.6501 9.17168C32.2771 9.59606 31.08 10.1275 30.0706 10.7745L30.5024 11.448ZM33.8864 9.936L34.1188 10.7015C35.3983 10.3131 36.6037 10.124 37.7384 10.124V9.324V8.524C36.425 8.524 35.0624 8.74293 33.654 9.17049L33.8864 9.936ZM37.7384 9.324V10.124C39.8476 10.124 41.2344 10.5346 42.0574 11.2044L42.5624 10.584L43.0674 9.96355C41.8263 8.9534 39.9972 8.524 37.7384 8.524V9.324ZM42.5624 10.584L42.0574 11.2044C42.8055 11.8134 43.3104 13.0504 43.3104 15.228H44.1104H44.9104C44.9104 12.8936 44.3832 11.0346 43.0674 9.96355L42.5624 10.584ZM44.1104 15.228H43.3104V24.768H44.1104H44.9104V15.228H44.1104ZM44.1104 24.768H43.3104C43.3104 25.0518 43.3455 25.3606 43.4721 25.639C43.611 25.9446 43.8635 26.2132 44.2405 26.3263L44.4704 25.56L44.7003 24.7937C44.756 24.8105 44.8121 24.8417 44.8587 24.8852C44.903 24.9265 44.9228 24.9639 44.9287 24.977C44.9339 24.9884 44.9283 24.9805 44.922 24.9425C44.9158 24.9051 44.9104 24.8483 44.9104 24.768H44.1104ZM44.4704 25.56L44.3273 26.3471C44.5792 26.3929 44.883 26.3777 45.176 26.3465C45.4896 26.3131 45.8714 26.2516 46.3151 26.1653L46.1624 25.38L46.0097 24.5947C45.5894 24.6764 45.2571 24.7289 45.0067 24.7555C44.8818 24.7688 44.7851 24.7748 44.713 24.7758C44.6367 24.7769 44.6089 24.7721 44.6135 24.7729L44.4704 25.56ZM46.1624 25.38H45.3624V26.928H46.1624H46.9624V25.38H46.1624ZM46.1624 26.928L45.8653 26.1852C45.6973 26.2524 45.4334 26.3247 45.0513 26.3922L45.1904 27.18L45.3294 27.9678C45.7633 27.8913 46.1474 27.7956 46.4595 27.6708L46.1624 26.928ZM45.1904 27.18L45.0071 26.4013C44.6496 26.4854 44.3276 26.524 44.0384 26.524V27.324V28.124C44.4692 28.124 44.9151 28.0666 45.3736 27.9587L45.1904 27.18ZM44.0384 27.324V26.524C43.6776 26.524 43.4309 26.4859 43.2729 26.4357C43.1178 26.3863 43.0955 26.3412 43.1054 26.355L42.4544 26.82L41.8034 27.285C42.2907 27.9672 43.1962 28.124 44.0384 28.124V27.324ZM42.4544 26.82L43.1054 26.355C43.0726 26.3091 43.0072 26.1819 42.9466 25.9143C42.888 25.6556 42.8439 25.3113 42.8213 24.871L42.0224 24.912L41.2234 24.953C41.2488 25.4487 41.3007 25.8904 41.3861 26.2677C41.4695 26.6361 41.5962 26.9949 41.8034 27.285L42.4544 26.82ZM42.0224 24.912L41.4312 24.373C40.797 25.0686 39.942 25.6001 38.8309 25.9487L39.0704 26.712L39.3098 27.4753C40.6468 27.0559 41.7597 26.3874 42.6135 25.451L42.0224 24.912ZM39.0704 26.712L38.8309 25.9487C37.671 26.3126 36.5581 26.5019 35.4897 26.5242L35.5064 27.324L35.523 28.1238C36.7587 28.0981 38.0217 27.8794 39.3098 27.4753L39.0704 26.712ZM35.6144 25.344L35.631 26.1438C36.8566 26.1183 38.007 25.9264 39.0769 25.5611L38.8184 24.804L38.5599 24.0469C37.6617 24.3536 36.6762 24.5217 35.5977 24.5442L35.6144 25.344ZM38.8184 24.804L39.0714 25.5629C40.1758 25.1948 41.0944 24.6518 41.7822 23.9066L41.1944 23.364L40.6065 22.8214C40.1424 23.3242 39.477 23.7412 38.5654 24.0451L38.8184 24.804ZM41.1944 23.364L41.7814 23.9075C42.5337 23.095 42.8802 22.1015 42.8213 20.982L42.0224 21.024L41.2235 21.066C41.2606 21.7705 41.055 22.337 40.6074 22.8205L41.1944 23.364ZM42.0224 21.024L42.8187 20.9469C42.7165 19.8917 42.1102 19.114 41.1468 18.6479L40.7984 19.368L40.4499 20.0881C40.9745 20.342 41.1842 20.6683 41.2261 21.1011L42.0224 21.024ZM40.7984 19.368L41.1653 18.6571C40.2647 18.1923 39.1603 18.0025 37.9021 18.0282L37.9184 18.828L37.9347 19.6278C39.0284 19.6055 39.844 19.7757 40.4315 20.0789L40.7984 19.368ZM37.9184 18.828V18.028C36.8412 18.028 35.7995 18.2123 34.7978 18.5813L35.0744 19.332L35.3509 20.0827C36.1733 19.7797 37.0276 19.628 37.9184 19.628V18.828ZM35.0744 19.332L34.7978 18.5813C33.7911 18.9522 32.9383 19.4809 32.2653 20.182L32.8424 20.736L33.4195 21.29C33.8985 20.7911 34.5336 20.3838 35.3509 20.0827L35.0744 19.332ZM32.8424 20.736L32.2648 20.1825C31.5762 20.901 31.2144 21.769 31.2144 22.752H32.0144H32.8144C32.8144 22.199 33.0046 21.723 33.42 21.2895L32.8424 20.736ZM32.0144 22.752H31.2144C31.2144 23.8762 31.6601 24.8073 32.5898 25.4049L33.0224 24.732L33.455 24.0591C33.0407 23.7927 32.8144 23.4038 32.8144 22.752H32.0144ZM33.0224 24.732L32.6072 25.4158C33.4403 25.9216 34.4606 26.144 35.6144 26.144V25.344V24.544C34.6561 24.544 33.9485 24.3584 33.4376 24.0482L33.0224 24.732ZM50.164 27H49.364V27.8H50.164V27ZM50.164 9.756V8.956H49.364V9.756H50.164ZM52.216 9.756L53.0157 9.73248L52.9928 8.956H52.216V9.756ZM52.288 12.204L51.4883 12.2275L51.5612 14.7061L52.9506 12.6522L52.288 12.204ZM54.484 10.152L54.0776 9.46286L54.0698 9.4676L54.484 10.152ZM62.116 11.088L62.6933 10.5342L62.6933 10.5342L62.116 11.088ZM63.808 27V27.8H64.608V27H63.808ZM61.648 27H60.848V27.8H61.648V27ZM60.424 12.672L59.8419 13.2209L59.8502 13.2294L60.424 12.672ZM54.736 12.06L55.1207 12.7615L55.1282 12.7573L54.736 12.06ZM52.972 13.752L52.286 13.3404L52.2818 13.3474L52.972 13.752ZM52.36 27V27.8H53.16V27H52.36ZM50.164 27H50.964V9.756H50.164H49.364V27H50.164ZM50.164 9.756V10.556H52.216V9.756V8.956H50.164V9.756ZM52.216 9.756L51.4163 9.77952L51.4883 12.2275L52.288 12.204L53.0877 12.1805L53.0157 9.73248L52.216 9.756ZM52.288 12.204L52.9506 12.6522C53.4327 11.9396 54.0769 11.3335 54.8982 10.8364L54.484 10.152L54.0698 9.4676C53.0671 10.0745 52.2473 10.8363 51.6254 11.7558L52.288 12.204ZM54.484 10.152L54.8904 10.8411C55.6932 10.3676 56.6068 10.124 57.652 10.124V9.324V8.524C56.3452 8.524 55.1468 8.83236 54.0776 9.46291L54.484 10.152ZM57.652 9.324V10.124C59.3141 10.124 60.5824 10.6448 61.5387 11.6418L62.116 11.088L62.6933 10.5342C61.3936 9.17922 59.6859 8.524 57.652 8.524V9.324ZM62.116 11.088L61.5387 11.6418C62.4807 12.6239 63.008 14.0784 63.008 16.128H63.808H64.608C64.608 13.8096 64.0073 11.9041 62.6933 10.5342L62.116 11.088ZM63.808 16.128H63.008V27H63.808H64.608V16.128H63.808ZM63.808 27V26.2H61.648V27V27.8H63.808V27ZM61.648 27H62.448V16.452H61.648H60.848V27H61.648ZM61.648 16.452H62.448C62.448 14.6544 62.0116 13.1582 60.9978 12.1146L60.424 12.672L59.8502 13.2294C60.4684 13.8658 60.848 14.8896 60.848 16.452H61.648ZM60.424 12.672L61.0061 12.1232C60.0467 11.1056 58.7955 10.612 57.328 10.612V11.412V12.212C58.4045 12.212 59.2173 12.5584 59.8419 13.2208L60.424 12.672ZM57.328 11.412V10.612C56.2432 10.612 55.2421 10.8574 54.3438 11.3627L54.736 12.06L55.1282 12.7573C55.7659 12.3985 56.4928 12.212 57.328 12.212V11.412ZM54.736 12.06L54.3513 11.3585C53.4844 11.834 52.7918 12.4974 52.286 13.3404L52.972 13.752L53.658 14.1636C54.0162 13.5666 54.4996 13.102 55.1207 12.7614L54.736 12.06ZM52.972 13.752L52.2818 13.3474C51.7968 14.1748 51.56 15.0962 51.56 16.092H52.36H53.16C53.16 15.3598 53.3312 14.7212 53.6622 14.1566L52.972 13.752ZM52.36 16.092H51.56V27H52.36H53.16V16.092H52.36ZM52.36 27V26.2H50.164V27V27.8H52.36V27ZM72.0995 26.28L71.6682 26.9539L71.678 26.9599L72.0995 26.28ZM69.2555 23.076L69.9686 22.7132L69.9686 22.7132L69.2555 23.076ZM69.2555 13.68L69.9659 14.0479L69.9686 14.0428L69.2555 13.68ZM72.0995 10.512L72.5211 11.192L72.5308 11.1858L72.0995 10.512ZM79.5875 10.116L79.2365 10.8349L79.2464 10.8397L79.2565 10.8443L79.5875 10.116ZM82.2875 12.276L82.7675 12.916L83.4177 12.4284L82.9199 11.7859L82.2875 12.276ZM80.5595 13.572L79.9195 14.052L80.3995 14.692L81.0395 14.212L80.5595 13.572ZM72.0275 13.32L71.4234 12.7956L71.4226 12.7965L72.0275 13.32ZM72.0275 23.436L71.4177 23.9538L71.4234 23.9604L72.0275 23.436ZM80.5595 23.184L81.0395 22.544L80.3995 22.064L79.9195 22.704L80.5595 23.184ZM82.2875 24.48L82.9152 24.976L83.4239 24.3322L82.7675 23.84L82.2875 24.48ZM76.2035 27.396V26.596C74.8029 26.596 73.5834 26.2587 72.5211 25.6001L72.0995 26.28L71.678 26.9599C73.0156 27.7893 74.5322 28.196 76.2035 28.196V27.396ZM72.0995 26.28L72.5308 25.6062C71.46 24.9209 70.6051 23.9645 69.9686 22.7132L69.2555 23.076L68.5425 23.4388C69.2979 24.9235 70.3391 26.1031 71.6683 26.9538L72.0995 26.28ZM69.2555 23.076L69.9686 22.7132C69.3381 21.4741 69.0115 20.0298 69.0115 18.36H68.2115H67.4115C67.4115 20.2422 67.781 21.9419 68.5425 23.4388L69.2555 23.076ZM68.2115 18.36H69.0115C69.0115 16.6898 69.3382 15.26 69.9659 14.0479L69.2555 13.68L68.5451 13.3121C67.7808 14.788 67.4115 16.4782 67.4115 18.36H68.2115ZM69.2555 13.68L69.9686 14.0428C70.6042 12.7934 71.4562 11.8522 72.5211 11.1919L72.0995 10.512L71.678 9.83208C70.3429 10.6598 69.2989 11.8306 68.5425 13.3172L69.2555 13.68ZM72.0995 10.512L72.5308 11.1858C73.5919 10.5067 74.8079 10.16 76.2035 10.16V9.36V8.56C74.5271 8.56 73.0071 8.98132 71.6683 9.83818L72.0995 10.512ZM76.2035 9.36V10.16C77.314 10.16 78.3209 10.3877 79.2365 10.8349L79.5875 10.116L79.9386 9.39715C78.7901 8.83627 77.541 8.56 76.2035 8.56V9.36ZM79.5875 10.116L79.2565 10.8443C80.1886 11.268 80.9869 11.9038 81.6552 12.7661L82.2875 12.276L82.9199 11.7859C82.1001 10.7282 81.0985 9.92403 79.9186 9.38771L79.5875 10.116ZM82.2875 12.276L81.8075 11.636L80.0795 12.932L80.5595 13.572L81.0395 14.212L82.7675 12.916L82.2875 12.276ZM80.5595 13.572L81.1995 13.092C79.9661 11.4474 78.2754 10.612 76.2035 10.612V11.412V12.212C77.7797 12.212 78.993 12.8166 79.9195 14.052L80.5595 13.572ZM76.2035 11.412V10.612C74.291 10.612 72.6789 11.3491 71.4234 12.7956L72.0275 13.32L72.6317 13.8444C73.5842 12.7469 74.756 12.212 76.2035 12.212V11.412ZM72.0275 13.32L71.4226 12.7965C70.1848 14.2268 69.6075 16.1109 69.6075 18.36H70.4075H71.2075C71.2075 16.3851 71.7102 14.9092 72.6325 13.8435L72.0275 13.32ZM70.4075 18.36H69.6075C69.6075 20.6099 70.1851 22.5021 71.4177 23.9538L72.0275 23.436L72.6374 22.9182C71.7099 21.8259 71.2075 20.3341 71.2075 18.36H70.4075ZM72.0275 23.436L71.4234 23.9604C72.6789 25.4069 74.291 26.144 76.2035 26.144V25.344V24.544C74.756 24.544 73.5842 24.0091 72.6317 22.9116L72.0275 23.436ZM76.2035 25.344V26.144C78.2754 26.144 79.9661 25.3086 81.1995 23.664L80.5595 23.184L79.9195 22.704C78.993 23.9394 77.7797 24.544 76.2035 24.544V25.344ZM80.5595 23.184L80.0795 23.824L81.8075 25.12L82.2875 24.48L82.7675 23.84L81.0395 22.544L80.5595 23.184ZM82.2875 24.48L81.6598 23.984C80.2786 25.7322 78.4837 26.596 76.2035 26.596V27.396V28.196C78.9634 28.196 81.2245 27.1158 82.9152 24.976L82.2875 24.48ZM86.6562 27H85.8562V27.8H86.6562V27ZM86.6562 1.008V0.207998H85.8562V1.008H86.6562ZM88.8522 1.008H89.6522V0.207998H88.8522V1.008ZM88.8522 12.204H88.0522V15.0216L89.5328 12.6244L88.8522 12.204ZM90.9762 10.152L90.5698 9.46286L90.5619 9.4676L90.9762 10.152ZM98.6082 11.088L99.1855 10.5342L99.1855 10.5342L98.6082 11.088ZM100.3 27V27.8H101.1V27H100.3ZM98.1402 27H97.3402V27.8H98.1402V27ZM96.9162 12.672L96.3341 13.2209L96.3424 13.2294L96.9162 12.672ZM91.2282 12.06L91.6129 12.7615L91.6204 12.7573L91.2282 12.06ZM89.4642 13.752L88.7782 13.3404L88.774 13.3474L89.4642 13.752ZM88.8522 27V27.8H89.6522V27H88.8522ZM86.6562 27H87.4562V1.008H86.6562H85.8562V27H86.6562ZM86.6562 1.008V1.808H88.8522V1.008V0.207998H86.6562V1.008ZM88.8522 1.008H88.0522V12.204H88.8522H89.6522V1.008H88.8522ZM88.8522 12.204L89.5328 12.6244C89.9631 11.9278 90.5746 11.3302 91.3904 10.8364L90.9762 10.152L90.5619 9.4676C89.5537 10.0778 88.7493 10.8482 88.1715 11.7836L88.8522 12.204ZM90.9762 10.152L91.3826 10.8411C92.1854 10.3676 93.099 10.124 94.1442 10.124V9.324V8.524C92.8374 8.524 91.639 8.83236 90.5698 9.46291L90.9762 10.152ZM94.1442 9.324V10.124C95.8063 10.124 97.0745 10.6448 98.0308 11.6418L98.6082 11.088L99.1855 10.5342C97.8858 9.17922 96.1781 8.524 94.1442 8.524V9.324ZM98.6082 11.088L98.0308 11.6418C98.9729 12.6239 99.5002 14.0784 99.5002 16.128H100.3H101.1C101.1 13.8096 100.499 11.9041 99.1855 10.5342L98.6082 11.088ZM100.3 16.128H99.5002V27H100.3H101.1V16.128H100.3ZM100.3 27V26.2H98.1402V27V27.8H100.3V27ZM98.1402 27H98.9402V16.452H98.1402H97.3402V27H98.1402ZM98.1402 16.452H98.9402C98.9402 14.6544 98.5038 13.1582 97.49 12.1146L96.9162 12.672L96.3424 13.2294C96.9605 13.8658 97.3402 14.8896 97.3402 16.452H98.1402ZM96.9162 12.672L97.4983 12.1232C96.5389 11.1056 95.2877 10.612 93.8202 10.612V11.412V12.212C94.8967 12.212 95.7095 12.5584 96.3341 13.2208L96.9162 12.672ZM93.8202 11.412V10.612C92.7354 10.612 91.7343 10.8574 90.836 11.3627L91.2282 12.06L91.6204 12.7573C92.2581 12.3985 92.9849 12.212 93.8202 12.212V11.412ZM91.2282 12.06L90.8435 11.3585C89.9765 11.834 89.284 12.4974 88.7782 13.3404L89.4642 13.752L90.1502 14.1636C90.5084 13.5666 90.9918 13.102 91.6129 12.7614L91.2282 12.06ZM89.4642 13.752L88.774 13.3474C88.289 14.1748 88.0522 15.0962 88.0522 16.092H88.8522H89.6522C89.6522 15.3598 89.8234 14.7212 90.1543 14.1566L89.4642 13.752ZM88.8522 16.092H88.0522V27H88.8522H89.6522V16.092H88.8522ZM88.8522 27V26.2H86.6562V27V27.8H88.8522V27ZM110.284 27.324L110.295 28.1239L110.3 28.1238L110.284 27.324ZM106.18 26.172L105.693 26.8067L105.7 26.812L106.18 26.172ZM105.784 19.692L105.194 19.1514L105.186 19.1605L105.784 19.692ZM108.772 17.676L109.069 18.4188L109.076 18.4157L108.772 17.676ZM116.764 18.18L116.259 18.8004L117.564 19.8627V18.18H116.764ZM115.756 12.096L115.276 12.736L115.283 12.7416L115.291 12.747L115.756 12.096ZM109.312 11.88L109.531 12.6492L109.539 12.6472L109.546 12.645L109.312 11.88ZM106.324 13.176L105.639 13.5897L106.066 14.2959L106.758 13.8477L106.324 13.176ZM105.28 11.448L104.848 10.7745L104.192 11.1949L104.595 11.8617L105.28 11.448ZM108.664 9.936L108.431 9.17048L108.427 9.17168L108.664 9.936ZM117.34 10.584L117.845 9.96355L117.845 9.96355L117.34 10.584ZM119.248 25.56L119.018 26.3263L119.061 26.3391L119.105 26.3471L119.248 25.56ZM120.94 25.38H121.74V24.4095L120.787 24.5947L120.94 25.38ZM120.94 26.928L121.237 27.6708L121.74 27.4696V26.928H120.94ZM119.968 27.18L119.829 26.3922L119.806 26.3961L119.784 26.4013L119.968 27.18ZM117.232 26.82L116.581 27.285L116.581 27.285L117.232 26.82ZM116.8 24.912L117.599 24.871L117.5 22.9561L116.209 24.373L116.8 24.912ZM113.848 26.712L114.087 27.4753L114.087 27.4753L113.848 26.712ZM110.392 25.344V26.144H110.4L110.408 26.1438L110.392 25.344ZM113.596 24.804L113.343 24.045L113.337 24.0469L113.596 24.804ZM115.972 23.364L115.385 22.8205L115.384 22.8214L115.972 23.364ZM116.8 21.024L117.599 20.982L117.598 20.9644L117.596 20.9469L116.8 21.024ZM115.576 19.368L115.209 20.0789L115.218 20.0836L115.227 20.0881L115.576 19.368ZM112.696 18.828V19.628H112.704L112.712 19.6278L112.696 18.828ZM107.62 20.736L107.043 20.182L107.042 20.1825L107.62 20.736ZM107.8 24.732L107.367 25.4049L107.376 25.4105L107.385 25.4158L107.8 24.732ZM110.284 27.324L110.272 26.5241C108.72 26.5463 107.539 26.1918 106.66 25.532L106.18 26.172L105.7 26.812C106.932 27.7362 108.487 28.1497 110.295 28.1239L110.284 27.324ZM106.18 26.172L106.667 25.5374C105.866 24.9225 105.432 24.0249 105.432 22.716H104.632H103.832C103.832 24.4311 104.43 25.8375 105.693 26.8066L106.18 26.172ZM104.632 22.716H105.432C105.432 21.7607 105.743 20.9416 106.382 20.2235L105.784 19.692L105.186 19.1605C104.288 20.1704 103.832 21.3673 103.832 22.716H104.632ZM105.784 19.692L106.373 20.2326C107.076 19.4658 107.969 18.8588 109.069 18.4188L108.772 17.676L108.475 16.9332C107.175 17.4532 106.075 18.1902 105.194 19.1514L105.784 19.692ZM108.772 17.676L109.076 18.4157C110.206 17.9507 111.362 17.72 112.552 17.72V16.92V16.12C111.149 16.12 109.786 16.3933 108.467 16.9363L108.772 17.676ZM112.552 16.92V17.72C114.205 17.72 115.411 18.1104 116.259 18.8004L116.764 18.18L117.269 17.5596C116.053 16.5696 114.45 16.12 112.552 16.12V16.92ZM116.764 18.18H117.564V15.228H116.764H115.964V18.18H116.764ZM116.764 15.228H117.564C117.564 13.5886 117.237 12.1708 116.221 11.445L115.756 12.096L115.291 12.747C115.619 12.9812 115.964 13.6514 115.964 15.228H116.764ZM115.756 12.096L116.236 11.456C115.354 10.7945 114.059 10.54 112.516 10.54V11.34V12.14C113.949 12.14 114.814 12.3895 115.276 12.736L115.756 12.096ZM112.516 11.34V10.54C111.458 10.54 110.309 10.738 109.078 11.115L109.312 11.88L109.546 12.645C110.666 12.302 111.654 12.14 112.516 12.14V11.34ZM109.312 11.88L109.092 11.1108C107.859 11.4632 106.786 11.924 105.889 12.5043L106.324 13.176L106.758 13.8477C107.493 13.372 108.413 12.9688 109.531 12.6492L109.312 11.88ZM106.324 13.176L107.008 12.7623L105.964 11.0343L105.28 11.448L104.595 11.8617L105.639 13.5897L106.324 13.176ZM105.28 11.448L105.711 12.1215C106.574 11.5685 107.633 11.0919 108.9 10.7003L108.664 9.936L108.427 9.17168C107.054 9.59606 105.857 10.1275 104.848 10.7745L105.28 11.448ZM108.664 9.936L108.896 10.7015C110.176 10.3131 111.381 10.124 112.516 10.124V9.324V8.524C111.202 8.524 109.84 8.74293 108.431 9.17049L108.664 9.936ZM112.516 9.324V10.124C114.625 10.124 116.012 10.5346 116.835 11.2044L117.34 10.584L117.845 9.96355C116.604 8.9534 114.775 8.524 112.516 8.524V9.324ZM117.34 10.584L116.835 11.2044C117.583 11.8134 118.088 13.0504 118.088 15.228H118.888H119.688C119.688 12.8936 119.161 11.0346 117.845 9.96355L117.34 10.584ZM118.888 15.228H118.088V24.768H118.888H119.688V15.228H118.888ZM118.888 24.768H118.088C118.088 25.0518 118.123 25.3606 118.249 25.639C118.388 25.9446 118.641 26.2132 119.018 26.3263L119.248 25.56L119.478 24.7937C119.533 24.8105 119.589 24.8417 119.636 24.8852C119.68 24.9265 119.7 24.9639 119.706 24.977C119.711 24.9884 119.706 24.9805 119.699 24.9425C119.693 24.9051 119.688 24.8483 119.688 24.768H118.888ZM119.248 25.56L119.105 26.3471C119.356 26.3929 119.66 26.3777 119.953 26.3465C120.267 26.3131 120.649 26.2516 121.092 26.1653L120.94 25.38L120.787 24.5947C120.367 24.6764 120.034 24.7289 119.784 24.7555C119.659 24.7688 119.562 24.7748 119.49 24.7758C119.414 24.7769 119.386 24.7721 119.391 24.7729L119.248 25.56ZM120.94 25.38H120.14V26.928H120.94H121.74V25.38H120.94ZM120.94 26.928L120.643 26.1852C120.475 26.2524 120.211 26.3247 119.829 26.3922L119.968 27.18L120.107 27.9678C120.541 27.8913 120.925 27.7956 121.237 27.6708L120.94 26.928ZM119.968 27.18L119.784 26.4013C119.427 26.4854 119.105 26.524 118.816 26.524V27.324V28.124C119.247 28.124 119.692 28.0666 120.151 27.9587L119.968 27.18ZM118.816 27.324V26.524C118.455 26.524 118.208 26.4859 118.05 26.4357C117.895 26.3863 117.873 26.3412 117.883 26.355L117.232 26.82L116.581 27.285C117.068 27.9672 117.974 28.124 118.816 28.124V27.324ZM117.232 26.82L117.883 26.355C117.85 26.3091 117.785 26.1819 117.724 25.9143C117.665 25.6556 117.621 25.3113 117.599 24.871L116.8 24.912L116.001 24.953C116.026 25.4487 116.078 25.8904 116.163 26.2677C116.247 26.6361 116.374 26.9949 116.581 27.285L117.232 26.82ZM116.8 24.912L116.209 24.373C115.574 25.0686 114.719 25.6001 113.608 25.9487L113.848 26.712L114.087 27.4753C115.424 27.0559 116.537 26.3874 117.391 25.451L116.8 24.912ZM113.848 26.712L113.608 25.9487C112.448 26.3126 111.335 26.5019 110.267 26.5242L110.284 27.324L110.3 28.1238C111.536 28.0981 112.799 27.8794 114.087 27.4753L113.848 26.712ZM110.392 25.344L110.408 26.1438C111.634 26.1183 112.784 25.9264 113.854 25.5611L113.596 24.804L113.337 24.0469C112.439 24.3536 111.454 24.5217 110.375 24.5442L110.392 25.344ZM113.596 24.804L113.849 25.5629C114.953 25.1948 115.872 24.6518 116.56 23.9066L115.972 23.364L115.384 22.8214C114.92 23.3242 114.254 23.7412 113.343 24.0451L113.596 24.804ZM115.972 23.364L116.559 23.9075C117.311 23.095 117.658 22.1015 117.599 20.982L116.8 21.024L116.001 21.066C116.038 21.7705 115.832 22.337 115.385 22.8205L115.972 23.364ZM116.8 21.024L117.596 20.9469C117.494 19.8917 116.888 19.114 115.924 18.6479L115.576 19.368L115.227 20.0881C115.752 20.342 115.962 20.6683 116.003 21.1011L116.8 21.024ZM115.576 19.368L115.943 18.6571C115.042 18.1923 113.938 18.0025 112.679 18.0282L112.696 18.828L112.712 19.6278C113.806 19.6055 114.621 19.7757 115.209 20.0789L115.576 19.368ZM112.696 18.828V18.028C111.619 18.028 110.577 18.2123 109.575 18.5813L109.852 19.332L110.128 20.0827C110.951 19.7797 111.805 19.628 112.696 19.628V18.828ZM109.852 19.332L109.575 18.5813C108.568 18.9522 107.716 19.4809 107.043 20.182L107.62 20.736L108.197 21.29C108.676 20.7911 109.311 20.3838 110.128 20.0827L109.852 19.332ZM107.62 20.736L107.042 20.1825C106.354 20.901 105.992 21.769 105.992 22.752H106.792H107.592C107.592 22.199 107.782 21.723 108.197 21.2895L107.62 20.736ZM106.792 22.752H105.992C105.992 23.8762 106.437 24.8073 107.367 25.4049L107.8 24.732L108.232 24.0591C107.818 23.7927 107.592 23.4038 107.592 22.752H106.792ZM107.8 24.732L107.385 25.4158C108.218 25.9216 109.238 26.144 110.392 26.144V25.344V24.544C109.433 24.544 108.726 24.3584 108.215 24.0482L107.8 24.732ZM124.941 27H124.141V27.8H124.941V27ZM124.941 9.756V8.956H124.141V9.756H124.941ZM127.029 9.756L127.829 9.7271L127.801 8.956H127.029V9.756ZM127.137 12.744L126.338 12.7729L127.86 13.0879L127.137 12.744ZM129.405 10.296L129.819 10.9806L129.824 10.9779L129.405 10.296ZM133.905 9.396L133.792 10.188L133.822 10.1922L133.852 10.1942L133.905 9.396ZM134.805 9.54H135.605V8.94478L135.035 8.77374L134.805 9.54ZM134.805 11.664L134.632 12.4449L135.605 12.6613V11.664H134.805ZM133.869 11.52L133.77 12.3138L133.776 12.3145L133.869 11.52ZM129.909 12.168L130.291 12.8711L130.299 12.8669L130.306 12.8626L129.909 12.168ZM127.893 14.04L127.218 13.6105L127.215 13.616L127.893 14.04ZM127.173 27V27.8H127.973V27H127.173ZM124.941 27H125.741V9.756H124.941H124.141V27H124.941ZM124.941 9.756V10.556H127.029V9.756V8.956H124.941V9.756ZM127.029 9.756L126.23 9.7849L126.338 12.7729L127.137 12.744L127.937 12.7151L127.829 9.7271L127.029 9.756ZM127.137 12.744L127.86 13.0879C128.267 12.2326 128.91 11.5304 129.819 10.9806L129.405 10.296L128.991 9.61141C127.837 10.3096 126.968 11.2394 126.415 12.4001L127.137 12.744ZM129.405 10.296L129.824 10.9779C130.75 10.4092 131.769 10.124 132.897 10.124V9.324V8.524C131.482 8.524 130.172 8.88675 128.987 9.61414L129.405 10.296ZM132.897 9.324V10.124C133.195 10.124 133.493 10.1453 133.792 10.188L133.905 9.396L134.018 8.60404C133.645 8.55074 133.272 8.524 132.897 8.524V9.324ZM133.905 9.396L133.852 10.1942C134.176 10.2158 134.412 10.2572 134.575 10.3063L134.805 9.54L135.035 8.77374C134.719 8.67877 134.355 8.62418 133.959 8.59777L133.905 9.396ZM134.805 9.54H134.005V11.664H134.805H135.605V9.54H134.805ZM134.805 11.664L134.979 10.883C134.723 10.8262 134.379 10.7745 133.963 10.7255L133.869 11.52L133.776 12.3145C134.176 12.3615 134.456 12.4058 134.632 12.4449L134.805 11.664ZM133.869 11.52L133.969 10.7262C133.55 10.6738 133.121 10.648 132.681 10.648V11.448V12.248C133.058 12.248 133.421 12.2702 133.77 12.3138L133.869 11.52ZM132.681 11.448V10.648C131.54 10.648 130.478 10.9214 129.512 11.4734L129.909 12.168L130.306 12.8626C131.02 12.4546 131.806 12.248 132.681 12.248V11.448ZM129.909 12.168L129.528 11.4649C128.571 11.9845 127.797 12.7017 127.218 13.6105L127.893 14.04L128.568 14.4695C128.998 13.7943 129.568 13.2635 130.291 12.8711L129.909 12.168ZM127.893 14.04L127.215 13.616C126.649 14.5221 126.373 15.5475 126.373 16.668H127.173H127.973C127.973 15.8205 128.178 15.0939 128.572 14.464L127.893 14.04ZM127.173 16.668H126.373V27H127.173H127.973V16.668H127.173ZM127.173 27V26.2H124.941V27V27.8H127.173V27ZM141.393 26.28L140.961 26.9539L140.971 26.9599L141.393 26.28ZM138.549 23.112L137.835 23.4748L137.838 23.4799L138.549 23.112ZM138.549 13.644L139.259 14.0119L139.259 14.0119L138.549 13.644ZM141.393 10.512L141.814 11.192L141.824 11.1858L141.393 10.512ZM148.953 10.296L148.531 10.9763L148.543 10.9834L148.953 10.296ZM151.365 12.78L150.669 13.1752L152.165 15.8074V12.78H151.365ZM151.365 1.008V0.207998H150.565V1.008H151.365ZM153.561 1.008H154.361V0.207998H153.561V1.008ZM153.561 27V27.8H154.361V27H153.561ZM151.545 27L150.745 27.0091L150.754 27.8H151.545V27ZM151.509 23.832L152.308 23.8229L152.275 20.8506L150.812 23.4384L151.509 23.832ZM149.025 26.46L149.438 27.1447L149.45 27.1375L149.025 26.46ZM148.557 24.48L148.121 23.8088L148.113 23.8144L148.557 24.48ZM150.645 22.068L151.363 22.4191L151.366 22.4126L150.645 22.068ZM150.645 14.688L149.926 15.0391L149.926 15.0391L150.645 14.688ZM148.557 12.276L148.113 12.9417L148.121 12.9472L148.557 12.276ZM142.545 12.276L142.98 12.9472L142.98 12.9472L142.545 12.276ZM140.457 14.688L141.175 15.0391L141.175 15.0391L140.457 14.688ZM140.457 22.068L139.734 22.4126L139.738 22.4191L140.457 22.068ZM142.545 24.48L142.109 25.1512L142.109 25.1512L142.545 24.48ZM145.497 27.396V26.596C144.096 26.596 142.876 26.2587 141.814 25.6001L141.393 26.28L140.971 26.9599C142.309 27.7893 143.825 28.196 145.497 28.196V27.396ZM141.393 26.28L141.824 25.6062C140.749 24.9186 139.894 23.9715 139.259 22.7441L138.549 23.112L137.838 23.4799C138.595 24.9405 139.636 26.1054 140.961 26.9538L141.393 26.28ZM138.549 23.112L139.262 22.7492C138.632 21.5115 138.305 20.0556 138.305 18.36H137.505H136.705C136.705 20.2644 137.073 21.9765 137.835 23.4748L138.549 23.112ZM137.505 18.36H138.305C138.305 16.6639 138.632 15.2226 139.259 14.0119L138.549 13.644L137.838 13.2761C137.073 14.7534 136.705 16.4561 136.705 18.36H137.505ZM138.549 13.644L139.259 14.0119C139.893 12.7865 140.746 11.8544 141.814 11.1919L141.393 10.512L140.971 9.83208C139.639 10.6576 138.596 11.8135 137.838 13.2761L138.549 13.644ZM141.393 10.512L141.824 11.1858C142.885 10.5067 144.101 10.16 145.497 10.16V9.36V8.56C143.82 8.56 142.3 8.98132 140.961 9.83818L141.393 10.512ZM145.497 9.36V10.16C146.658 10.16 147.662 10.4377 148.531 10.9762L148.953 10.296L149.374 9.61579C148.227 8.90625 146.927 8.56 145.497 8.56V9.36ZM148.953 10.296L148.543 10.9834C149.428 11.5099 150.135 12.2353 150.669 13.1752L151.365 12.78L152.06 12.3848C151.394 11.2127 150.493 10.2821 149.362 9.60857L148.953 10.296ZM151.365 12.78H152.165V1.008H151.365H150.565V12.78H151.365ZM151.365 1.008V1.808H153.561V1.008V0.207998H151.365V1.008ZM153.561 1.008H152.761V27H153.561H154.361V1.008H153.561ZM153.561 27V26.2H151.545V27V27.8H153.561V27ZM151.545 27L152.344 26.9909L152.308 23.8229L151.509 23.832L150.709 23.8411L150.745 27.0091L151.545 27ZM151.509 23.832L150.812 23.4384C150.251 24.4316 149.514 25.2081 148.599 25.7825L149.025 26.46L149.45 27.1375C150.599 26.4159 151.518 25.4404 152.205 24.2256L151.509 23.832ZM149.025 26.46L148.611 25.7754C147.715 26.3169 146.685 26.596 145.497 26.596V27.396V28.196C146.948 28.196 148.27 27.8511 149.438 27.1446L149.025 26.46ZM145.569 25.344V26.144C146.84 26.144 147.993 25.8168 149 25.1456L148.557 24.48L148.113 23.8144C147.392 24.2952 146.553 24.544 145.569 24.544V25.344ZM148.557 24.48L148.992 25.1512C150.012 24.4895 150.801 23.57 151.363 22.4191L150.645 22.068L149.926 21.7169C149.48 22.63 148.877 23.3185 148.121 23.8088L148.557 24.48ZM150.645 22.068L151.366 22.4126C151.932 21.2287 152.201 19.8706 152.201 18.36H151.401H150.601C150.601 19.6814 150.365 20.7953 149.923 21.7234L150.645 22.068ZM151.401 18.36H152.201C152.201 16.8501 151.932 15.5007 151.363 14.3369L150.645 14.688L149.926 15.0391C150.365 15.9393 150.601 17.0379 150.601 18.36H151.401ZM150.645 14.688L151.363 14.3369C150.801 13.186 150.012 12.2665 148.992 11.6048L148.557 12.276L148.121 12.9472C148.877 13.4375 149.48 14.126 149.926 15.0391L150.645 14.688ZM148.557 12.276L149 11.6104C147.993 10.9392 146.84 10.612 145.569 10.612V11.412V12.212C146.553 12.212 147.392 12.4608 148.113 12.9416L148.557 12.276ZM145.569 11.412V10.612C144.297 10.612 143.135 10.9391 142.109 11.6048L142.545 12.276L142.98 12.9472C143.73 12.4609 144.584 12.212 145.569 12.212V11.412ZM142.545 12.276L142.109 11.6048C141.089 12.2665 140.3 13.186 139.738 14.3369L140.457 14.688L141.175 15.0391C141.621 14.126 142.224 13.4375 142.98 12.9472L142.545 12.276ZM140.457 14.688L139.738 14.3369C139.169 15.5007 138.901 16.8501 138.901 18.36H139.701H140.501C140.501 17.0379 140.736 15.9393 141.175 15.0391L140.457 14.688ZM139.701 18.36H138.901C138.901 19.8706 139.169 21.2287 139.735 22.4126L140.457 22.068L141.178 21.7234C140.736 20.7953 140.501 19.6814 140.501 18.36H139.701ZM140.457 22.068L139.738 22.4191C140.3 23.57 141.089 24.4895 142.109 25.1512L142.545 24.48L142.98 23.8088C142.224 23.3185 141.621 22.63 141.175 21.7169L140.457 22.068ZM142.545 24.48L142.109 25.1512C143.135 25.8169 144.297 26.144 145.569 26.144V25.344V24.544C144.584 24.544 143.73 24.2951 142.98 23.8088L142.545 24.48Z" fill="white" mask="url(#path-1-outside-1_723_46)"/>
</svg>
