<svg width="139" height="26" viewBox="0 0 139 26" fill="none" xmlns="http://www.w3.org/2000/svg">
<mask id="path-1-outside-1_723_46" maskUnits="userSpaceOnUse" x="0" y="0" width="139" height="26" fill="black">
<rect fill="white" width="139" height="26"/>
<path d="M1.688 24V1.6H9.88C12.0347 1.6 13.6347 2.10133 14.68 3.104C15.7253 4.08533 16.248 5.472 16.248 7.264C16.248 8.45867 15.96 9.48267 15.384 10.336C14.808 11.1893 14.0507 11.808 13.112 12.192C14.392 12.576 15.416 13.3013 16.184 14.368C16.9733 15.4133 17.368 16.6293 17.368 18.016C17.368 19.9573 16.8027 21.44 15.672 22.464C14.5413 23.488 12.7813 24 10.392 24H1.688ZM3.64 22.112H10.232C12.0027 22.112 13.2827 21.76 14.072 21.056C14.8827 20.352 15.288 19.2853 15.288 17.856C15.288 16.4693 14.808 15.36 13.848 14.528C12.888 13.696 11.6507 13.28 10.136 13.28H3.64V22.112ZM3.64 11.392H9.976C11.32 11.392 12.3547 11.0293 13.08 10.304C13.8053 9.55733 14.168 8.608 14.168 7.456C14.168 6.06933 13.8053 5.056 13.08 4.416C12.3547 3.776 11.2027 3.456 9.624 3.456H3.64V11.392ZM21.5243 24V0.895998H23.4763V24H21.5243ZM32.339 24.288C30.8457 24.3093 29.6297 23.968 28.691 23.264C27.7737 22.56 27.315 21.536 27.315 20.192C27.315 19.168 27.6563 18.272 28.339 17.504C29.043 16.736 29.9283 16.1387 30.995 15.712C32.083 15.264 33.203 15.04 34.355 15.04C35.9337 15.04 37.1817 15.4133 38.099 16.16V13.536C38.099 12.1067 37.8003 11.1787 37.203 10.752C36.6057 10.304 35.6457 10.08 34.323 10.08C33.4697 10.08 32.5203 10.24 31.475 10.56C30.4297 10.8587 29.5443 11.2427 28.819 11.712L27.891 10.176C28.723 9.64267 29.7257 9.19467 30.899 8.832C32.0937 8.46933 33.235 8.288 34.323 8.288C36.2643 8.288 37.6937 8.66133 38.611 9.408C39.5283 10.1547 39.987 11.5307 39.987 13.536V22.016C39.987 22.4213 40.0937 22.656 40.307 22.72C40.5417 22.7627 41.043 22.7093 41.811 22.56V23.936C41.5977 24.0213 41.3097 24.096 40.947 24.16C40.5843 24.2453 40.243 24.288 39.923 24.288C39.1977 24.288 38.7283 24.1387 38.515 23.84C38.3017 23.5413 38.1737 22.976 38.131 22.144C37.4697 22.8693 36.595 23.4027 35.507 23.744C34.419 24.0853 33.363 24.2667 32.339 24.288ZM32.435 22.528C33.459 22.5067 34.4083 22.3467 35.283 22.048C36.179 21.7493 36.883 21.3227 37.395 20.768C37.9283 20.192 38.1737 19.4987 38.131 18.688C38.067 18.0267 37.7043 17.536 37.043 17.216C36.3817 16.8747 35.5283 16.7147 34.483 16.736C33.6083 16.736 32.7657 16.8853 31.955 17.184C31.1443 17.4827 30.483 17.8987 29.971 18.432C29.4803 18.944 29.235 19.5413 29.235 20.224C29.235 21.0133 29.5337 21.6 30.131 21.984C30.7283 22.3467 31.4963 22.528 32.435 22.528ZM45.368 24V8.672H47.192L47.256 10.848C47.7467 10.1227 48.3973 9.51467 49.208 9.024C50.04 8.53333 50.9787 8.288 52.024 8.288C53.6667 8.288 54.9893 8.81067 55.992 9.856C56.9947 10.9013 57.496 12.3947 57.496 14.336V24H55.576V14.624C55.576 13.1307 55.2133 12.0107 54.488 11.264C53.784 10.5173 52.8667 10.144 51.736 10.144C50.8827 10.144 50.1147 10.336 49.432 10.72C48.7707 11.0827 48.248 11.584 47.864 12.224C47.5013 12.8427 47.32 13.536 47.32 14.304V24H45.368ZM68.5143 24.352C67.1489 24.352 65.9329 24.0213 64.8663 23.36C63.7996 22.6773 62.9569 21.728 62.3383 20.512C61.7196 19.296 61.4103 17.8987 61.4103 16.32C61.4103 14.7413 61.7196 13.3547 62.3383 12.16C62.9569 10.944 63.7996 10.0053 64.8663 9.344C65.9329 8.66133 67.1489 8.32 68.5143 8.32C69.6023 8.32 70.6049 8.544 71.5223 8.992C72.4609 9.41867 73.2609 10.0587 73.9223 10.912L72.3863 12.064C71.4263 10.784 70.1356 10.144 68.5143 10.144C67.0209 10.144 65.7836 10.7093 64.8023 11.84C63.8423 12.9493 63.3623 14.4427 63.3623 16.32C63.3623 18.1973 63.8423 19.7013 64.8023 20.832C65.7836 21.9627 67.0209 22.528 68.5143 22.528C70.1356 22.528 71.4263 21.888 72.3863 20.608L73.9223 21.76C72.5569 23.488 70.7543 24.352 68.5143 24.352ZM77.8055 24V0.895998H79.7575V10.848C80.2055 10.1227 80.8348 9.51467 81.6455 9.024C82.4775 8.53333 83.4162 8.288 84.4615 8.288C86.1042 8.288 87.4268 8.81067 88.4295 9.856C89.4322 10.9013 89.9335 12.3947 89.9335 14.336V24H88.0135V14.624C88.0135 13.1307 87.6508 12.0107 86.9255 11.264C86.2215 10.5173 85.3042 10.144 84.1735 10.144C83.3202 10.144 82.5522 10.336 81.8695 10.72C81.2082 11.0827 80.6855 11.584 80.3015 12.224C79.9388 12.8427 79.7575 13.536 79.7575 14.304V24H77.8055ZM98.8078 24.288C97.3144 24.3093 96.0984 23.968 95.1598 23.264C94.2424 22.56 93.7838 21.536 93.7838 20.192C93.7838 19.168 94.1251 18.272 94.8078 17.504C95.5118 16.736 96.3971 16.1387 97.4638 15.712C98.5518 15.264 99.6718 15.04 100.824 15.04C102.402 15.04 103.65 15.4133 104.568 16.16V13.536C104.568 12.1067 104.269 11.1787 103.672 10.752C103.074 10.304 102.114 10.08 100.792 10.08C99.9384 10.08 98.9891 10.24 97.9438 10.56C96.8984 10.8587 96.0131 11.2427 95.2878 11.712L94.3598 10.176C95.1918 9.64267 96.1944 9.19467 97.3678 8.832C98.5624 8.46933 99.7038 8.288 100.792 8.288C102.733 8.288 104.162 8.66133 105.08 9.408C105.997 10.1547 106.456 11.5307 106.456 13.536V22.016C106.456 22.4213 106.562 22.656 106.776 22.72C107.01 22.7627 107.512 22.7093 108.28 22.56V23.936C108.066 24.0213 107.778 24.096 107.416 24.16C107.053 24.2453 106.712 24.288 106.392 24.288C105.666 24.288 105.197 24.1387 104.984 23.84C104.77 23.5413 104.642 22.976 104.6 22.144C103.938 22.8693 103.064 23.4027 101.976 23.744C100.888 24.0853 99.8318 24.2667 98.8078 24.288ZM98.9038 22.528C99.9278 22.5067 100.877 22.3467 101.752 22.048C102.648 21.7493 103.352 21.3227 103.864 20.768C104.397 20.192 104.642 19.4987 104.6 18.688C104.536 18.0267 104.173 17.536 103.512 17.216C102.85 16.8747 101.997 16.7147 100.952 16.736C100.077 16.736 99.2344 16.8853 98.4238 17.184C97.6131 17.4827 96.9518 17.8987 96.4398 18.432C95.9491 18.944 95.7038 19.5413 95.7038 20.224C95.7038 21.0133 96.0024 21.6 96.5998 21.984C97.1971 22.3467 97.9651 22.528 98.9038 22.528ZM111.837 24V8.672H113.693L113.789 11.328C114.215 10.432 114.887 9.70667 115.805 9.152C116.743 8.576 117.778 8.288 118.909 8.288C119.207 8.288 119.506 8.30933 119.805 8.352C120.125 8.37333 120.391 8.416 120.605 8.48V10.368C120.413 10.3253 120.135 10.2827 119.773 10.24C119.431 10.1973 119.079 10.176 118.717 10.176C117.821 10.176 116.999 10.3893 116.253 10.816C115.506 11.2213 114.909 11.776 114.461 12.48C114.034 13.1627 113.821 13.9413 113.821 14.816V24H111.837ZM130.108 24.352C128.743 24.352 127.527 24.0213 126.46 23.36C125.393 22.6773 124.551 21.7387 123.932 20.544C123.313 19.328 123.004 17.92 123.004 16.32C123.004 14.72 123.313 13.3227 123.932 12.128C124.551 10.9333 125.393 10.0053 126.46 9.344C127.527 8.66133 128.743 8.32 130.108 8.32C131.26 8.32 132.284 8.59733 133.18 9.152C134.076 9.68533 134.791 10.4213 135.324 11.36V0.895998H137.276V24H135.484L135.452 21.184C134.897 22.1653 134.161 22.944 133.244 23.52C132.327 24.0747 131.281 24.352 130.108 24.352ZM130.172 22.528C131.175 22.528 132.06 22.272 132.828 21.76C133.617 21.248 134.236 20.5333 134.684 19.616C135.132 18.6773 135.356 17.5787 135.356 16.32C135.356 15.0613 135.132 13.9733 134.684 13.056C134.236 12.1387 133.617 11.424 132.828 10.912C132.06 10.4 131.175 10.144 130.172 10.144C129.169 10.144 128.273 10.4 127.484 10.912C126.695 11.424 126.076 12.1387 125.628 13.056C125.18 13.9733 124.956 15.0613 124.956 16.32C124.956 17.5787 125.18 18.6773 125.628 19.616C126.076 20.5333 126.695 21.248 127.484 21.76C128.273 22.272 129.169 22.528 130.172 22.528Z"/>
</mask>
<path d="M1.688 24V1.6H9.88C12.0347 1.6 13.6347 2.10133 14.68 3.104C15.7253 4.08533 16.248 5.472 16.248 7.264C16.248 8.45867 15.96 9.48267 15.384 10.336C14.808 11.1893 14.0507 11.808 13.112 12.192C14.392 12.576 15.416 13.3013 16.184 14.368C16.9733 15.4133 17.368 16.6293 17.368 18.016C17.368 19.9573 16.8027 21.44 15.672 22.464C14.5413 23.488 12.7813 24 10.392 24H1.688ZM3.64 22.112H10.232C12.0027 22.112 13.2827 21.76 14.072 21.056C14.8827 20.352 15.288 19.2853 15.288 17.856C15.288 16.4693 14.808 15.36 13.848 14.528C12.888 13.696 11.6507 13.28 10.136 13.28H3.64V22.112ZM3.64 11.392H9.976C11.32 11.392 12.3547 11.0293 13.08 10.304C13.8053 9.55733 14.168 8.608 14.168 7.456C14.168 6.06933 13.8053 5.056 13.08 4.416C12.3547 3.776 11.2027 3.456 9.624 3.456H3.64V11.392ZM21.5243 24V0.895998H23.4763V24H21.5243ZM32.339 24.288C30.8457 24.3093 29.6297 23.968 28.691 23.264C27.7737 22.56 27.315 21.536 27.315 20.192C27.315 19.168 27.6563 18.272 28.339 17.504C29.043 16.736 29.9283 16.1387 30.995 15.712C32.083 15.264 33.203 15.04 34.355 15.04C35.9337 15.04 37.1817 15.4133 38.099 16.16V13.536C38.099 12.1067 37.8003 11.1787 37.203 10.752C36.6057 10.304 35.6457 10.08 34.323 10.08C33.4697 10.08 32.5203 10.24 31.475 10.56C30.4297 10.8587 29.5443 11.2427 28.819 11.712L27.891 10.176C28.723 9.64267 29.7257 9.19467 30.899 8.832C32.0937 8.46933 33.235 8.288 34.323 8.288C36.2643 8.288 37.6937 8.66133 38.611 9.408C39.5283 10.1547 39.987 11.5307 39.987 13.536V22.016C39.987 22.4213 40.0937 22.656 40.307 22.72C40.5417 22.7627 41.043 22.7093 41.811 22.56V23.936C41.5977 24.0213 41.3097 24.096 40.947 24.16C40.5843 24.2453 40.243 24.288 39.923 24.288C39.1977 24.288 38.7283 24.1387 38.515 23.84C38.3017 23.5413 38.1737 22.976 38.131 22.144C37.4697 22.8693 36.595 23.4027 35.507 23.744C34.419 24.0853 33.363 24.2667 32.339 24.288ZM32.435 22.528C33.459 22.5067 34.4083 22.3467 35.283 22.048C36.179 21.7493 36.883 21.3227 37.395 20.768C37.9283 20.192 38.1737 19.4987 38.131 18.688C38.067 18.0267 37.7043 17.536 37.043 17.216C36.3817 16.8747 35.5283 16.7147 34.483 16.736C33.6083 16.736 32.7657 16.8853 31.955 17.184C31.1443 17.4827 30.483 17.8987 29.971 18.432C29.4803 18.944 29.235 19.5413 29.235 20.224C29.235 21.0133 29.5337 21.6 30.131 21.984C30.7283 22.3467 31.4963 22.528 32.435 22.528ZM45.368 24V8.672H47.192L47.256 10.848C47.7467 10.1227 48.3973 9.51467 49.208 9.024C50.04 8.53333 50.9787 8.288 52.024 8.288C53.6667 8.288 54.9893 8.81067 55.992 9.856C56.9947 10.9013 57.496 12.3947 57.496 14.336V24H55.576V14.624C55.576 13.1307 55.2133 12.0107 54.488 11.264C53.784 10.5173 52.8667 10.144 51.736 10.144C50.8827 10.144 50.1147 10.336 49.432 10.72C48.7707 11.0827 48.248 11.584 47.864 12.224C47.5013 12.8427 47.32 13.536 47.32 14.304V24H45.368ZM68.5143 24.352C67.1489 24.352 65.9329 24.0213 64.8663 23.36C63.7996 22.6773 62.9569 21.728 62.3383 20.512C61.7196 19.296 61.4103 17.8987 61.4103 16.32C61.4103 14.7413 61.7196 13.3547 62.3383 12.16C62.9569 10.944 63.7996 10.0053 64.8663 9.344C65.9329 8.66133 67.1489 8.32 68.5143 8.32C69.6023 8.32 70.6049 8.544 71.5223 8.992C72.4609 9.41867 73.2609 10.0587 73.9223 10.912L72.3863 12.064C71.4263 10.784 70.1356 10.144 68.5143 10.144C67.0209 10.144 65.7836 10.7093 64.8023 11.84C63.8423 12.9493 63.3623 14.4427 63.3623 16.32C63.3623 18.1973 63.8423 19.7013 64.8023 20.832C65.7836 21.9627 67.0209 22.528 68.5143 22.528C70.1356 22.528 71.4263 21.888 72.3863 20.608L73.9223 21.76C72.5569 23.488 70.7543 24.352 68.5143 24.352ZM77.8055 24V0.895998H79.7575V10.848C80.2055 10.1227 80.8348 9.51467 81.6455 9.024C82.4775 8.53333 83.4162 8.288 84.4615 8.288C86.1042 8.288 87.4268 8.81067 88.4295 9.856C89.4322 10.9013 89.9335 12.3947 89.9335 14.336V24H88.0135V14.624C88.0135 13.1307 87.6508 12.0107 86.9255 11.264C86.2215 10.5173 85.3042 10.144 84.1735 10.144C83.3202 10.144 82.5522 10.336 81.8695 10.72C81.2082 11.0827 80.6855 11.584 80.3015 12.224C79.9388 12.8427 79.7575 13.536 79.7575 14.304V24H77.8055ZM98.8078 24.288C97.3144 24.3093 96.0984 23.968 95.1598 23.264C94.2424 22.56 93.7838 21.536 93.7838 20.192C93.7838 19.168 94.1251 18.272 94.8078 17.504C95.5118 16.736 96.3971 16.1387 97.4638 15.712C98.5518 15.264 99.6718 15.04 100.824 15.04C102.402 15.04 103.65 15.4133 104.568 16.16V13.536C104.568 12.1067 104.269 11.1787 103.672 10.752C103.074 10.304 102.114 10.08 100.792 10.08C99.9384 10.08 98.9891 10.24 97.9438 10.56C96.8984 10.8587 96.0131 11.2427 95.2878 11.712L94.3598 10.176C95.1918 9.64267 96.1944 9.19467 97.3678 8.832C98.5624 8.46933 99.7038 8.288 100.792 8.288C102.733 8.288 104.162 8.66133 105.08 9.408C105.997 10.1547 106.456 11.5307 106.456 13.536V22.016C106.456 22.4213 106.562 22.656 106.776 22.72C107.01 22.7627 107.512 22.7093 108.28 22.56V23.936C108.066 24.0213 107.778 24.096 107.416 24.16C107.053 24.2453 106.712 24.288 106.392 24.288C105.666 24.288 105.197 24.1387 104.984 23.84C104.77 23.5413 104.642 22.976 104.6 22.144C103.938 22.8693 103.064 23.4027 101.976 23.744C100.888 24.0853 99.8318 24.2667 98.8078 24.288ZM98.9038 22.528C99.9278 22.5067 100.877 22.3467 101.752 22.048C102.648 21.7493 103.352 21.3227 103.864 20.768C104.397 20.192 104.642 19.4987 104.6 18.688C104.536 18.0267 104.173 17.536 103.512 17.216C102.85 16.8747 101.997 16.7147 100.952 16.736C100.077 16.736 99.2344 16.8853 98.4238 17.184C97.6131 17.4827 96.9518 17.8987 96.4398 18.432C95.9491 18.944 95.7038 19.5413 95.7038 20.224C95.7038 21.0133 96.0024 21.6 96.5998 21.984C97.1971 22.3467 97.9651 22.528 98.9038 22.528ZM111.837 24V8.672H113.693L113.789 11.328C114.215 10.432 114.887 9.70667 115.805 9.152C116.743 8.576 117.778 8.288 118.909 8.288C119.207 8.288 119.506 8.30933 119.805 8.352C120.125 8.37333 120.391 8.416 120.605 8.48V10.368C120.413 10.3253 120.135 10.2827 119.773 10.24C119.431 10.1973 119.079 10.176 118.717 10.176C117.821 10.176 116.999 10.3893 116.253 10.816C115.506 11.2213 114.909 11.776 114.461 12.48C114.034 13.1627 113.821 13.9413 113.821 14.816V24H111.837ZM130.108 24.352C128.743 24.352 127.527 24.0213 126.46 23.36C125.393 22.6773 124.551 21.7387 123.932 20.544C123.313 19.328 123.004 17.92 123.004 16.32C123.004 14.72 123.313 13.3227 123.932 12.128C124.551 10.9333 125.393 10.0053 126.46 9.344C127.527 8.66133 128.743 8.32 130.108 8.32C131.26 8.32 132.284 8.59733 133.18 9.152C134.076 9.68533 134.791 10.4213 135.324 11.36V0.895998H137.276V24H135.484L135.452 21.184C134.897 22.1653 134.161 22.944 133.244 23.52C132.327 24.0747 131.281 24.352 130.108 24.352ZM130.172 22.528C131.175 22.528 132.06 22.272 132.828 21.76C133.617 21.248 134.236 20.5333 134.684 19.616C135.132 18.6773 135.356 17.5787 135.356 16.32C135.356 15.0613 135.132 13.9733 134.684 13.056C134.236 12.1387 133.617 11.424 132.828 10.912C132.06 10.4 131.175 10.144 130.172 10.144C129.169 10.144 128.273 10.4 127.484 10.912C126.695 11.424 126.076 12.1387 125.628 13.056C125.18 13.9733 124.956 15.0613 124.956 16.32C124.956 17.5787 125.18 18.6773 125.628 19.616C126.076 20.5333 126.695 21.248 127.484 21.76C128.273 22.272 129.169 22.528 130.172 22.528Z" fill="white"/>
<path d="M1.688 24H0.888V24.8H1.688V24ZM1.688 1.6V0.799998H0.888V1.6H1.688ZM14.68 3.104L14.1262 3.68138L14.1325 3.68726L14.68 3.104ZM13.112 12.192L12.8091 11.4516L10.7152 12.3082L12.8821 12.9583L13.112 12.192ZM16.184 14.368L15.5348 14.8354L15.5401 14.8428L15.5456 14.8501L16.184 14.368ZM15.672 22.464L16.209 23.057L16.209 23.057L15.672 22.464ZM3.64 22.112H2.84V22.912H3.64V22.112ZM14.072 21.056L13.5474 20.4519L13.5395 20.459L14.072 21.056ZM3.64 13.28V12.48H2.84V13.28H3.64ZM3.64 11.392H2.84V12.192H3.64V11.392ZM13.08 10.304L13.6457 10.8697L13.6538 10.8614L13.08 10.304ZM13.08 4.416L13.6093 3.81613L13.6093 3.81613L13.08 4.416ZM3.64 3.456V2.656H2.84V3.456H3.64ZM1.688 24H2.488V1.6H1.688H0.888V24H1.688ZM1.688 1.6V2.4H9.88V1.6V0.799998H1.688V1.6ZM9.88 1.6V2.4C11.9274 2.4 13.2886 2.87796 14.1262 3.68134L14.68 3.104L15.2338 2.52665C13.9807 1.32471 12.1419 0.799998 9.88 0.799998V1.6ZM14.68 3.104L14.1325 3.68726C14.9783 4.4813 15.448 5.63404 15.448 7.264H16.248H17.048C17.048 5.30996 16.4724 3.68936 15.2275 2.52074L14.68 3.104ZM16.248 7.264H15.448C15.448 8.32543 15.194 9.18751 14.7209 9.88842L15.384 10.336L16.0471 10.7836C16.726 9.77782 17.048 8.59191 17.048 7.264H16.248ZM15.384 10.336L14.7209 9.88842C14.232 10.6128 13.5991 11.1284 12.8091 11.4516L13.112 12.192L13.4149 12.9324C14.5023 12.4876 15.384 11.7659 16.0471 10.7836L15.384 10.336ZM13.112 12.192L12.8821 12.9583C13.9963 13.2925 14.8717 13.9144 15.5348 14.8354L16.184 14.368L16.8332 13.9006C15.9603 12.6882 14.7877 11.8595 13.3419 11.4257L13.112 12.192ZM16.184 14.368L15.5456 14.8501C16.2237 15.7481 16.568 16.7924 16.568 18.016H17.368H18.168C18.168 16.4662 17.723 15.0785 16.8224 13.8859L16.184 14.368ZM17.368 18.016H16.568C16.568 19.7971 16.055 21.0378 15.135 21.871L15.672 22.464L16.209 23.057C17.5503 21.8422 18.168 20.1175 18.168 18.016H17.368ZM15.672 22.464L15.135 21.871C14.2154 22.7039 12.6904 23.2 10.392 23.2V24V24.8C12.8722 24.8 14.8673 24.2721 16.209 23.057L15.672 22.464ZM10.392 24V23.2H1.688V24V24.8H10.392V24ZM3.64 22.112V22.912H10.232V22.112V21.312H3.64V22.112ZM10.232 22.112V22.912C12.0761 22.912 13.5974 22.5513 14.6045 21.653L14.072 21.056L13.5395 20.459C12.968 20.9687 11.9292 21.312 10.232 21.312V22.112ZM14.072 21.056L14.5965 21.66C15.6354 20.7579 16.088 19.4359 16.088 17.856H15.288H14.488C14.488 19.1348 14.13 19.9461 13.5475 20.452L14.072 21.056ZM15.288 17.856H16.088C16.088 16.2613 15.5246 14.9224 14.3719 13.9234L13.848 14.528L13.3241 15.1326C14.0914 15.7976 14.488 16.6774 14.488 17.856H15.288ZM13.848 14.528L14.3719 13.9234C13.2396 12.9421 11.8043 12.48 10.136 12.48V13.28V14.08C11.4971 14.08 12.5364 14.4499 13.3241 15.1326L13.848 14.528ZM10.136 13.28V12.48H3.64V13.28V14.08H10.136V13.28ZM3.64 13.28H2.84V22.112H3.64H4.44V13.28H3.64ZM3.64 11.392V12.192H9.976V11.392V10.592H3.64V11.392ZM9.976 11.392V12.192C11.4638 12.192 12.728 11.7873 13.6457 10.8697L13.08 10.304L12.5143 9.73831C11.9813 10.2713 11.1762 10.592 9.976 10.592V11.392ZM13.08 10.304L13.6538 10.8614C14.5403 9.94892 14.968 8.79192 14.968 7.456H14.168H13.368C13.368 8.42408 13.0704 9.16574 12.5062 9.74657L13.08 10.304ZM14.168 7.456H14.968C14.968 5.94191 14.5708 4.66452 13.6093 3.81613L13.08 4.416L12.5507 5.01587C13.0399 5.44748 13.368 6.19675 13.368 7.456H14.168ZM13.08 4.416L13.6093 3.81613C12.6698 2.98712 11.2821 2.656 9.624 2.656V3.456V4.256C11.1232 4.256 12.0396 4.56488 12.5507 5.01587L13.08 4.416ZM9.624 3.456V2.656H3.64V3.456V4.256H9.624V3.456ZM3.64 3.456H2.84V11.392H3.64H4.44V3.456H3.64ZM21.5243 24H20.7243V24.8H21.5243V24ZM21.5243 0.895998V0.095998H20.7243V0.895998H21.5243ZM23.4763 0.895998H24.2763V0.095998H23.4763V0.895998ZM23.4763 24V24.8H24.2763V24H23.4763ZM21.5243 24H22.3243V0.895998H21.5243H20.7243V24H21.5243ZM21.5243 0.895998V1.696H23.4763V0.895998V0.095998H21.5243V0.895998ZM23.4763 0.895998H22.6763V24H23.4763H24.2763V0.895998H23.4763ZM23.4763 24V23.2H21.5243V24V24.8H23.4763V24ZM32.339 24.288L32.3504 25.0879L32.3557 25.0878L32.339 24.288ZM28.691 23.264L28.2039 23.8987L28.211 23.904L28.691 23.264ZM28.339 17.504L27.7492 16.9634L27.7411 16.9725L28.339 17.504ZM30.995 15.712L31.2921 16.4548L31.2996 16.4517L30.995 15.712ZM38.099 16.16L37.594 16.7804L38.899 17.8427V16.16H38.099ZM37.203 10.752L36.723 11.392L36.7304 11.3976L36.738 11.403L37.203 10.752ZM31.475 10.56L31.6948 11.3292L31.702 11.3272L31.7092 11.325L31.475 10.56ZM28.819 11.712L28.1343 12.1257L28.5609 12.8319L29.2536 12.3837L28.819 11.712ZM27.891 10.176L27.4593 9.5025L26.8034 9.92291L27.2063 10.5897L27.891 10.176ZM30.899 8.832L30.6666 8.06648L30.6628 8.06768L30.899 8.832ZM38.611 9.408L39.116 8.78755L39.116 8.78755L38.611 9.408ZM40.307 22.72L40.0771 23.4863L40.1199 23.4991L40.1639 23.5071L40.307 22.72ZM41.811 22.56H42.611V21.5895L41.6583 21.7747L41.811 22.56ZM41.811 23.936L42.1081 24.6788L42.611 24.4776V23.936H41.811ZM40.947 24.16L40.808 23.3722L40.7857 23.3761L40.7638 23.3813L40.947 24.16ZM38.515 23.84L37.864 24.305L37.864 24.305L38.515 23.84ZM38.131 22.144L38.93 22.103L38.8317 20.1881L37.5398 21.605L38.131 22.144ZM35.507 23.744L35.7465 24.5073L35.7465 24.5073L35.507 23.744ZM32.435 22.528V23.328H32.4433L32.4517 23.3278L32.435 22.528ZM35.283 22.048L35.03 21.289L35.0245 21.2909L35.283 22.048ZM37.395 20.768L36.808 20.2245L36.8072 20.2254L37.395 20.768ZM38.131 18.688L38.9299 18.646L38.929 18.6284L38.9273 18.6109L38.131 18.688ZM37.043 17.216L36.6761 17.9269L36.6853 17.9316L36.6946 17.9361L37.043 17.216ZM34.483 16.736V17.536H34.4912L34.4993 17.5358L34.483 16.736ZM29.971 18.432L29.3939 17.878L29.3934 17.8785L29.971 18.432ZM30.131 21.984L29.6984 22.6569L29.707 22.6625L29.7158 22.6678L30.131 21.984ZM32.339 24.288L32.3276 23.4881C30.9623 23.5076 29.9334 23.1958 29.171 22.624L28.691 23.264L28.211 23.904C29.326 24.7402 30.729 25.1111 32.3504 25.0879L32.339 24.288ZM28.691 23.264L29.1781 22.6294C28.4916 22.1025 28.115 21.3329 28.115 20.192H27.315H26.515C26.515 21.7391 27.0557 23.0175 28.2039 23.8986L28.691 23.264ZM27.315 20.192H28.115C28.115 19.3647 28.3839 18.6576 28.9369 18.0355L28.339 17.504L27.7411 16.9725C26.9287 17.8864 26.515 18.9713 26.515 20.192H27.315ZM28.339 17.504L28.9287 18.0446C29.5436 17.3738 30.3253 16.8415 31.2921 16.4548L30.995 15.712L30.6979 14.9692C29.5313 15.4358 28.5424 16.0982 27.7493 16.9634L28.339 17.504ZM30.995 15.712L31.2996 16.4517C32.2931 16.0427 33.3098 15.84 34.355 15.84V15.04V14.24C33.0962 14.24 31.8729 14.4853 30.6904 14.9723L30.995 15.712ZM34.355 15.04V15.84C35.8114 15.84 36.8608 16.1837 37.594 16.7804L38.099 16.16L38.604 15.5396C37.5025 14.643 36.0559 14.24 34.355 14.24V15.04ZM38.099 16.16H38.899V13.536H38.099H37.299V16.16H38.099ZM38.099 13.536H38.899C38.899 12.0753 38.6094 10.7735 37.668 10.101L37.203 10.752L36.738 11.403C36.9912 11.5839 37.299 12.138 37.299 13.536H38.099ZM37.203 10.752L37.683 10.112C36.8756 9.50647 35.7005 9.28 34.323 9.28V10.08V10.88C35.5909 10.88 36.3357 11.1015 36.723 11.392L37.203 10.752ZM34.323 10.08V9.28C33.3716 9.28 32.3419 9.45799 31.2408 9.79504L31.475 10.56L31.7092 11.325C32.6988 11.022 33.5677 10.88 34.323 10.88V10.08ZM31.475 10.56L31.2552 9.79078C30.1526 10.1058 29.1907 10.5186 28.3844 11.0403L28.819 11.712L29.2536 12.3837C29.898 11.9667 30.7068 11.6115 31.6948 11.3292L31.475 10.56ZM28.819 11.712L29.5037 11.2983L28.5757 9.76231L27.891 10.176L27.2063 10.5897L28.1343 12.1257L28.819 11.712ZM27.891 10.176L28.3227 10.8495C29.0814 10.3632 30.0149 9.9426 31.1352 9.59632L30.899 8.832L30.6628 8.06768C29.4364 8.44673 28.3646 8.92213 27.4593 9.5025L27.891 10.176ZM30.899 8.832L31.1314 9.5975C32.2616 9.2544 33.3244 9.088 34.323 9.088V8.288V7.488C33.1456 7.488 31.9257 7.68426 30.6666 8.06649L30.899 8.832ZM34.323 8.288V9.088C36.1895 9.088 37.3977 9.45194 38.106 10.0284L38.611 9.408L39.116 8.78755C37.9896 7.87073 36.3392 7.488 34.323 7.488V8.288ZM38.611 9.408L38.106 10.0284C38.7395 10.5441 39.187 11.609 39.187 13.536H39.987H40.787C40.787 11.4523 40.3172 9.76524 39.116 8.78755L38.611 9.408ZM39.987 13.536H39.187V22.016H39.987H40.787V13.536H39.987ZM39.987 22.016H39.187C39.187 22.2745 39.2188 22.5632 39.3387 22.827C39.471 23.118 39.7135 23.3772 40.0771 23.4863L40.307 22.72L40.5369 21.9537C40.5993 21.9725 40.6613 22.007 40.7129 22.0552C40.7622 22.1012 40.786 22.1446 40.7953 22.165C40.8038 22.1838 40.8008 22.1845 40.7961 22.1565C40.7916 22.1291 40.787 22.0836 40.787 22.016H39.987ZM40.307 22.72L40.1639 23.5071C40.4011 23.5502 40.682 23.5353 40.9436 23.5075C41.2259 23.4775 41.568 23.4222 41.9637 23.3453L41.811 22.56L41.6583 21.7747C41.286 21.8471 40.9934 21.8932 40.7744 21.9165C40.5347 21.942 40.4476 21.9324 40.4501 21.9329L40.307 22.72ZM41.811 22.56H41.011V23.936H41.811H42.611V22.56H41.811ZM41.811 23.936L41.5139 23.1932C41.3726 23.2497 41.1447 23.3127 40.808 23.3722L40.947 24.16L41.086 24.9478C41.4746 24.8793 41.8227 24.7929 42.1081 24.6788L41.811 23.936ZM40.947 24.16L40.7638 23.3813C40.4516 23.4547 40.1722 23.488 39.923 23.488V24.288V25.088C40.3138 25.088 40.7171 25.0359 41.1302 24.9387L40.947 24.16ZM39.923 24.288V23.488C39.6076 23.488 39.3982 23.4546 39.2696 23.4137C39.1438 23.3736 39.1428 23.3426 39.166 23.375L38.515 23.84L37.864 24.305C38.3247 24.9499 39.1715 25.088 39.923 25.088V24.288ZM38.515 23.84L39.166 23.375C39.1465 23.3478 39.0918 23.2476 39.0393 23.0153C38.9887 22.7919 38.9499 22.4913 38.93 22.103L38.131 22.144L37.3321 22.185C37.3548 22.6287 37.4013 23.0267 37.4787 23.3687C37.5542 23.7017 37.6701 24.0336 37.864 24.305L38.515 23.84ZM38.131 22.144L37.5398 21.605C36.9883 22.2099 36.2426 22.6748 35.2675 22.9807L35.507 23.744L35.7465 24.5073C36.9474 24.1306 37.951 23.5288 38.7222 22.683L38.131 22.144ZM35.507 23.744L35.2675 22.9807C34.2436 23.3019 33.2627 23.4686 32.3223 23.4882L32.339 24.288L32.3557 25.0878C33.4633 25.0648 34.5944 24.8688 35.7465 24.5073L35.507 23.744ZM32.435 22.528L32.4517 23.3278C33.5492 23.305 34.581 23.1331 35.5415 22.8051L35.283 22.048L35.0245 21.2909C34.2357 21.5603 33.3688 21.7084 32.4183 21.7282L32.435 22.528ZM35.283 22.048L35.536 22.8069C36.5284 22.4761 37.359 21.9864 37.9828 21.3106L37.395 20.768L36.8072 20.2254C36.407 20.6589 35.8296 21.0225 35.03 21.2891L35.283 22.048ZM37.395 20.768L37.982 21.3115C38.6677 20.571 38.9835 19.6642 38.9299 18.646L38.131 18.688L37.3321 18.73C37.3639 19.3332 37.189 19.813 36.808 20.2245L37.395 20.768ZM38.131 18.688L38.9273 18.6109C38.8332 17.6383 38.2722 16.922 37.3914 16.4959L37.043 17.216L36.6946 17.9361C37.1365 18.15 37.3008 18.415 37.3347 18.7651L38.131 18.688ZM37.043 17.216L37.4099 16.5051C36.592 16.083 35.5943 15.9132 34.4667 15.9362L34.483 16.736L34.4993 17.5358C35.4624 17.5162 36.1713 17.6664 36.6761 17.9269L37.043 17.216ZM34.483 16.736V15.936C33.5152 15.936 32.5788 16.1016 31.6784 16.4333L31.955 17.184L32.2316 17.9347C32.9526 17.669 33.7015 17.536 34.483 17.536V16.736ZM31.955 17.184L31.6784 16.4333C30.7731 16.7669 30.0029 17.2436 29.3939 17.878L29.971 18.432L30.5481 18.986C30.9631 18.5538 31.5156 18.1985 32.2316 17.9347L31.955 17.184ZM29.971 18.432L29.3934 17.8785C28.7662 18.533 28.435 19.3263 28.435 20.224H29.235H30.035C30.035 19.7563 30.1945 19.355 30.5486 18.9855L29.971 18.432ZM29.235 20.224H28.435C28.435 21.2496 28.8434 22.1073 29.6984 22.6569L30.131 21.984L30.5636 21.3111C30.2239 21.0927 30.035 20.7771 30.035 20.224H29.235ZM30.131 21.984L29.7158 22.6678C30.4742 23.1283 31.3986 23.328 32.435 23.328V22.528V21.728C31.5941 21.728 30.9824 21.565 30.5462 21.3002L30.131 21.984ZM45.368 24H44.568V24.8H45.368V24ZM45.368 8.672V7.872H44.568V8.672H45.368ZM47.192 8.672L47.9917 8.64848L47.9688 7.872H47.192V8.672ZM47.256 10.848L46.4563 10.8715L46.5292 13.3501L47.9186 11.2962L47.256 10.848ZM49.208 9.024L48.8016 8.33486L48.7938 8.3396L49.208 9.024ZM55.992 9.856L56.5693 9.30222L56.5693 9.30222L55.992 9.856ZM57.496 24V24.8H58.296V24H57.496ZM55.576 24H54.776V24.8H55.576V24ZM54.488 11.264L53.9059 11.8129L53.9142 11.8214L54.488 11.264ZM49.432 10.72L49.8167 11.4215L49.8242 11.4173L49.432 10.72ZM47.864 12.224L47.178 11.8124L47.1738 11.8194L47.864 12.224ZM47.32 24V24.8H48.12V24H47.32ZM45.368 24H46.168V8.672H45.368H44.568V24H45.368ZM45.368 8.672V9.472H47.192V8.672V7.872H45.368V8.672ZM47.192 8.672L46.3923 8.69552L46.4563 10.8715L47.256 10.848L48.0557 10.8245L47.9917 8.64848L47.192 8.672ZM47.256 10.848L47.9186 11.2962C48.3393 10.6743 48.9022 10.1442 49.6222 9.7084L49.208 9.024L48.7938 8.3396C47.8924 8.88513 47.154 9.57102 46.5934 10.3998L47.256 10.848ZM49.208 9.024L49.6144 9.71309C50.3132 9.30097 51.1095 9.088 52.024 9.088V8.288V7.488C50.8479 7.488 49.7668 7.7657 48.8016 8.33491L49.208 9.024ZM52.024 8.288V9.088C53.4807 9.088 54.5837 9.54345 55.4147 10.4098L55.992 9.856L56.5693 9.30222C55.395 8.07788 53.8526 7.488 52.024 7.488V8.288ZM55.992 9.856L55.4147 10.4098C56.2314 11.2613 56.696 12.5291 56.696 14.336H57.496H58.296C58.296 12.2602 57.758 10.5414 56.5693 9.30222L55.992 9.856ZM57.496 14.336H56.696V24H57.496H58.296V14.336H57.496ZM57.496 24V23.2H55.576V24V24.8H57.496V24ZM55.576 24H56.376V14.624H55.576H54.776V24H55.576ZM55.576 14.624H56.376C56.376 13.0131 55.985 11.6569 55.0618 10.7066L54.488 11.264L53.9142 11.8214C54.4417 12.3645 54.776 13.2483 54.776 14.624H55.576ZM54.488 11.264L55.0701 10.7152C54.1987 9.79097 53.0621 9.344 51.736 9.344V10.144V10.944C52.6712 10.944 53.3693 11.2437 53.9059 11.8128L54.488 11.264ZM51.736 10.144V9.344C50.7579 9.344 49.8528 9.56545 49.0398 10.0227L49.432 10.72L49.8242 11.4173C50.3766 11.1065 51.0074 10.944 51.736 10.944V10.144ZM49.432 10.72L49.0473 10.0185C48.263 10.4487 47.6358 11.0494 47.178 11.8124L47.864 12.224L48.55 12.6356C48.8602 12.1186 49.2783 11.7167 49.8167 11.4214L49.432 10.72ZM47.864 12.224L47.1738 11.8194C46.7341 12.5695 46.52 13.4042 46.52 14.304H47.32H48.12C48.12 13.6678 48.2685 13.1158 48.5542 12.6286L47.864 12.224ZM47.32 14.304H46.52V24H47.32H48.12V14.304H47.32ZM47.32 24V23.2H45.368V24V24.8H47.32V24ZM64.8663 23.36L64.435 24.0339L64.4447 24.0399L64.8663 23.36ZM62.3383 20.512L63.0513 20.1492L63.0513 20.1492L62.3383 20.512ZM62.3383 12.16L63.0487 12.5279L63.0513 12.5228L62.3383 12.16ZM64.8663 9.344L65.2878 10.024L65.2975 10.0178L64.8663 9.344ZM71.5223 8.992L71.1712 9.71085L71.1811 9.71571L71.1912 9.72029L71.5223 8.992ZM73.9223 10.912L74.4023 11.552L75.0524 11.0644L74.5546 10.4219L73.9223 10.912ZM72.3863 12.064L71.7463 12.544L72.2263 13.184L72.8663 12.704L72.3863 12.064ZM64.8023 11.84L64.1981 11.3156L64.1973 11.3165L64.8023 11.84ZM64.8023 20.832L64.1924 21.3498L64.1981 21.3564L64.8023 20.832ZM72.3863 20.608L72.8663 19.968L72.2263 19.488L71.7463 20.128L72.3863 20.608ZM73.9223 21.76L74.55 22.256L75.0586 21.6122L74.4023 21.12L73.9223 21.76ZM68.5143 24.352V23.552C67.2843 23.552 66.2168 23.2561 65.2878 22.6801L64.8663 23.36L64.4447 24.0399C65.649 24.7866 67.0135 25.152 68.5143 25.152V24.352ZM64.8663 23.36L65.2975 22.6862C64.36 22.0862 63.6105 21.2485 63.0513 20.1492L62.3383 20.512L61.6252 20.8748C62.3033 22.2075 63.2392 23.2685 64.435 24.0338L64.8663 23.36ZM62.3383 20.512L63.0513 20.1492C62.4981 19.0621 62.2103 17.7924 62.2103 16.32H61.4103H60.6103C60.6103 18.0049 60.941 19.5299 61.6252 20.8748L62.3383 20.512ZM61.4103 16.32H62.2103C62.2103 14.8472 62.4983 13.5907 63.0486 12.5279L62.3383 12.16L61.6279 11.7921C60.9409 13.1187 60.6103 14.6355 60.6103 16.32H61.4103ZM62.3383 12.16L63.0513 12.5228C63.6096 11.4254 64.3562 10.6015 65.2878 10.0239L64.8663 9.344L64.4447 8.66408C63.243 9.40916 62.3042 10.4626 61.6252 11.7972L62.3383 12.16ZM64.8663 9.344L65.2975 10.0178C66.2253 9.42401 67.2893 9.12 68.5143 9.12V8.32V7.52C67.0085 7.52 65.6405 7.89866 64.435 8.67018L64.8663 9.344ZM68.5143 8.32V9.12C69.4888 9.12 70.3703 9.31972 71.1712 9.71085L71.5223 8.992L71.8733 8.27315C70.8395 7.76827 69.7157 7.52 68.5143 7.52V8.32ZM71.5223 8.992L71.1912 9.72029C72.006 10.0906 72.7043 10.6464 73.2899 11.4021L73.9223 10.912L74.5546 10.4219C73.8175 9.4709 72.9159 8.74669 71.8533 8.26371L71.5223 8.992ZM73.9223 10.912L73.4423 10.272L71.9063 11.424L72.3863 12.064L72.8663 12.704L74.4023 11.552L73.9223 10.912ZM72.3863 12.064L73.0263 11.584C71.9128 10.0994 70.3834 9.344 68.5143 9.344V10.144V10.944C69.8877 10.944 70.9397 11.4686 71.7463 12.544L72.3863 12.064ZM68.5143 10.144V9.344C66.7884 9.344 65.3309 10.0104 64.1981 11.3156L64.8023 11.84L65.4064 12.3644C66.2363 11.4083 67.2534 10.944 68.5143 10.944V10.144ZM64.8023 11.84L64.1973 11.3165C63.0796 12.6081 62.5623 14.3056 62.5623 16.32H63.3623H64.1623C64.1623 14.5798 64.6049 13.2905 65.4072 12.3635L64.8023 11.84ZM63.3623 16.32H62.5623C62.5623 18.3353 63.0799 20.0394 64.1924 21.3498L64.8023 20.832L65.4121 20.3142C64.6046 19.3632 64.1623 18.0594 64.1623 16.32H63.3623ZM64.8023 20.832L64.1981 21.3564C65.3309 22.6616 66.7884 23.328 68.5143 23.328V22.528V21.728C67.2534 21.728 66.2363 21.2637 65.4064 20.3076L64.8023 20.832ZM68.5143 22.528V23.328C70.3834 23.328 71.9128 22.5726 73.0263 21.088L72.3863 20.608L71.7463 20.128C70.9397 21.2034 69.8877 21.728 68.5143 21.728V22.528ZM72.3863 20.608L71.9063 21.248L73.4423 22.4L73.9223 21.76L74.4023 21.12L72.8663 19.968L72.3863 20.608ZM73.9223 21.76L73.2945 21.264C72.0839 22.7962 70.5144 23.552 68.5143 23.552V24.352V25.152C70.9941 25.152 73.0299 24.1798 74.55 22.256L73.9223 21.76ZM77.8055 24H77.0055V24.8H77.8055V24ZM77.8055 0.895998V0.095998H77.0055V0.895998H77.8055ZM79.7575 0.895998H80.5575V0.095998H79.7575V0.895998ZM79.7575 10.848H78.9575V13.6656L80.4381 11.2684L79.7575 10.848ZM81.6455 9.024L81.2391 8.33486L81.2313 8.3396L81.6455 9.024ZM88.4295 9.856L89.0068 9.30222L89.0068 9.30222L88.4295 9.856ZM89.9335 24V24.8H90.7335V24H89.9335ZM88.0135 24H87.2135V24.8H88.0135V24ZM86.9255 11.264L86.3434 11.8129L86.3517 11.8214L86.9255 11.264ZM81.8695 10.72L82.2542 11.4215L82.2617 11.4173L81.8695 10.72ZM80.3015 12.224L79.6155 11.8124L79.6113 11.8194L80.3015 12.224ZM79.7575 24V24.8H80.5575V24H79.7575ZM77.8055 24H78.6055V0.895998H77.8055H77.0055V24H77.8055ZM77.8055 0.895998V1.696H79.7575V0.895998V0.095998H77.8055V0.895998ZM79.7575 0.895998H78.9575V10.848H79.7575H80.5575V0.895998H79.7575ZM79.7575 10.848L80.4381 11.2684C80.8124 10.6625 81.3453 10.1408 82.0597 9.7084L81.6455 9.024L81.2313 8.3396C80.3244 8.88849 79.5986 9.58283 79.0769 10.4276L79.7575 10.848ZM81.6455 9.024L82.0519 9.71309C82.7507 9.30097 83.547 9.088 84.4615 9.088V8.288V7.488C83.2854 7.488 82.2043 7.7657 81.2391 8.33491L81.6455 9.024ZM84.4615 8.288V9.088C85.9182 9.088 87.0212 9.54345 87.8522 10.4098L88.4295 9.856L89.0068 9.30222C87.8325 8.07788 86.2901 7.488 84.4615 7.488V8.288ZM88.4295 9.856L87.8522 10.4098C88.6689 11.2613 89.1335 12.5291 89.1335 14.336H89.9335H90.7335C90.7335 12.2602 90.1955 10.5414 89.0068 9.30222L88.4295 9.856ZM89.9335 14.336H89.1335V24H89.9335H90.7335V14.336H89.9335ZM89.9335 24V23.2H88.0135V24V24.8H89.9335V24ZM88.0135 24H88.8135V14.624H88.0135H87.2135V24H88.0135ZM88.0135 14.624H88.8135C88.8135 13.0131 88.4225 11.6569 87.4993 10.7066L86.9255 11.264L86.3517 11.8214C86.8792 12.3645 87.2135 13.2483 87.2135 14.624H88.0135ZM86.9255 11.264L87.5076 10.7152C86.6362 9.79097 85.4996 9.344 84.1735 9.344V10.144V10.944C85.1087 10.944 85.8068 11.2437 86.3434 11.8128L86.9255 11.264ZM84.1735 10.144V9.344C83.1954 9.344 82.2903 9.56545 81.4773 10.0227L81.8695 10.72L82.2617 11.4173C82.8141 11.1065 83.4449 10.944 84.1735 10.944V10.144ZM81.8695 10.72L81.4848 10.0185C80.7005 10.4487 80.0733 11.0494 79.6155 11.8124L80.3015 12.224L80.9875 12.6356C81.2977 12.1186 81.7158 11.7167 82.2542 11.4214L81.8695 10.72ZM80.3015 12.224L79.6113 11.8194C79.1716 12.5695 78.9575 13.4042 78.9575 14.304H79.7575H80.5575C80.5575 13.6678 80.706 13.1158 80.9917 12.6286L80.3015 12.224ZM79.7575 14.304H78.9575V24H79.7575H80.5575V14.304H79.7575ZM79.7575 24V23.2H77.8055V24V24.8H79.7575V24ZM98.8078 24.288L98.8192 25.0879L98.8244 25.0878L98.8078 24.288ZM95.1598 23.264L94.6727 23.8987L94.6798 23.904L95.1598 23.264ZM94.8078 17.504L94.218 16.9634L94.2098 16.9725L94.8078 17.504ZM97.4638 15.712L97.7609 16.4548L97.7684 16.4517L97.4638 15.712ZM104.568 16.16L104.063 16.7804L105.368 17.8427V16.16H104.568ZM103.672 10.752L103.192 11.392L103.199 11.3976L103.207 11.403L103.672 10.752ZM97.9438 10.56L98.1635 11.3292L98.1707 11.3272L98.1779 11.325L97.9438 10.56ZM95.2878 11.712L94.603 12.1257L95.0297 12.8319L95.7224 12.3837L95.2878 11.712ZM94.3598 10.176L93.928 9.5025L93.2722 9.92291L93.675 10.5897L94.3598 10.176ZM97.3678 8.832L97.1354 8.06648L97.1315 8.06768L97.3678 8.832ZM105.08 9.408L105.585 8.78755L105.585 8.78755L105.08 9.408ZM106.776 22.72L106.546 23.4863L106.589 23.4991L106.633 23.5071L106.776 22.72ZM108.28 22.56H109.08V21.5895L108.127 21.7747L108.28 22.56ZM108.28 23.936L108.577 24.6788L109.08 24.4776V23.936H108.28ZM107.416 24.16L107.277 23.3722L107.254 23.3761L107.233 23.3813L107.416 24.16ZM104.984 23.84L104.333 24.305L104.333 24.305L104.984 23.84ZM104.6 22.144L105.399 22.103L105.3 20.1881L104.009 21.605L104.6 22.144ZM101.976 23.744L102.215 24.5073L102.215 24.5073L101.976 23.744ZM98.9038 22.528V23.328H98.9121L98.9204 23.3278L98.9038 22.528ZM101.752 22.048L101.499 21.289L101.493 21.2909L101.752 22.048ZM103.864 20.768L103.277 20.2245L103.276 20.2254L103.864 20.768ZM104.6 18.688L105.399 18.646L105.398 18.6284L105.396 18.6109L104.6 18.688ZM103.512 17.216L103.145 17.9269L103.154 17.9316L103.163 17.9361L103.512 17.216ZM100.952 16.736V17.536H100.96L100.968 17.5358L100.952 16.736ZM96.4398 18.432L95.8626 17.878L95.8622 17.8785L96.4398 18.432ZM96.5998 21.984L96.1671 22.6569L96.1758 22.6625L96.1846 22.6678L96.5998 21.984ZM98.8078 24.288L98.7963 23.4881C97.4311 23.5076 96.4021 23.1958 95.6398 22.624L95.1598 23.264L94.6798 23.904C95.7947 24.7402 97.1978 25.1111 98.8192 25.0879L98.8078 24.288ZM95.1598 23.264L95.6468 22.6294C94.9603 22.1025 94.5838 21.3329 94.5838 20.192H93.7838H92.9838C92.9838 21.7391 93.5245 23.0175 94.6727 23.8986L95.1598 23.264ZM93.7838 20.192H94.5838C94.5838 19.3647 94.8527 18.6576 95.4057 18.0355L94.8078 17.504L94.2098 16.9725C93.3975 17.8864 92.9838 18.9713 92.9838 20.192H93.7838ZM94.8078 17.504L95.3975 18.0446C96.0123 17.3738 96.7941 16.8415 97.7609 16.4548L97.4638 15.712L97.1666 14.9692C96.0001 15.4358 95.0112 16.0982 94.218 16.9634L94.8078 17.504ZM97.4638 15.712L97.7684 16.4517C98.7618 16.0427 99.7785 15.84 100.824 15.84V15.04V14.24C99.565 14.24 98.3417 14.4853 97.1592 14.9723L97.4638 15.712ZM100.824 15.04V15.84C102.28 15.84 103.33 16.1837 104.063 16.7804L104.568 16.16L105.073 15.5396C103.971 14.643 102.525 14.24 100.824 14.24V15.04ZM104.568 16.16H105.368V13.536H104.568H103.768V16.16H104.568ZM104.568 13.536H105.368C105.368 12.0753 105.078 10.7735 104.137 10.101L103.672 10.752L103.207 11.403C103.46 11.5839 103.768 12.138 103.768 13.536H104.568ZM103.672 10.752L104.152 10.112C103.344 9.50647 102.169 9.28 100.792 9.28V10.08V10.88C102.06 10.88 102.804 11.1015 103.192 11.392L103.672 10.752ZM100.792 10.08V9.28C99.8404 9.28 98.8106 9.45799 97.7096 9.79504L97.9438 10.56L98.1779 11.325C99.1676 11.022 100.036 10.88 100.792 10.88V10.08ZM97.9438 10.56L97.724 9.79078C96.6213 10.1058 95.6594 10.5186 94.8531 11.0403L95.2878 11.712L95.7224 12.3837C96.3667 11.9667 97.1755 11.6115 98.1635 11.3292L97.9438 10.56ZM95.2878 11.712L95.9725 11.2983L95.0445 9.76231L94.3598 10.176L93.675 10.5897L94.603 12.1257L95.2878 11.712ZM94.3598 10.176L94.7915 10.8495C95.5501 10.3632 96.4837 9.9426 97.604 9.59632L97.3678 8.832L97.1315 8.06768C95.9052 8.44673 94.8334 8.92213 93.928 9.5025L94.3598 10.176ZM97.3678 8.832L97.6001 9.5975C98.7303 9.2544 99.7931 9.088 100.792 9.088V8.288V7.488C99.6144 7.488 98.3945 7.68426 97.1354 8.06649L97.3678 8.832ZM100.792 8.288V9.088C102.658 9.088 103.866 9.45194 104.575 10.0284L105.08 9.408L105.585 8.78755C104.458 7.87073 102.808 7.488 100.792 7.488V8.288ZM105.08 9.408L104.575 10.0284C105.208 10.5441 105.656 11.609 105.656 13.536H106.456H107.256C107.256 11.4523 106.786 9.76524 105.585 8.78755L105.08 9.408ZM106.456 13.536H105.656V22.016H106.456H107.256V13.536H106.456ZM106.456 22.016H105.656C105.656 22.2745 105.688 22.5632 105.807 22.827C105.94 23.118 106.182 23.3772 106.546 23.4863L106.776 22.72L107.006 21.9537C107.068 21.9725 107.13 22.007 107.182 22.0552C107.231 22.1012 107.255 22.1446 107.264 22.165C107.273 22.1838 107.27 22.1845 107.265 22.1565C107.26 22.1291 107.256 22.0836 107.256 22.016H106.456ZM106.776 22.72L106.633 23.5071C106.87 23.5502 107.151 23.5353 107.412 23.5075C107.695 23.4775 108.037 23.4222 108.432 23.3453L108.28 22.56L108.127 21.7747C107.755 21.8471 107.462 21.8932 107.243 21.9165C107.003 21.942 106.916 21.9324 106.919 21.9329L106.776 22.72ZM108.28 22.56H107.48V23.936H108.28H109.08V22.56H108.28ZM108.28 23.936L107.983 23.1932C107.841 23.2497 107.613 23.3127 107.277 23.3722L107.416 24.16L107.555 24.9478C107.943 24.8793 108.291 24.7929 108.577 24.6788L108.28 23.936ZM107.416 24.16L107.233 23.3813C106.92 23.4547 106.641 23.488 106.392 23.488V24.288V25.088C106.783 25.088 107.186 25.0359 107.599 24.9387L107.416 24.16ZM106.392 24.288V23.488C106.076 23.488 105.867 23.4546 105.738 23.4137C105.613 23.3736 105.612 23.3426 105.635 23.375L104.984 23.84L104.333 24.305C104.793 24.9499 105.64 25.088 106.392 25.088V24.288ZM104.984 23.84L105.635 23.375C105.615 23.3478 105.561 23.2476 105.508 23.0153C105.457 22.7919 105.419 22.4913 105.399 22.103L104.6 22.144L103.801 22.185C103.824 22.6287 103.87 23.0267 103.947 23.3687C104.023 23.7017 104.139 24.0336 104.333 24.305L104.984 23.84ZM104.6 22.144L104.009 21.605C103.457 22.2099 102.711 22.6748 101.736 22.9807L101.976 23.744L102.215 24.5073C103.416 24.1306 104.42 23.5288 105.191 22.683L104.6 22.144ZM101.976 23.744L101.736 22.9807C100.712 23.3019 99.7315 23.4686 98.7911 23.4882L98.8078 24.288L98.8244 25.0878C99.932 25.0648 101.063 24.8688 102.215 24.5073L101.976 23.744ZM98.9038 22.528L98.9204 23.3278C100.018 23.305 101.05 23.1331 102.01 22.8051L101.752 22.048L101.493 21.2909C100.704 21.5603 99.8376 21.7084 98.8871 21.7282L98.9038 22.528ZM101.752 22.048L102.005 22.8069C102.997 22.4761 103.828 21.9864 104.452 21.3106L103.864 20.768L103.276 20.2254C102.876 20.6589 102.298 21.0225 101.499 21.2891L101.752 22.048ZM103.864 20.768L104.451 21.3115C105.136 20.571 105.452 19.6642 105.399 18.646L104.6 18.688L103.801 18.73C103.833 19.3332 103.658 19.813 103.277 20.2245L103.864 20.768ZM104.6 18.688L105.396 18.6109C105.302 17.6383 104.741 16.922 103.86 16.4959L103.512 17.216L103.163 17.9361C103.605 18.15 103.77 18.415 103.803 18.7651L104.6 18.688ZM103.512 17.216L103.879 16.5051C103.061 16.083 102.063 15.9132 100.935 15.9362L100.952 16.736L100.968 17.5358C101.931 17.5162 102.64 17.6664 103.145 17.9269L103.512 17.216ZM100.952 16.736V15.936C99.9839 15.936 99.0475 16.1016 98.1472 16.4333L98.4238 17.184L98.7003 17.9347C99.4213 17.669 100.17 17.536 100.952 17.536V16.736ZM98.4238 17.184L98.1472 16.4333C97.2418 16.7669 96.4717 17.2436 95.8626 17.878L96.4398 18.432L97.0169 18.986C97.4318 18.5538 97.9843 18.1985 98.7003 17.9347L98.4238 17.184ZM96.4398 18.432L95.8622 17.8785C95.2349 18.533 94.9038 19.3263 94.9038 20.224H95.7038H96.5038C96.5038 19.7563 96.6633 19.355 97.0173 18.9855L96.4398 18.432ZM95.7038 20.224H94.9038C94.9038 21.2496 95.3121 22.1073 96.1671 22.6569L96.5998 21.984L97.0324 21.3111C96.6927 21.0927 96.5038 20.7771 96.5038 20.224H95.7038ZM96.5998 21.984L96.1846 22.6678C96.943 23.1283 97.8673 23.328 98.9038 23.328V22.528V21.728C98.0628 21.728 97.4512 21.565 97.0149 21.3002L96.5998 21.984ZM111.837 24H111.037V24.8H111.837V24ZM111.837 8.672V7.872H111.037V8.672H111.837ZM113.693 8.672L114.492 8.6431L114.464 7.872H113.693V8.672ZM113.789 11.328L112.989 11.3569L114.511 11.6719L113.789 11.328ZM115.805 9.152L116.219 9.8366L116.223 9.83386L115.805 9.152ZM119.805 8.352L119.692 9.14396L119.721 9.14822L119.752 9.15023L119.805 8.352ZM120.605 8.48H121.405V7.88478L120.835 7.71374L120.605 8.48ZM120.605 10.368L120.431 11.1489L121.405 11.3653V10.368H120.605ZM119.773 10.24L119.674 11.0338L119.679 11.0345L119.773 10.24ZM116.253 10.816L116.634 11.5191L116.642 11.5149L116.65 11.5106L116.253 10.816ZM114.461 12.48L113.786 12.0505L113.782 12.056L114.461 12.48ZM113.821 24V24.8H114.621V24H113.821ZM111.837 24H112.637V8.672H111.837H111.037V24H111.837ZM111.837 8.672V9.472H113.693V8.672V7.872H111.837V8.672ZM113.693 8.672L112.893 8.7009L112.989 11.3569L113.789 11.328L114.588 11.2991L114.492 8.6431L113.693 8.672ZM113.789 11.328L114.511 11.6719C114.865 10.9286 115.424 10.3171 116.219 9.83659L115.805 9.152L115.391 8.46741C114.351 9.09624 113.566 9.9354 113.066 10.9841L113.789 11.328ZM115.805 9.152L116.223 9.83386C117.032 9.33725 117.922 9.088 118.909 9.088V8.288V7.488C117.635 7.488 116.454 7.81475 115.386 8.47014L115.805 9.152ZM118.909 8.288V9.088C119.169 9.088 119.43 9.10659 119.692 9.14396L119.805 8.352L119.918 7.56004C119.582 7.51207 119.246 7.488 118.909 7.488V8.288ZM119.805 8.352L119.752 9.15023C120.035 9.16915 120.238 9.20522 120.375 9.24626L120.605 8.48L120.835 7.71374C120.545 7.62677 120.214 7.57751 119.858 7.55377L119.805 8.352ZM120.605 8.48H119.805V10.368H120.605H121.405V8.48H120.605ZM120.605 10.368L120.778 9.58705C120.546 9.5355 120.237 9.48912 119.866 9.44548L119.773 10.24L119.679 11.0345C120.034 11.0762 120.279 11.1152 120.431 11.1489L120.605 10.368ZM119.773 10.24L119.872 9.44618C119.496 9.39918 119.111 9.376 118.717 9.376V10.176V10.976C119.048 10.976 119.367 10.9955 119.674 11.0338L119.773 10.24ZM118.717 10.176V9.376C117.688 9.376 116.729 9.62271 115.856 10.1214L116.253 10.816L116.65 11.5106C117.27 11.156 117.954 10.976 118.717 10.976V10.176ZM116.253 10.816L115.871 10.1129C115.007 10.5818 114.308 11.2297 113.786 12.0505L114.461 12.48L115.136 12.9095C115.509 12.3223 116.005 11.8608 116.634 11.5191L116.253 10.816ZM114.461 12.48L113.782 12.056C113.269 12.8768 113.021 13.8049 113.021 14.816H113.821H114.621C114.621 14.0778 114.799 13.4486 115.139 12.904L114.461 12.48ZM113.821 14.816H113.021V24H113.821H114.621V14.816H113.821ZM113.821 24V23.2H111.837V24V24.8H113.821V24ZM126.46 23.36L126.029 24.0339L126.038 24.0399L126.46 23.36ZM123.932 20.544L123.219 20.9068L123.222 20.9119L123.932 20.544ZM123.932 12.128L124.642 12.4959L124.642 12.4959L123.932 12.128ZM126.46 9.344L126.882 10.024L126.891 10.0178L126.46 9.344ZM133.18 9.152L132.759 9.83231L132.771 9.83943L133.18 9.152ZM135.324 11.36L134.628 11.7552L136.124 14.3874V11.36H135.324ZM135.324 0.895998V0.095998H134.524V0.895998H135.324ZM137.276 0.895998H138.076V0.095998H137.276V0.895998ZM137.276 24V24.8H138.076V24H137.276ZM135.484 24L134.684 24.0091L134.693 24.8H135.484V24ZM135.452 21.184L136.252 21.1749L136.218 18.2026L134.756 20.7904L135.452 21.184ZM133.244 23.52L133.658 24.2047L133.669 24.1975L133.244 23.52ZM132.828 21.76L132.393 21.0888L132.384 21.0944L132.828 21.76ZM134.684 19.616L135.403 19.9671L135.406 19.9606L134.684 19.616ZM134.684 13.056L133.965 13.4071L133.965 13.4071L134.684 13.056ZM132.828 10.912L132.384 11.5777L132.393 11.5832L132.828 10.912ZM127.484 10.912L127.919 11.5832L127.919 11.5832L127.484 10.912ZM125.628 13.056L126.347 13.4071L126.347 13.4071L125.628 13.056ZM125.628 19.616L124.906 19.9606L124.909 19.9671L125.628 19.616ZM127.484 21.76L127.049 22.4312L127.049 22.4312L127.484 21.76ZM130.108 24.352V23.552C128.878 23.552 127.811 23.2561 126.882 22.6801L126.46 23.36L126.038 24.0399C127.243 24.7866 128.607 25.152 130.108 25.152V24.352ZM126.46 23.36L126.891 22.6862C125.95 22.084 125.201 21.2541 124.642 20.1761L123.932 20.544L123.222 20.9119C123.901 22.2232 124.836 23.2707 126.029 24.0338L126.46 23.36ZM123.932 20.544L124.645 20.1812C124.093 19.0955 123.804 17.8156 123.804 16.32H123.004H122.204C122.204 18.0244 122.534 19.5605 123.219 20.9068L123.932 20.544ZM123.004 16.32H123.804C123.804 14.8239 124.093 13.5572 124.642 12.4959L123.932 12.128L123.222 11.7601C122.534 13.0881 122.204 14.6161 122.204 16.32H123.004ZM123.932 12.128L124.642 12.4959C125.2 11.4198 125.946 10.6037 126.882 10.0239L126.46 9.344L126.038 8.66408C124.84 9.40695 123.902 10.4469 123.222 11.7601L123.932 12.128ZM126.46 9.344L126.891 10.0178C127.819 9.42401 128.883 9.12 130.108 9.12V8.32V7.52C128.602 7.52 127.234 7.89866 126.029 8.67018L126.46 9.344ZM130.108 8.32V9.12C131.126 9.12 132.001 9.36308 132.759 9.83221L133.18 9.152L133.601 8.47179C132.567 7.83159 131.394 7.52 130.108 7.52V8.32ZM133.18 9.152L132.771 9.83943C133.543 10.2993 134.161 10.9327 134.628 11.7552L135.324 11.36L136.02 10.9648C135.42 9.90999 134.609 9.07141 133.589 8.46457L133.18 9.152ZM135.324 11.36H136.124V0.895998H135.324H134.524V11.36H135.324ZM135.324 0.895998V1.696H137.276V0.895998V0.095998H135.324V0.895998ZM137.276 0.895998H136.476V24H137.276H138.076V0.895998H137.276ZM137.276 24V23.2H135.484V24V24.8H137.276V24ZM135.484 24L136.284 23.9909L136.252 21.1749L135.452 21.184L134.652 21.1931L134.684 24.0091L135.484 24ZM135.452 21.184L134.756 20.7904C134.263 21.6609 133.619 22.3401 132.819 22.8425L133.244 23.52L133.669 24.1975C134.704 23.5479 135.531 22.6698 136.148 21.5776L135.452 21.184ZM133.244 23.52L132.83 22.8354C132.049 23.3075 131.15 23.552 130.108 23.552V24.352V25.152C131.413 25.152 132.604 24.8418 133.658 24.2046L133.244 23.52ZM130.172 22.528V23.328C131.318 23.328 132.361 23.0328 133.272 22.4256L132.828 21.76L132.384 21.0944C131.759 21.5112 131.031 21.728 130.172 21.728V22.528ZM132.828 21.76L133.263 22.4312C134.185 21.8335 134.897 21.0034 135.403 19.9671L134.684 19.616L133.965 19.2649C133.575 20.0633 133.05 20.6625 132.393 21.0888L132.828 21.76ZM134.684 19.616L135.406 19.9606C135.915 18.8941 136.156 17.6732 136.156 16.32H135.356H134.556C134.556 17.4841 134.349 18.4606 133.962 19.2714L134.684 19.616ZM135.356 16.32H136.156C136.156 14.9674 135.915 13.7541 135.403 12.7049L134.684 13.056L133.965 13.4071C134.349 14.1926 134.556 15.1552 134.556 16.32H135.356ZM134.684 13.056L135.403 12.7049C134.897 11.6686 134.185 10.8385 133.263 10.2408L132.828 10.912L132.393 11.5832C133.05 12.0095 133.575 12.6087 133.965 13.4071L134.684 13.056ZM132.828 10.912L133.272 10.2464C132.361 9.63917 131.318 9.344 130.172 9.344V10.144V10.944C131.031 10.944 131.759 11.1608 132.384 11.5776L132.828 10.912ZM130.172 10.144V9.344C129.025 9.344 127.976 9.63914 127.049 10.2408L127.484 10.912L127.919 11.5832C128.57 11.1609 129.313 10.944 130.172 10.944V10.144ZM127.484 10.912L127.049 10.2408C126.127 10.8385 125.415 11.6686 124.909 12.7049L125.628 13.056L126.347 13.4071C126.737 12.6087 127.262 12.0095 127.919 11.5832L127.484 10.912ZM125.628 13.056L124.909 12.7049C124.397 13.7541 124.156 14.9674 124.156 16.32H124.956H125.756C125.756 15.1552 125.963 14.1926 126.347 13.4071L125.628 13.056ZM124.956 16.32H124.156C124.156 17.6732 124.397 18.8941 124.906 19.9606L125.628 19.616L126.35 19.2714C125.963 18.4606 125.756 17.4841 125.756 16.32H124.956ZM125.628 19.616L124.909 19.9671C125.415 21.0034 126.127 21.8335 127.049 22.4312L127.484 21.76L127.919 21.0888C127.262 20.6625 126.737 20.0633 126.347 19.2649L125.628 19.616ZM127.484 21.76L127.049 22.4312C127.976 23.0329 129.025 23.328 130.172 23.328V22.528V21.728C129.313 21.728 128.57 21.5111 127.919 21.0888L127.484 21.76Z" fill="white" mask="url(#path-1-outside-1_723_46)"/>
</svg>
